<?xml version="1.0" encoding="utf-8"?>
<!-- Generator: Adobe Illustrator 24.0.0, SVG Export Plug-In . SVG Version: 6.00 Build 0)  -->
<svg version="1.1" id="Layer_1" xmlns="http://www.w3.org/2000/svg" xmlns:xlink="http://www.w3.org/1999/xlink" x="0px" y="0px"
	 viewBox="0 0 1800 1800" style="enable-background:new 0 0 1800 1800;" xml:space="preserve">
<style type="text/css">
	.st0{fill:url(#SVGID_1_);}
	.st1{opacity:0.4;fill:url(#SVGID_2_);}
	.st2{fill:url(#SVGID_3_);}
	.st3{fill:url(#SVGID_4_);}
	.st4{opacity:0.3;fill:url(#SVGID_5_);}
	.st5{opacity:0.6;fill:url(#SVGID_6_);}
	.st6{opacity:0.5;fill:url(#SVGID_7_);}
	.st7{opacity:0.5;fill:url(#SVGID_8_);}
	.st8{opacity:0.6;fill:url(#SVGID_9_);}
	.st9{fill:none;stroke:url(#SVGID_10_);stroke-miterlimit:10;}
	.st10{fill:none;stroke:url(#SVGID_11_);stroke-miterlimit:10;}
	.st11{fill:none;stroke:url(#SVGID_12_);stroke-miterlimit:10;}
	.st12{fill:none;stroke:url(#SVGID_13_);stroke-miterlimit:10;}
	.st13{fill:none;stroke:url(#SVGID_14_);stroke-miterlimit:10;}
	.st14{fill:none;stroke:url(#SVGID_15_);stroke-miterlimit:10;}
	.st15{fill:none;stroke:url(#SVGID_16_);stroke-miterlimit:10;}
	.st16{fill:none;stroke:url(#SVGID_17_);stroke-miterlimit:10;}
	.st17{fill:none;stroke:url(#SVGID_18_);stroke-width:2;stroke-miterlimit:10;}
	.st18{fill:none;stroke:url(#SVGID_19_);stroke-miterlimit:10;}
	.st19{fill:none;stroke:#F6BFE0;stroke-width:2;stroke-miterlimit:10;}
	.st20{fill:none;stroke:url(#SVGID_20_);stroke-width:1.5;stroke-miterlimit:10;}
	.st21{fill:none;stroke:url(#SVGID_21_);stroke-width:1.5;stroke-miterlimit:10;}
	.st22{fill:none;stroke:url(#SVGID_22_);stroke-width:1.5;stroke-miterlimit:10;}
	.st23{fill:none;stroke:url(#SVGID_23_);stroke-miterlimit:10;}
	.st24{opacity:0.4;fill:url(#SVGID_24_);}
	.st25{opacity:0.4;fill:url(#SVGID_25_);}
	.st26{opacity:0.8;fill:url(#SVGID_26_);}
	.st27{opacity:0.2;fill:url(#SVGID_27_);}
	.st28{opacity:0.5;fill:url(#SVGID_28_);}
	.st29{fill:url(#SVGID_29_);}
	.st30{opacity:0.6;fill:url(#SVGID_30_);}
	.st31{opacity:0.3;fill:url(#SVGID_31_);}
	.st32{fill:url(#SVGID_32_);}
	.st33{fill:url(#SVGID_33_);}
	.st34{fill:url(#SVGID_34_);}
	.st35{fill:url(#SVGID_35_);}
	.st36{fill:url(#SVGID_36_);}
	.st37{fill:url(#SVGID_37_);}
	.st38{fill:url(#SVGID_38_);}
	.st39{fill:none;stroke:url(#SVGID_39_);stroke-width:1.5;stroke-miterlimit:10;}
	.st40{fill:none;stroke:url(#SVGID_40_);stroke-width:1.5;stroke-miterlimit:10;}
	.st41{fill:none;stroke:url(#SVGID_41_);stroke-width:1.5;stroke-miterlimit:10;}
	.st42{fill:none;stroke:url(#SVGID_42_);stroke-miterlimit:10;}
	.st43{fill:none;stroke:url(#SVGID_43_);stroke-width:1.5;stroke-miterlimit:10;}
	.st44{fill:none;stroke:url(#SVGID_44_);stroke-width:1.5;stroke-miterlimit:10;}
	.st45{fill:none;stroke:url(#SVGID_45_);stroke-width:1.5;stroke-miterlimit:10;}
	.st46{fill:none;stroke:#7D1089;stroke-width:1.5;stroke-miterlimit:10;}
	.st47{fill:none;stroke:#7D1089;stroke-miterlimit:10;}
</style>
<linearGradient id="SVGID_1_" gradientUnits="userSpaceOnUse" x1="-6.061236e-08" y1="1800" x2="1800" y2="6.061032e-08">
	<stop  offset="0" style="stop-color:#775E8C"/>
	<stop  offset="0.2832" style="stop-color:#770AC8"/>
	<stop  offset="0.6215" style="stop-color:#D335BA"/>
	<stop  offset="0.981" style="stop-color:#EC55C7"/>
</linearGradient>
<rect class="st0" width="1800" height="1800"/>
<linearGradient id="SVGID_2_" gradientUnits="userSpaceOnUse" x1="-817.9428" y1="416.7868" x2="1471.5699" y2="416.7868">
	<stop  offset="0" style="stop-color:#E8AAC3"/>
	<stop  offset="1" style="stop-color:#8A35CE"/>
</linearGradient>
<polygon class="st1" points="326.8,920.1 -817.9,-86.5 1471.6,-86.5 "/>
<linearGradient id="SVGID_3_" gradientUnits="userSpaceOnUse" x1="602.3097" y1="1884.837" x2="1715.163" y2="771.9838">
	<stop  offset="0" style="stop-color:#941FCD"/>
	<stop  offset="0.9798" style="stop-color:#C31A75"/>
</linearGradient>
<rect x="517.5" y="856.8" class="st2" width="1282.5" height="943.2"/>
<linearGradient id="SVGID_4_" gradientUnits="userSpaceOnUse" x1="143.4543" y1="223.8918" x2="642.9664" y2="223.8918">
	<stop  offset="0" style="stop-color:#AC18C6"/>
	<stop  offset="1" style="stop-color:#D82EC1"/>
</linearGradient>
<polygon class="st3" points="643,57.8 156.4,544.4 143.5,390 630,-96.6 "/>
<linearGradient id="SVGID_5_" gradientUnits="userSpaceOnUse" x1="833.3134" y1="385.951" x2="1332.8254" y2="385.951">
	<stop  offset="0" style="stop-color:#AC18C6"/>
	<stop  offset="1" style="stop-color:#D82EC1"/>
</linearGradient>
<polygon class="st4" points="1332.8,219.9 846.3,706.4 833.3,552 1319.9,65.5 "/>
<linearGradient id="SVGID_6_" gradientUnits="userSpaceOnUse" x1="998.3863" y1="1215.98" x2="1497.8984" y2="1215.98">
	<stop  offset="0" style="stop-color:#EA3797"/>
	<stop  offset="1" style="stop-color:#F39AD1"/>
</linearGradient>
<polygon class="st5" points="1497.9,1049.9 1011.3,1536.4 998.4,1382.1 1484.9,895.5 "/>
<linearGradient id="SVGID_7_" gradientUnits="userSpaceOnUse" x1="900" y1="1677.7755" x2="1399.5121" y2="1677.7755">
	<stop  offset="0" style="stop-color:#EA3797"/>
	<stop  offset="1" style="stop-color:#F39AD1"/>
</linearGradient>
<polygon class="st6" points="1399.5,1511.7 913,1998.2 900,1843.9 1386.6,1357.3 "/>
<linearGradient id="SVGID_8_" gradientUnits="userSpaceOnUse" x1="950.878" y1="1716.4594" x2="1450.3901" y2="1716.4594">
	<stop  offset="0" style="stop-color:#EA3797"/>
	<stop  offset="1" style="stop-color:#F39AD1"/>
</linearGradient>
<polygon class="st7" points="1450.4,1550.4 963.8,2036.9 950.9,1882.5 1437.4,1396 "/>
<linearGradient id="SVGID_9_" gradientUnits="userSpaceOnUse" x1="1115.5298" y1="1607.7554" x2="1844.3468" y2="1607.7554">
	<stop  offset="0" style="stop-color:#EA3797"/>
	<stop  offset="1" style="stop-color:#F39AD1"/>
</linearGradient>
<polygon class="st8" points="1844.3,1365.4 1134.4,2075.3 1115.5,1850.1 1825.4,1140.2 "/>
<linearGradient id="SVGID_10_" gradientUnits="userSpaceOnUse" x1="1158.2186" y1="1890.5985" x2="1658.7661" y2="1890.5985">
	<stop  offset="0" style="stop-color:#EA3797"/>
	<stop  offset="1" style="stop-color:#F39AD1"/>
</linearGradient>
<polygon class="st9" points="1658.2,1724.5 1171.7,2211.1 1158.7,2056.7 1645.3,1570.1 "/>
<linearGradient id="SVGID_11_" gradientUnits="userSpaceOnUse" x1="326.2959" y1="1993.2615" x2="1524.4393" y2="1993.2615">
	<stop  offset="0" style="stop-color:#EA3797"/>
	<stop  offset="1" style="stop-color:#F39AD1"/>
</linearGradient>
<polygon class="st10" points="1523.9,1595.2 357.9,2761.3 326.8,2391.3 1492.9,1225.2 "/>
<linearGradient id="SVGID_12_" gradientUnits="userSpaceOnUse" x1="-112.4015" y1="471.2576" x2="1085.7419" y2="471.2576">
	<stop  offset="0" style="stop-color:#EA3797"/>
	<stop  offset="1" style="stop-color:#F39AD1"/>
</linearGradient>
<polygon class="st11" points="1085.2,73.2 -80.8,1239.3 -111.9,869.3 1054.2,-296.8 "/>
<linearGradient id="SVGID_13_" gradientUnits="userSpaceOnUse" x1="270.6956" y1="900" x2="764.2496" y2="900">
	<stop  offset="0" style="stop-color:#EA3797"/>
	<stop  offset="1" style="stop-color:#F39AD1"/>
</linearGradient>
<polygon class="st12" points="763.7,736.2 284,1216 271.2,1063.8 751,584 "/>
<linearGradient id="SVGID_14_" gradientUnits="userSpaceOnUse" x1="400.9404" y1="1470.454" x2="1070.854" y2="1470.454">
	<stop  offset="0" style="stop-color:#EA3797"/>
	<stop  offset="1" style="stop-color:#F39AD1"/>
</linearGradient>
<polygon class="st13" points="1070.3,1248.1 418.8,1899.6 401.5,1692.9 1053,1041.3 "/>
<linearGradient id="SVGID_15_" gradientUnits="userSpaceOnUse" x1="392.6927" y1="1425.3854" x2="1062.6063" y2="1425.3854">
	<stop  offset="0" style="stop-color:#EA3797"/>
	<stop  offset="1" style="stop-color:#F39AD1"/>
</linearGradient>
<polygon class="st14" points="1062.1,1203 410.6,1854.5 393.2,1647.8 1044.7,996.3 "/>
<linearGradient id="SVGID_16_" gradientUnits="userSpaceOnUse" x1="392.6927" y1="1395.9927" x2="1062.6063" y2="1395.9927">
	<stop  offset="0" style="stop-color:#EA3797"/>
	<stop  offset="1" style="stop-color:#F39AD1"/>
</linearGradient>
<polygon class="st15" points="1062.1,1173.6 410.6,1825.1 393.2,1618.4 1044.7,966.9 "/>
<linearGradient id="SVGID_17_" gradientUnits="userSpaceOnUse" x1="1332.2115" y1="536.2058" x2="2002.1251" y2="536.2058">
	<stop  offset="0" style="stop-color:#EA3797"/>
	<stop  offset="1" style="stop-color:#F39AD1"/>
</linearGradient>
<polygon class="st16" points="2001.6,313.8 1350.1,965.3 1332.7,758.6 1984.3,107.1 "/>
<linearGradient id="SVGID_18_" gradientUnits="userSpaceOnUse" x1="1247.1071" y1="449.6459" x2="1918.0559" y2="449.6459">
	<stop  offset="0" style="stop-color:#8B91BF"/>
	<stop  offset="1" style="stop-color:#D82EC1"/>
</linearGradient>
<polygon class="st17" points="1917,227.2 1265.5,878.8 1248.1,672 1899.7,20.5 "/>
<linearGradient id="SVGID_19_" gradientUnits="userSpaceOnUse" x1="1073.5355" y1="324.3976" x2="1743.4492" y2="324.3976">
	<stop  offset="0" style="stop-color:#EA3797"/>
	<stop  offset="1" style="stop-color:#F39AD1"/>
</linearGradient>
<polygon class="st18" points="1742.9,102 1091.4,753.5 1074.1,546.8 1725.6,-104.7 "/>
<polygon class="st19" points="1788.5,416.8 -332.2,416.8 -24,52.1 2096.7,52.1 "/>
<linearGradient id="SVGID_20_" gradientUnits="userSpaceOnUse" x1="575.9617" y1="1206.374" x2="2117.0229" y2="1206.374" gradientTransform="matrix(0.7071 0.7071 -0.7071 0.7071 800.9214 -397.563)">
	<stop  offset="0" style="stop-color:#EA3797"/>
	<stop  offset="1" style="stop-color:#F39AD1"/>
</linearGradient>
<polygon class="st20" points="1806.3,1589.9 -314.5,1589.9 -6.3,1225.2 2114.5,1225.2 "/>
<linearGradient id="SVGID_21_" gradientUnits="userSpaceOnUse" x1="472.8214" y1="1197.5428" x2="2013.8827" y2="1197.5428" gradientTransform="matrix(0.7071 0.7071 -0.7071 0.7071 800.9214 -397.563)">
	<stop  offset="0" style="stop-color:#EA3797"/>
	<stop  offset="1" style="stop-color:#F39AD1"/>
</linearGradient>
<polygon class="st21" points="1739.6,1510.8 -381.1,1510.8 -72.9,1146.1 2047.8,1146.1 "/>
<linearGradient id="SVGID_22_" gradientUnits="userSpaceOnUse" x1="544.539" y1="1128.9456" x2="2085.325" y2="1128.9456" gradientTransform="matrix(0.7071 0.7071 -0.7071 0.7071 800.9214 -397.563)">
	<stop  offset="0" style="stop-color:#EA3797"/>
	<stop  offset="1" style="stop-color:#F39AD1"/>
</linearGradient>
<polyline class="st22" points="-142.5,1316.7 1978.2,1316.7 1670,1681.4 "/>
<linearGradient id="SVGID_23_" gradientUnits="userSpaceOnUse" x1="-355.4331" y1="65.4843" x2="842.7104" y2="65.4843">
	<stop  offset="0" style="stop-color:#EA3797"/>
	<stop  offset="1" style="stop-color:#F39AD1"/>
</linearGradient>
<polygon class="st23" points="842.2,-332.6 -323.9,833.5 -354.9,463.5 811.1,-702.5 "/>
<linearGradient id="SVGID_24_" gradientUnits="userSpaceOnUse" x1="583.5573" y1="955.0875" x2="1083.0695" y2="955.0875">
	<stop  offset="0" style="stop-color:#C583BF"/>
	<stop  offset="1" style="stop-color:#DD95BD"/>
</linearGradient>
<polygon class="st24" points="1083.1,789 596.5,1275.6 583.6,1121.2 1070.1,634.6 "/>
<linearGradient id="SVGID_25_" gradientUnits="userSpaceOnUse" x1="284.3589" y1="1375.1715" x2="1468.1409" y2="1375.1715">
	<stop  offset="0" style="stop-color:#C583BF"/>
	<stop  offset="1" style="stop-color:#DD95BD"/>
</linearGradient>
<polygon class="st25" points="1468.1,981.6 315.1,2134.6 284.4,1768.8 1437.4,615.7 "/>
<linearGradient id="SVGID_26_" gradientUnits="userSpaceOnUse" x1="243.6386" y1="215.7391" x2="743.1507" y2="215.7391">
	<stop  offset="0" style="stop-color:#C583BF"/>
	<stop  offset="1" style="stop-color:#DD95BD"/>
</linearGradient>
<polygon class="st26" points="743.2,49.7 256.6,536.2 243.6,381.8 730.2,-104.7 "/>
<linearGradient id="SVGID_27_" gradientUnits="userSpaceOnUse" x1="-113.0473" y1="478.4974" x2="932.2964" y2="478.4974">
	<stop  offset="0" style="stop-color:#C583BF"/>
	<stop  offset="1" style="stop-color:#DD95BD"/>
</linearGradient>
<polygon class="st27" points="932.3,130.9 -85.9,1149.1 -113,826.1 905.2,-192.2 "/>
<linearGradient id="SVGID_28_" gradientUnits="userSpaceOnUse" x1="21.4573" y1="254.2879" x2="520.9694" y2="254.2879">
	<stop  offset="0" style="stop-color:#C583BF"/>
	<stop  offset="1" style="stop-color:#DD95BD"/>
</linearGradient>
<polygon class="st28" points="521,88.2 34.4,574.8 21.5,420.4 508,-66.2 "/>
<linearGradient id="SVGID_29_" gradientUnits="userSpaceOnUse" x1="262.6165" y1="94.8897" x2="573.2427" y2="94.8897">
	<stop  offset="0" style="stop-color:#8B91BF"/>
	<stop  offset="1" style="stop-color:#D82EC1"/>
</linearGradient>
<polygon class="st29" points="573.2,-8.4 270.7,294.2 262.6,198.2 565.2,-104.4 "/>
<linearGradient id="SVGID_30_" gradientUnits="userSpaceOnUse" x1="-15.6039" y1="1114.493" x2="295.0223" y2="1114.493">
	<stop  offset="0" style="stop-color:#8B91BF"/>
	<stop  offset="1" style="stop-color:#D82EC1"/>
</linearGradient>
<polygon class="st30" points="295,1011.2 -7.5,1313.8 -15.6,1217.8 287,915.2 "/>
<linearGradient id="SVGID_31_" gradientUnits="userSpaceOnUse" x1="57.9375" y1="1239.493" x2="199.224" y2="1239.493">
	<stop  offset="0" style="stop-color:#9C2192"/>
	<stop  offset="0.5875" style="stop-color:#EA39BD"/>
</linearGradient>
<polygon class="st31" points="199.2,1192.5 61.6,1330.1 57.9,1286.5 195.6,1148.8 "/>
<linearGradient id="SVGID_32_" gradientUnits="userSpaceOnUse" x1="459.0119" y1="398.031" x2="743.1507" y2="398.031">
	<stop  offset="0" style="stop-color:#9C2192"/>
	<stop  offset="0.5875" style="stop-color:#EA39BD"/>
</linearGradient>
<polygon class="st32" points="743.2,303.6 466.4,580.3 459,492.5 735.8,215.7 "/>
<linearGradient id="SVGID_33_" gradientUnits="userSpaceOnUse" x1="1484.6024" y1="479.2453" x2="1573.5225" y2="479.2453">
	<stop  offset="0" style="stop-color:#AC18C6"/>
	<stop  offset="1" style="stop-color:#D82EC1"/>
</linearGradient>
<polygon class="st33" points="1529.1,498.8 1484.6,459.7 1573.5,459.7 "/>
<linearGradient id="SVGID_34_" gradientUnits="userSpaceOnUse" x1="1483.6605" y1="491.1549" x2="1572.5806" y2="491.1549">
	<stop  offset="0" style="stop-color:#E8AAC3"/>
	<stop  offset="1" style="stop-color:#8A35CE"/>
</linearGradient>
<polygon class="st34" points="1528.1,510.7 1483.7,471.6 1572.6,471.6 "/>
<linearGradient id="SVGID_35_" gradientUnits="userSpaceOnUse" x1="178.8698" y1="975.7164" x2="289.6123" y2="975.7164" gradientTransform="matrix(6.123234e-17 1 -1 6.123234e-17 1130.9409 779.2339)">
	<stop  offset="0" style="stop-color:#AC18C6"/>
	<stop  offset="1" style="stop-color:#D82EC1"/>
</linearGradient>
<polygon class="st35" points="106,1013.5 204.4,958.1 204.4,1068.8 "/>
<linearGradient id="SVGID_36_" gradientUnits="userSpaceOnUse" x1="324.053" y1="1046.8966" x2="379.4242" y2="1046.8966" gradientTransform="matrix(6.123234e-17 1 -1 6.123234e-17 1130.9409 779.2339)">
	<stop  offset="0" style="stop-color:#C583BF"/>
	<stop  offset="1" style="stop-color:#DD95BD"/>
</linearGradient>
<polygon class="st36" points="59.4,1131 108.6,1103.3 108.6,1158.7 "/>
<linearGradient id="SVGID_37_" gradientUnits="userSpaceOnUse" x1="179.6968" y1="1038.6954" x2="290.4392" y2="1038.6954" gradientTransform="matrix(6.123234e-17 1 -1 6.123234e-17 1130.9409 779.2339)">
	<stop  offset="0" style="stop-color:#E8AAC3"/>
	<stop  offset="1" style="stop-color:#8A35CE"/>
</linearGradient>
<polygon class="st37" points="43,1014.3 141.5,958.9 141.5,1069.7 "/>
<linearGradient id="SVGID_38_" gradientUnits="userSpaceOnUse" x1="1582.5815" y1="757.8525" x2="1781.098" y2="757.8525">
	<stop  offset="0" style="stop-color:#8B91BF"/>
	<stop  offset="1" style="stop-color:#D82EC1"/>
</linearGradient>
<polygon class="st38" points="1582.6,615.7 1781.1,615.7 1582.6,900 "/>
<linearGradient id="SVGID_39_" gradientUnits="userSpaceOnUse" x1="-468.7167" y1="298.0954" x2="1072.3446" y2="298.0954">
	<stop  offset="0" style="stop-color:#7D1089"/>
	<stop  offset="1" style="stop-color:#F39AD1"/>
</linearGradient>
<polygon class="st39" points="1071.6,-213.8 -428,1285.8 -467.9,810 1031.6,-689.6 "/>
<linearGradient id="SVGID_40_" gradientUnits="userSpaceOnUse" x1="-571.8569" y1="289.2643" x2="969.2043" y2="289.2643">
	<stop  offset="0" style="stop-color:#7D1089"/>
	<stop  offset="1" style="stop-color:#F39AD1"/>
</linearGradient>
<polygon class="st40" points="968.4,-222.6 -531.1,1277 -571.1,801.1 928.5,-698.4 "/>
<linearGradient id="SVGID_41_" gradientUnits="userSpaceOnUse" x1="-500.1394" y1="220.6669" x2="1040.6466" y2="220.6669">
	<stop  offset="0" style="stop-color:#7D1089"/>
	<stop  offset="1" style="stop-color:#F39AD1"/>
</linearGradient>
<polyline class="st41" points="-499.6,971 1000,-528.5 1039.9,-52.7 "/>
<linearGradient id="SVGID_42_" gradientUnits="userSpaceOnUse" x1="802.8154" y1="1490.3187" x2="2000.9589" y2="1490.3187">
	<stop  offset="0" style="stop-color:#EA3797"/>
	<stop  offset="1" style="stop-color:#F39AD1"/>
</linearGradient>
<polygon class="st42" points="2000.4,1092.3 834.4,2258.3 803.3,1888.4 1969.4,722.3 "/>
<linearGradient id="SVGID_43_" gradientUnits="userSpaceOnUse" x1="689.5319" y1="1722.9299" x2="2230.5933" y2="1722.9299">
	<stop  offset="0" style="stop-color:#7D1089"/>
	<stop  offset="1" style="stop-color:#F39AD1"/>
</linearGradient>
<polygon class="st43" points="2229.8,1211 730.2,2710.6 690.3,2234.8 2189.9,735.2 "/>
<linearGradient id="SVGID_44_" gradientUnits="userSpaceOnUse" x1="586.3915" y1="1714.0988" x2="2127.4529" y2="1714.0988">
	<stop  offset="0" style="stop-color:#7D1089"/>
	<stop  offset="1" style="stop-color:#F39AD1"/>
</linearGradient>
<polygon class="st44" points="2126.7,1202.2 627.1,2701.8 587.2,2226 2086.7,726.4 "/>
<linearGradient id="SVGID_45_" gradientUnits="userSpaceOnUse" x1="658.1091" y1="1645.5015" x2="2198.8953" y2="1645.5015">
	<stop  offset="0" style="stop-color:#7D1089"/>
	<stop  offset="1" style="stop-color:#F39AD1"/>
</linearGradient>
<polyline class="st45" points="658.6,2395.9 2158.2,896.3 2198.1,1372.1 "/>
<polygon class="st46" points="1399.4,773.5 -721.3,773.5 -413.1,408.8 1707.6,408.8 "/>
<polygon class="st46" points="1596.6,1175.8 -524.2,1175.8 -215.9,811.1 1904.8,811.1 "/>
<polyline class="st46" points="-549.4,500.3 1571.3,500.3 1263.1,864.9 "/>
<polygon class="st47" points="1593.6,275.8 427.5,1441.9 396.5,1071.9 1562.5,-94.2 "/>
<polygon class="st46" points="829.2,167.5 -670.4,1667.1 -710.3,1191.3 789.3,-308.3 "/>
<polyline class="st46" points="251.8,1579.4 1751.3,79.8 1791.3,555.6 "/>
</svg>
