<?xml version="1.0" encoding="utf-8"?>
<!-- Generator: Adobe Illustrator 24.0.0, SVG Export Plug-In . SVG Version: 6.00 Build 0)  -->
<svg version="1.1" id="Layer_1" xmlns="http://www.w3.org/2000/svg" xmlns:xlink="http://www.w3.org/1999/xlink" x="0px" y="0px"
	 viewBox="0 0 915 450" style="enable-background:new 0 0 915 450;" xml:space="preserve">
<style type="text/css">
	.st0{fill:#4D0F51;}
	.st1{fill:#FD47B5;}
	.st2{enable-background:new    ;}
	.st3{clip-path:url(#SVGID_3_);enable-background:new    ;}
	.st4{fill:#00C9FF;}
	.st5{clip-path:url(#SVGID_6_);enable-background:new    ;}
	.st6{fill:url(#SVGID_7_);}
	.st7{fill:url(#SVGID_8_);}
	.st8{fill:url(#SVGID_9_);}
	.st9{fill:url(#SVGID_10_);}
	.st10{fill:url(#SVGID_11_);}
	.st11{clip-path:url(#SVGID_14_);enable-background:new    ;}
	.st12{fill:url(#SVGID_15_);}
	.st13{fill:url(#SVGID_16_);}
	.st14{clip-path:url(#SVGID_19_);}
	.st15{clip-path:url(#SVGID_22_);}
	.st16{clip-path:url(#SVGID_25_);enable-background:new    ;}
	.st17{fill:url(#SVGID_26_);}
	.st18{fill:url(#SVGID_27_);}
	.st19{fill:url(#SVGID_28_);}
	.st20{fill:url(#SVGID_29_);}
	.st21{clip-path:url(#SVGID_32_);}
	.st22{clip-path:url(#SVGID_35_);enable-background:new    ;}
	.st23{fill:url(#SVGID_36_);}
	.st24{fill:url(#SVGID_37_);}
	.st25{fill:url(#SVGID_38_);}
	.st26{fill:url(#SVGID_39_);}
	.st27{clip-path:url(#SVGID_42_);enable-background:new    ;}
	.st28{fill:url(#SVGID_43_);}
	.st29{fill:url(#SVGID_44_);}
	.st30{fill:url(#SVGID_45_);}
	.st31{fill:url(#SVGID_46_);}
	.st32{fill:url(#SVGID_47_);}
	.st33{clip-path:url(#SVGID_50_);enable-background:new    ;}
	.st34{fill:url(#SVGID_51_);}
	.st35{clip-path:url(#SVGID_54_);}
	.st36{clip-path:url(#SVGID_57_);enable-background:new    ;}
	.st37{clip-path:url(#SVGID_60_);}
	.st38{fill:#48F6FF;}
	.st39{clip-path:url(#SVGID_63_);enable-background:new    ;}
	.st40{fill:url(#SVGID_64_);}
	.st41{fill:url(#SVGID_65_);}
</style>
<polygon class="st0" points="571.4,225.2 601.5,104.1 556.6,104.1 548.9,135.3 562.7,135.3 540.3,225.2 "/>
<polygon class="st0" points="612.8,225.2 620.6,193.9 589.6,193.9 581.9,225.2 "/>
<path class="st0" d="M685.6,108.3c-7.5,2.8-14.8,6.6-21.7,11.4c-7,4.8-13.2,10.4-18.7,16.8c-5.5,6.4-9.4,13.2-11.8,20.5l-3.8,15.3
	c-1.3,7.2-1,14.1,0.7,20.6c1.7,6.5,4.6,12.2,8.5,17.1c3.9,4.9,8.7,8.9,14.3,11.7c5.6,2.9,11.7,4.3,18.3,4.3h4
	c6.4,0,13.3-0.3,20.8-0.9c7.5-0.6,14.6-2.3,21.4-5c6.8-2.7,13-6.8,18.4-12.3c5.4-5.5,9.3-13.1,11.7-22.7l9-36.2h-85.5
	c2.2-2.2,4.6-4.4,7.1-6.5c2.5-2.1,5.1-3.9,7.6-5.3c2.6-1.5,5.1-2.6,7.5-3.6c2.4-0.9,4.7-1.4,6.8-1.4h60.4l6.9-28h-60.8
	C700.2,104.1,693.1,105.5,685.6,108.3z M717.8,180.3l-2.1,8.4c-0.4,1.8-1.6,3.3-3.6,4.4c-2,1.1-4.3,2-7,2.6c-2.7,0.6-5.6,1-8.8,1.3
	c-3.1,0.2-6.2,0.3-9.1,0.3h-3.3c-4.2,0-8.1-1.6-11.8-4.9c-3.7-3.3-6.4-7.3-8.1-12H717.8z"/>
<path class="st0" d="M805.1,138.7c2.6-1.7,5.6-3,9-4c3.4-1,7-1.6,10.8-2c3.8-0.3,7.2-0.5,10.2-0.5h22.2l-23.2,93H865l30.1-121.1
	h-55.4c-6.6,0-13.5,0.3-20.7,0.9c-7.2,0.6-14.2,2.3-20.9,5c-6.7,2.7-12.6,6.8-17.9,12.1c-5.2,5.4-9,12.7-11.4,22.1
	c-1.8,7.1-2.2,13.1-1.3,18.1c1,5,2.9,9.1,5.6,12.4c2.8,3.3,6.3,6,10.7,7.8c4.3,1.9,9,3.3,14.1,4.3c5.1,1,10.3,1.6,15.7,1.9
	c5.4,0.3,10.6,0.4,15.6,0.4h6.5l7.7-30.9h-14.8c-9.8,0-17.2-0.9-22.4-2.8c-5.2-1.9-7.2-5.3-6.1-10.4
	C800.9,142.5,802.5,140.3,805.1,138.7z"/>
<path class="st0" d="M566,291.6c1.5-0.2,2.1-0.8,2.3-1.6l-10.1-0.7v11.8h-45.7v6.9h45.7v11.5H521v6.8H604v-6.8h-38V308h46.7v-6.9
	H566V291.6z"/>
<path class="st0" d="M585.3,385.1h-33.7c-9.4,0-11.2-0.9-11.2-5.2v-9.8c17.3-3.6,36.2-8.5,47.3-13.8c1.7,0,1.9,0,2.4-0.3l-7.2-5.8
	c-9.5,5.1-26.6,10.1-42.5,13.6v-15.1c1.5-0.2,2.1-0.8,2.3-1.6l-9.8-0.7V380c0,9.8,4.2,12.1,18.9,12.1h33.8c12.9,0,15.6-3.7,17-19.1
	c-2.1-0.5-5.3-1.6-7.2-2.9C594.5,382.9,593.2,385.1,585.3,385.1z"/>
<polygon class="st0" points="514.6,356 521.9,356 521.9,342.5 602.7,342.5 602.7,356 610.3,356 610.3,335.6 514.6,335.6 "/>
<circle class="st0" cx="639.2" cy="341.9" r="11.6"/>
<path class="st0" d="M738.8,367.9H764v-6.8h-25.2v-11.6c1.6-0.2,2.1-0.8,2.3-1.6l-9.7-0.7v13.9H707v6.8h24.3v16.8h-32.8v6.9h72.3
	v-6.9h-32.1V367.9z"/>
<path class="st0" d="M703.6,351.9c0-1.2-0.1-2.5-0.2-3.7c1.1,1.4,2.5,3.3,3.1,4.6c14.8-4.7,18.8-13,20.1-25.5h15.1v11.9
	c0,7,1.7,8.8,9.3,8.8h11.2c5.7,0,7.7-2.5,8.4-12.8c-1.9-0.6-4.7-1.6-6.1-2.6c-0.3,8.1-0.8,9-3.2,9h-9.4c-2.8,0-3.3-0.2-3.3-2.5
	v-11.9h21v-6.8h-30.9v-13h24.4v-6.7h-24.4v-8.9c1.6-0.2,2.1-0.8,2.3-1.6l-9.7-0.7v11.2h-23.5v6.7h23.5v13h-29v6.8h17.1
	c-1.1,10.4-4.7,16-16.3,19.6c-1.1-5.9-4.5-12.2-11.2-19.3c3.8-9.3,8.4-20.8,11.3-29.4c0.3-0.1,0.8-0.7,0.9-1l-5.1-2.9l-1.2,0.3
	h-27.1v100.1h7.1v-93.2h16.6c-2.6,7.9-6.1,18.4-9.7,27c8.7,9,11.8,16.6,11.9,22.9c0,9.6-4.4,9.6-8.8,9.6c-1.5,0-3.2-0.1-4.9-0.3
	c1,1.9,1.8,4.9,1.9,6.8c1,0.1,2,0.1,3.2,0.1C694.3,367.5,703.6,367.5,703.6,351.9z"/>
<path class="st0" d="M819.5,362.1c-5.7,1.5-11.5,2.9-17.1,4.4v-27.1H816v-7.1h-13.6v-25h16v-7.1h-38.8v7.1h15.4v25h-13.7v7.1h13.7
	v28.9c-6.3,1.6-12.2,2.9-16.8,4.1l2.8,8.5c0.8-0.2,1.5-0.8,1.6-1.8c9.2-2.4,23.7-6.4,37.5-10.3L819.5,362.1z"/>
<path class="st0" d="M862.8,338.3c3.4-8.8,6-18.5,7.9-29c0.5-0.2,0.9-0.8,1-1.4l-5.1-2.1l-1.5,0.5H840c1.2-4.4,2.5-8.8,3.5-13.2
	c1.5,0.1,2.4-0.3,2.6-1.2l-9.6-2.4c-4.4,20.5-12.1,40.9-21.4,52.9c1.9,0.9,4.9,2.8,6.3,4.1c6.2-8.4,11.8-20.1,16.2-32.9H862
	c-7.8,36.8-27.9,63.7-50.5,75.1c1.8,1.5,4.2,4.4,5.4,6.3c16-9,30.4-24.1,40.7-44.9c4.3,19.1,11.2,34.9,22.3,44.4
	c1.4-2.1,4.1-5.1,5.9-6.7C873.5,378.3,866.3,359.8,862.8,338.3z"/>
<path class="st0" d="M503.7,248.4c-1,9-2.4,17.8-4.3,26.4h412.8v-26.4H503.7z"/>
<path class="st1" d="M489.6,120.9c-0.1-0.3-0.2-0.6-0.3-0.8l-0.2-0.6c-0.3-1-0.6-1.8-1-2.8l-2-4.7c-5.9-14.8-20.4-25.6-43.3-32.3
	c-6.3-1.8-13.2-3.3-20.5-4.5C381.1,30,322.5,4,261.1,4c-118.9,0-215.8,95.6-218,214c-11.3,11.8-20.6,24-27.7,36.3
	c-8.2,14-11.4,26.9-9.8,38.2c0,0,0.9,5.9,1.5,7.8s3.3,6.9,3.3,6.9c0.1,0.2,0.2,0.4,0.3,0.6c5.2,12,16.3,20.6,32.8,25.7
	c0,0,0.6,0.2,0.9,0.3l0.4,0.1l0.4,0.1c1,0.3,2.1,0.6,3.5,0.9l1,0.2c1,0.2,2,0.5,3,0.7c0.3,0.1,0.7,0.1,1,0.2
	c1.2,0.2,2.4,0.5,3.6,0.7l0.3,0c2.6,0.4,5.4,0.8,8.4,1.2l0.5,0.1c1.3,0.1,2.5,0.3,3.8,0.4l0.3,0c2.1,0.2,4.3,0.3,6.6,0.5
	c18.5,29.1,43.9,53.6,73.6,71.1c33.3,19.6,71.5,30,110.4,30c120.2,0,218-97.8,218-218c0-16.3-1.8-32.6-5.4-48.4
	c0.4-0.5,0.7-1,1.1-1.5l0.5-0.7c0.6-0.9,1.2-1.7,1.8-2.6l0.1-0.1c0.6-0.8,1.1-1.6,1.7-2.5l0.5-0.8c0.4-0.6,0.8-1.3,1.2-2l0.5-0.8
	c0.4-0.7,0.8-1.5,1.2-2.1l0.4-0.7c0.5-1,1-1.9,1.4-2.9c0.1-0.2,0.4-0.8,0.4-0.8c0.3-0.7,0.7-1.5,1-2.3c0.1-0.3,0.4-1.1,0.4-1.1
	c0.3-0.7,0.6-1.4,0.8-2.1c0,0,0.3-0.8,0.4-1c0.2-0.7,0.5-1.3,0.6-1.9c0.3-0.8,0.7-1.6,1-2.5l0.1-0.3c0.1-0.4,0.2-0.7,0.3-1
	c0.1-0.2,0.1-0.4,0.2-0.7c0.1-0.4,0.2-0.8,0.3-1.1c0.1-0.2,0.1-0.4,0.2-0.7c0.1-0.4,0.2-0.8,0.3-1.3c0.1-0.2,0.1-0.5,0.1-0.7
	c0.1-0.4,0.1-0.8,0.2-1.2c0-0.2,0.1-0.4,0.1-0.6c0-0.2,0.1-0.5,0.1-0.7c0.1-0.5,0.1-1.1,0.2-1.6l0-0.1c0-0.3,0.1-0.6,0.1-1
	c0.1-0.8,0.1-1.7,0.1-2.4l0-0.2c0,0,0-0.8,0-1C491.1,130.5,491.1,125.1,489.6,120.9z"/>
<path class="st1" d="M489.6,120.9c-0.1-0.3-0.2-0.6-0.3-0.8l-0.2-0.6c-0.3-1-0.6-1.8-1-2.8l-2-4.7c-5.9-14.8-20.4-25.6-43.3-32.3
	c-6.3-1.8-13.2-3.3-20.5-4.5C381.1,30,322.5,4,261.1,4c-118.9,0-215.8,95.6-218,214c-11.3,11.8-20.6,24-27.7,36.3
	c-8.2,14-11.4,26.9-9.8,38.2c0,0,0.9,5.9,1.5,7.8s3.3,6.9,3.3,6.9c0.1,0.2,0.2,0.4,0.3,0.6c5.2,12,16.3,20.6,32.8,25.7
	c0,0,0.6,0.2,0.9,0.3l0.4,0.1l0.4,0.1c1,0.3,2.1,0.6,3.5,0.9l1,0.2c1,0.2,2,0.5,3,0.7c0.3,0.1,0.7,0.1,1,0.2
	c1.2,0.2,2.4,0.5,3.6,0.7l0.3,0c2.6,0.4,5.4,0.8,8.4,1.2l0.5,0.1c1.3,0.1,2.5,0.3,3.8,0.4l0.3,0c2.1,0.2,4.3,0.3,6.6,0.5
	c18.5,29.1,43.9,53.6,73.6,71.1c33.3,19.6,71.5,30,110.4,30c120.2,0,218-97.8,218-218c0-16.3-1.8-32.6-5.4-48.4
	c0.4-0.5,0.7-1,1.1-1.5l0.5-0.7c0.6-0.9,1.2-1.7,1.8-2.6l0.1-0.1c0.6-0.8,1.1-1.6,1.7-2.5l0.5-0.8c0.4-0.6,0.8-1.3,1.2-2l0.5-0.8
	c0.4-0.7,0.8-1.5,1.2-2.1l0.4-0.7c0.5-1,1-1.9,1.4-2.9c0.1-0.2,0.4-0.8,0.4-0.8c0.3-0.7,0.7-1.5,1-2.3c0.1-0.3,0.4-1.1,0.4-1.1
	c0.3-0.7,0.6-1.4,0.8-2.1c0,0,0.3-0.8,0.4-1c0.2-0.7,0.5-1.3,0.6-1.9c0.3-0.8,0.7-1.6,1-2.5l0.1-0.3c0.1-0.4,0.2-0.7,0.3-1
	c0.1-0.2,0.1-0.4,0.2-0.7c0.1-0.4,0.2-0.8,0.3-1.1c0.1-0.2,0.1-0.4,0.2-0.7c0.1-0.4,0.2-0.8,0.3-1.3c0.1-0.2,0.1-0.5,0.1-0.7
	c0.1-0.4,0.1-0.8,0.2-1.2c0-0.2,0.1-0.4,0.1-0.6c0-0.2,0.1-0.5,0.1-0.7c0.1-0.5,0.1-1.1,0.2-1.6l0-0.1c0-0.3,0.1-0.6,0.1-1
	c0.1-0.8,0.1-1.7,0.1-2.4l0-0.2c0,0,0-0.8,0-1C491.1,130.5,491.1,125.1,489.6,120.9z"/>
<path class="st1" d="M481.1,131.2c0-0.2,0-0.5,0-0.7l0-0.2c-0.1-1.2-0.2-2.5-0.4-3.7l0-0.1c-0.1-0.3-0.1-0.7-0.2-1
	c-0.1-0.3-0.1-0.6-0.2-0.9l-0.1-0.2c0-0.2-0.1-0.4-0.1-0.5l0,0l0,0c-0.1-0.2-0.1-0.4-0.2-0.5l-0.2-0.5c-0.3-0.8-0.5-1.4-0.8-2.1
	l-2-4.8c-4.6-11.8-17-20.7-36.8-26.5c-6.8-2-14.5-3.6-22.8-4.7C377.8,39.8,321,14,261.1,14c-114.7,0-208,93.3-208,208
	c0,0,0,0.1,0,0.1c-12,12.2-21.8,24.7-29,37.2c-8.8,15.2-11.1,28.3-6.6,38.8l0,0l2.3,5.4c0,0.1,0.1,0.2,0.1,0.3
	c4,9.2,13,16,26.6,20.2c0,0,0.8,0.2,1,0.3l0.2,0.1l0.1,0c1,0.3,2,0.6,3.3,0.9l0.9,0.2c0.9,0.2,1.8,0.4,2.8,0.6
	c0.3,0.1,0.6,0.1,0.9,0.2c1.1,0.2,2.2,0.4,3.4,0.6l0.2,0c2.4,0.4,5,0.8,7.8,1.1l0.5,0.1c1.2,0.1,2.4,0.2,3.6,0.4l0.3,0
	c2.6,0.2,5.3,0.4,8.1,0.5c1.1,0,2.2,0.1,3.3,0.1c17.9,29.7,43,54.6,72.9,72.2C187.6,420.1,224,430,261.1,430
	c114.7,0,208-93.3,208-208c0-17.2-2.1-34.3-6.3-50.8c0.1-0.2,0.7-0.9,0.7-0.9c0.5-0.6,0.9-1.2,1.4-1.7l0.5-0.7
	c0.4-0.6,0.8-1.1,1.3-1.7l0.4-0.6c0.6-0.8,1.1-1.5,1.6-2.3l0.1-0.2c0.5-0.7,1-1.5,1.5-2.2l0.5-0.7c0.4-0.6,0.7-1.2,1.1-1.8l0.5-0.8
	c0.4-0.6,0.7-1.3,1.1-1.9l0.3-0.6c0.4-0.8,0.9-1.7,1.3-2.5c0.1-0.2,0.3-0.7,0.3-0.7c0.3-0.7,0.6-1.3,0.9-2c0.1-0.3,0.2-0.6,0.4-0.9
	c0.3-0.6,0.5-1.3,0.7-1.9c0,0,0.2-0.6,0.3-0.9c0.3-0.8,0.5-1.5,0.7-2.2c0.2-0.5,0.6-1.2,0.9-2.2l0.1-0.2c0.1-0.3,0.2-0.5,0.3-0.8
	c0-0.1,0.1-0.2,0.1-0.4c0.1-0.3,0.2-0.6,0.3-0.9c0-0.1,0.1-0.3,0.1-0.5c0.1-0.3,0.2-0.6,0.2-1c0-0.2,0.1-0.4,0.1-0.5
	c0.1-0.3,0.1-0.6,0.2-1c0-0.1,0-0.2,0.1-0.3c0-0.1,0-0.3,0.1-0.4c0.1-0.4,0.1-0.9,0.2-1.3l0-0.1c0-0.2,0-0.4,0.1-0.7
	c0-0.7,0.1-1.4,0.1-2l0-0.1L481.1,131.2z M62.4,299c-5.4-1.6-9.4-3.7-11.6-6.2c0,0,0-0.3,0-0.3c0-0.2,0-0.4,0-0.6c0-0.1,0-0.3,0-0.4
	c0-0.2,0-0.4,0-0.6c0-0.2,0-0.3,0.1-0.5c0-0.2,0.1-0.5,0.1-0.8l0.1-0.3c0.1-0.3,0.1-0.6,0.2-0.9l0.1-0.3c0.1-0.4,0.2-0.8,0.4-1.3
	c0.5-1.4,1.2-3,1.9-4.5l0.1-0.1c0.3-0.5,0.6-1.1,0.9-1.7l0.1-0.1c0.3-0.5,0.6-1.1,1-1.7l0.1-0.2c0.4-0.6,0.8-1.2,1.2-1.8l0.1-0.1
	c0.8-1.1,1.6-2.3,2.5-3.4c2.3,9.2,5.3,18.3,8.9,27.1C66.2,300,64.2,299.5,62.4,299z M454.3,144.9c-2.2-5.5-4.6-10.8-7.2-16.1
	c4.5,1.8,7.9,4,9.9,6.4C457.2,138,456.3,141.3,454.3,144.9z"/>
<circle class="st0" cx="261.8" cy="220.4" r="202"/>
<g>
	<g>
		<g class="st2">
			<g class="st2">
				<g>
					<defs>
						<path id="SVGID_1_" d="M272.4,105.6l2.3,5.4c-9.9,2.6-48.5,8-76.6,18l-2.3-5.4C223.9,113.6,262.5,108.2,272.4,105.6z"/>
					</defs>
					<linearGradient id="SVGID_2_" gradientUnits="userSpaceOnUse" x1="195.874" y1="117.3636" x2="274.714" y2="117.3636">
						<stop  offset="0" style="stop-color:#1454E7"/>
						<stop  offset="1" style="stop-color:#44ECFF"/>
					</linearGradient>
					<use xlink:href="#SVGID_1_"  style="overflow:visible;fill:url(#SVGID_2_);"/>
					<clipPath id="SVGID_3_">
						<use xlink:href="#SVGID_1_"  style="overflow:visible;"/>
					</clipPath>
					<g class="st3">
						<path class="st4" d="M272.4,105.6l2.3,5.4c-7.8,2-33.1,5.8-57.3,12.2l-2.3-5.4C239.3,111.4,264.7,107.6,272.4,105.6"/>
						<path class="st4" d="M215.2,117.8l2.3,5.4c-6,1.6-11.9,3.3-17.5,5.3l-2.3-5.4C203.2,121.1,209.2,119.4,215.2,117.8"/>
						<path class="st4" d="M197.7,123l2.3,5.4c-0.6,0.2-1.2,0.4-1.8,0.6l-2.3-5.4C196.5,123.5,197.1,123.3,197.7,123"/>
					</g>
				</g>
			</g>
			<g class="st2">
				<g>
					<defs>
						<path id="SVGID_4_" d="M274.5,105l2.3,5.4c0,0-0.7,0.2-2.1,0.7l-2.3-5.4C273.8,105.2,274.5,104.9,274.5,105z"/>
					</defs>
					<linearGradient id="SVGID_5_" gradientUnits="userSpaceOnUse" x1="272.434" y1="108.0114" x2="276.774" y2="108.0114">
						<stop  offset="0" style="stop-color:#1454E7"/>
						<stop  offset="1" style="stop-color:#44ECFF"/>
					</linearGradient>
					<use xlink:href="#SVGID_4_"  style="overflow:visible;fill:url(#SVGID_5_);"/>
					<clipPath id="SVGID_6_">
						<use xlink:href="#SVGID_4_"  style="overflow:visible;"/>
					</clipPath>
					<g class="st5">
						<linearGradient id="SVGID_7_" gradientUnits="userSpaceOnUse" x1="274.474" y1="107.6836" x2="276.774" y2="107.6836">
							<stop  offset="0" style="stop-color:#1454E7"/>
							<stop  offset="1" style="stop-color:#44ECFF"/>
						</linearGradient>
						<path class="st6" d="M274.5,105l2.3,5.4c0,0,0,0,0,0L274.5,105C274.5,105,274.5,105,274.5,105"/>
						<linearGradient id="SVGID_8_" gradientUnits="userSpaceOnUse" x1="274.444" y1="107.6836" x2="276.754" y2="107.6836">
							<stop  offset="0" style="stop-color:#1454E7"/>
							<stop  offset="1" style="stop-color:#44ECFF"/>
						</linearGradient>
						<path class="st7" d="M274.5,105l2.3,5.4c0,0,0,0,0,0L274.5,105C274.5,105,274.5,105,274.5,105"/>
						<linearGradient id="SVGID_9_" gradientUnits="userSpaceOnUse" x1="274.344" y1="107.6936" x2="276.724" y2="107.6936">
							<stop  offset="0" style="stop-color:#1454E7"/>
							<stop  offset="1" style="stop-color:#44ECFF"/>
						</linearGradient>
						<path class="st8" d="M274.4,105l2.3,5.4c0,0-0.1,0-0.1,0l-2.3-5.4C274.4,105,274.4,105,274.4,105"/>
						<linearGradient id="SVGID_10_" gradientUnits="userSpaceOnUse" x1="272.474" y1="108.0136" x2="276.634" y2="108.0136">
							<stop  offset="0" style="stop-color:#1454E7"/>
							<stop  offset="1" style="stop-color:#44ECFF"/>
						</linearGradient>
						<path class="st9" d="M274.4,105l2.3,5.4c-0.3,0.1-0.9,0.3-1.9,0.6l-2.3-5.4C273.4,105.3,274.1,105.1,274.4,105"/>
						<linearGradient id="SVGID_11_" gradientUnits="userSpaceOnUse" x1="272.434" y1="108.3286" x2="274.754" y2="108.3286">
							<stop  offset="0" style="stop-color:#1454E7"/>
							<stop  offset="1" style="stop-color:#44ECFF"/>
						</linearGradient>
						<path class="st10" d="M272.5,105.6l2.3,5.4c0,0,0,0,0,0L272.5,105.6C272.4,105.6,272.5,105.6,272.5,105.6"/>
					</g>
				</g>
			</g>
			<g class="st2">
				<g>
					<defs>
						<path id="SVGID_12_" d="M163.2,176.1l2.3,5.4c-32.7,18.4-51.9,35-61.6,41.9l-2.3-5.4C111.3,211.1,130.5,194.6,163.2,176.1z"/>
					</defs>
					<linearGradient id="SVGID_13_" gradientUnits="userSpaceOnUse" x1="101.554" y1="199.7986" x2="165.434" y2="199.7986">
						<stop  offset="0" style="stop-color:#1454E7"/>
						<stop  offset="1" style="stop-color:#44ECFF"/>
					</linearGradient>
					<use xlink:href="#SVGID_12_"  style="overflow:visible;fill:url(#SVGID_13_);"/>
					<clipPath id="SVGID_14_">
						<use xlink:href="#SVGID_12_"  style="overflow:visible;"/>
					</clipPath>
					<g class="st11">
						<path class="st4" d="M163.2,176.1l2.3,5.4c-3.9,2.2-7.6,4.3-11,6.4l-2.3-5.4C155.6,180.5,159.3,178.3,163.2,176.1"/>
						<path class="st4" d="M152.1,182.6l2.3,5.4c-10.3,6.2-19,12.1-26.3,17.4l-2.3-5.4C133.1,194.7,141.8,188.8,152.1,182.6"/>
						<path class="st4" d="M125.8,200l2.3,5.4c-11.1,7.9-18.9,14.3-24.1,18l-2.3-5.4C106.9,214.2,114.7,207.9,125.8,200"/>
						<linearGradient id="SVGID_15_" gradientUnits="userSpaceOnUse" x1="101.554" y1="220.6936" x2="103.974" y2="220.6936">
							<stop  offset="0" style="stop-color:#1454E7"/>
							<stop  offset="1" style="stop-color:#44ECFF"/>
						</linearGradient>
						<path class="st12" d="M101.7,217.9l2.3,5.4c-0.1,0-0.1,0.1-0.1,0.1l-2.3-5.4C101.6,218,101.7,218,101.7,217.9"/>
					</g>
				</g>
			</g>
			<g>
				<polygon class="st4" points="325.8,141.8 328.1,147.3 284.8,134.7 282.5,129.2 				"/>
			</g>
			<g>
				<linearGradient id="SVGID_16_" gradientUnits="userSpaceOnUse" x1="254.164" y1="154.6986" x2="284.804" y2="154.6986">
					<stop  offset="0" style="stop-color:#1454E7"/>
					<stop  offset="1" style="stop-color:#44ECFF"/>
				</linearGradient>
				<polygon class="st13" points="282.5,129.2 284.8,134.7 256.4,180.2 254.2,174.7 				"/>
			</g>
			<g class="st2">
				<g>
					<defs>
						<path id="SVGID_17_" d="M441.6,114.2l2.3,5.4c-14.2-4.1-32.2-5-44.2-5l-2.3-5.4C409.4,109.2,427.4,110,441.6,114.2z"/>
					</defs>
					<linearGradient id="SVGID_18_" gradientUnits="userSpaceOnUse" x1="397.414" y1="114.3586" x2="443.874" y2="114.3586">
						<stop  offset="0" style="stop-color:#1454E7"/>
						<stop  offset="1" style="stop-color:#44ECFF"/>
					</linearGradient>
					<use xlink:href="#SVGID_17_"  style="overflow:visible;fill:url(#SVGID_18_);"/>
					<clipPath id="SVGID_19_">
						<use xlink:href="#SVGID_17_"  style="overflow:visible;"/>
					</clipPath>
					<g class="st14">
						<path class="st4" d="M441.6,114.2l2.3,5.4c-14.2-4.1-32.2-5-44.2-5l-2.3-5.4C409.4,109.2,427.4,110,441.6,114.2"/>
					</g>
				</g>
			</g>
			<g class="st2">
				<g>
					<defs>
						<path id="SVGID_20_" d="M345.8,155.7l2.3,5.4c-2.6-6.1-9.5-10.8-20-13.8l-2.3-5.4C336.2,144.9,343.2,149.5,345.8,155.7z"/>
					</defs>
					<linearGradient id="SVGID_21_" gradientUnits="userSpaceOnUse" x1="325.824" y1="151.4536" x2="348.064" y2="151.4536">
						<stop  offset="0" style="stop-color:#1454E7"/>
						<stop  offset="1" style="stop-color:#44ECFF"/>
					</linearGradient>
					<use xlink:href="#SVGID_20_"  style="overflow:visible;fill:url(#SVGID_21_);"/>
					<clipPath id="SVGID_22_">
						<use xlink:href="#SVGID_20_"  style="overflow:visible;"/>
					</clipPath>
					<g class="st15">
						<path class="st4" d="M345.8,155.7l2.3,5.4c-2.6-6.1-9.5-10.8-20-13.8l-2.3-5.4C336.2,144.9,343.2,149.5,345.8,155.7"/>
					</g>
				</g>
			</g>
			<g class="st2">
				<g>
					<defs>
						<path id="SVGID_23_" d="M46.6,296.4l-2.3-5.4c-5.3-12.5,6.8-34.6,57.3-73l2.3,5.4C53.3,261.8,41.3,283.9,46.6,296.4z"/>
					</defs>
					<linearGradient id="SVGID_24_" gradientUnits="userSpaceOnUse" x1="43.137" y1="257.2236" x2="103.844" y2="257.2236">
						<stop  offset="0" style="stop-color:#1454E7"/>
						<stop  offset="1" style="stop-color:#44ECFF"/>
					</linearGradient>
					<use xlink:href="#SVGID_23_"  style="overflow:visible;fill:url(#SVGID_24_);"/>
					<clipPath id="SVGID_25_">
						<use xlink:href="#SVGID_23_"  style="overflow:visible;"/>
					</clipPath>
					<g class="st16">
						<path class="st4" d="M101.6,218l2.3,5.4c-7.8,5.9-14.6,11.4-20.6,16.5l-2.3-5.4C87,229.4,93.8,223.9,101.6,218"/>
						<path class="st4" d="M81,234.6l2.3,5.4c-8,6.8-14.5,13.1-19.8,18.7l-2.3-5.4C66.4,247.6,73,241.4,81,234.6"/>
						<path class="st4" d="M61.2,253.2l2.3,5.4c-11.3,12.1-16.6,21.5-17.8,28.9l-2.3-5.4C44.5,274.8,49.9,265.4,61.2,253.2"/>
						<linearGradient id="SVGID_26_" gradientUnits="userSpaceOnUse" x1="43.1332" y1="286.3936" x2="45.664" y2="286.3936">
							<stop  offset="0" style="stop-color:#1454E7"/>
							<stop  offset="1" style="stop-color:#44ECFF"/>
						</linearGradient>
						<path class="st17" d="M43.4,282.1l2.3,5.4c-0.2,1.1-0.3,2.1-0.2,3.2l-2.3-5.4C43.1,284.3,43.2,283.2,43.4,282.1"/>
						<linearGradient id="SVGID_27_" gradientUnits="userSpaceOnUse" x1="43.134" y1="289.1136" x2="45.584" y2="289.1136">
							<stop  offset="0" style="stop-color:#1454E7"/>
							<stop  offset="1" style="stop-color:#44ECFF"/>
						</linearGradient>
						<path class="st18" d="M43.1,285.3l2.3,5.4c0,0.8,0.1,1.5,0.2,2.3l-2.3-5.4C43.2,286.8,43.1,286,43.1,285.3"/>
						<linearGradient id="SVGID_28_" gradientUnits="userSpaceOnUse" x1="43.304" y1="291.1886" x2="45.994" y2="291.1886">
							<stop  offset="0" style="stop-color:#1454E7"/>
							<stop  offset="1" style="stop-color:#44ECFF"/>
						</linearGradient>
						<path class="st19" d="M43.3,287.5l2.3,5.4c0.1,0.6,0.2,1.3,0.4,1.9l-2.3-5.4C43.5,288.8,43.4,288.2,43.3,287.5"/>
						<linearGradient id="SVGID_29_" gradientUnits="userSpaceOnUse" x1="43.714" y1="292.9185" x2="46.544" y2="292.9185">
							<stop  offset="0" style="stop-color:#1454E7"/>
							<stop  offset="1" style="stop-color:#44ECFF"/>
						</linearGradient>
						<path class="st20" d="M43.7,289.4l2.3,5.4c0.2,0.5,0.3,1.1,0.5,1.6l-2.3-5.4C44.1,290.5,43.9,290,43.7,289.4"/>
					</g>
				</g>
			</g>
			<g class="st2">
				<g>
					<defs>
						<path id="SVGID_30_" d="M462.6,128.5l2.3,5.4c-2.9-6.9-11-11.4-21-14.3l-2.3-5.4C451.5,117,459.6,121.5,462.6,128.5z"/>
					</defs>
					<linearGradient id="SVGID_31_" gradientUnits="userSpaceOnUse" x1="441.604" y1="124.0286" x2="464.854" y2="124.0286">
						<stop  offset="0" style="stop-color:#1454E7"/>
						<stop  offset="1" style="stop-color:#44ECFF"/>
					</linearGradient>
					<use xlink:href="#SVGID_30_"  style="overflow:visible;fill:url(#SVGID_31_);"/>
					<clipPath id="SVGID_32_">
						<use xlink:href="#SVGID_30_"  style="overflow:visible;"/>
					</clipPath>
					<g class="st21">
						<path class="st4" d="M462.6,128.5l2.3,5.4c-2.9-6.9-11-11.4-21-14.3l-2.3-5.4C451.5,117,459.6,121.5,462.6,128.5"/>
					</g>
				</g>
			</g>
			<g class="st2">
				<g>
					<defs>
						<path id="SVGID_33_" d="M471.8,116l2.3,5.4c4,9.6-0.2,18-0.6,18.7l-2.3-5.4C471.6,134,475.9,125.6,471.8,116z"/>
					</defs>
					<linearGradient id="SVGID_34_" gradientUnits="userSpaceOnUse" x1="471.234" y1="128.0786" x2="475.8343" y2="128.0786">
						<stop  offset="0" style="stop-color:#1454E7"/>
						<stop  offset="1" style="stop-color:#44ECFF"/>
					</linearGradient>
					<use xlink:href="#SVGID_33_"  style="overflow:visible;fill:url(#SVGID_34_);"/>
					<clipPath id="SVGID_35_">
						<use xlink:href="#SVGID_33_"  style="overflow:visible;"/>
					</clipPath>
					<g class="st22">
						<linearGradient id="SVGID_36_" gradientUnits="userSpaceOnUse" x1="471.824" y1="119.9486" x2="474.984" y2="119.9486">
							<stop  offset="0" style="stop-color:#1454E7"/>
							<stop  offset="1" style="stop-color:#44ECFF"/>
						</linearGradient>
						<path class="st23" d="M471.8,116l2.3,5.4c0.4,0.8,0.6,1.7,0.9,2.5l-2.3-5.4C472.5,117.7,472.2,116.8,471.8,116"/>
						<path class="st4" d="M472.7,118.5l2.3,5.4c0.3,0.9,0.5,1.8,0.6,2.7l-2.3-5.4C473.2,120.3,473,119.4,472.7,118.5"/>
						<path class="st4" d="M473.3,121.2l2.3,5.4c0.2,1.1,0.2,2.1,0.3,3.1l-2.3-5.4C473.5,123.3,473.5,122.3,473.3,121.2"/>
						<path class="st4" d="M473.6,124.3l2.3,5.4c0,1.4-0.1,2.6-0.3,3.8l-2.3-5.4C473.5,126.9,473.6,125.7,473.6,124.3"/>
						<path class="st4" d="M473.3,128.1l2.3,5.4c-0.6,3.7-1.9,6.2-2.1,6.7l-2.3-5.4C471.4,134.3,472.7,131.8,473.3,128.1"/>
					</g>
				</g>
			</g>
			<g>
				<linearGradient id="SVGID_37_" gradientUnits="userSpaceOnUse" x1="224.504" y1="231.0686" x2="268.434" y2="231.0686">
					<stop  offset="0" style="stop-color:#1454E7"/>
					<stop  offset="1" style="stop-color:#44ECFF"/>
				</linearGradient>
				<polygon class="st24" points="266.2,234.4 268.4,239.8 226.8,227.7 224.5,222.3 				"/>
			</g>
			<g>
				<linearGradient id="SVGID_38_" gradientUnits="userSpaceOnUse" x1="85.294" y1="306.4386" x2="106.164" y2="306.4386">
					<stop  offset="0" style="stop-color:#1454E7"/>
					<stop  offset="1" style="stop-color:#44ECFF"/>
				</linearGradient>
				<polygon class="st25" points="103.9,306.4 106.2,311.9 87.6,306.4 85.3,301 				"/>
			</g>
			<g>
				<linearGradient id="SVGID_39_" gradientUnits="userSpaceOnUse" x1="191.244" y1="251.6786" x2="226.784" y2="251.6786">
					<stop  offset="0" style="stop-color:#1454E7"/>
					<stop  offset="1" style="stop-color:#44ECFF"/>
				</linearGradient>
				<polygon class="st26" points="224.5,222.3 226.8,227.7 193.5,281.1 191.2,275.6 				"/>
			</g>
			<g class="st2">
				<g>
					<defs>
						<path id="SVGID_40_" d="M430,140.5l2.3,5.4c5.4,12.7,4.1,26.5-2.3,40l-2.3-5.4C434.1,167,435.3,153.2,430,140.5z"/>
					</defs>
					<linearGradient id="SVGID_41_" gradientUnits="userSpaceOnUse" x1="427.674" y1="163.1986" x2="435.6288" y2="163.1986">
						<stop  offset="0" style="stop-color:#1454E7"/>
						<stop  offset="1" style="stop-color:#44ECFF"/>
					</linearGradient>
					<use xlink:href="#SVGID_40_"  style="overflow:visible;fill:url(#SVGID_41_);"/>
					<clipPath id="SVGID_42_">
						<use xlink:href="#SVGID_40_"  style="overflow:visible;"/>
					</clipPath>
					<g class="st27">
						<linearGradient id="SVGID_43_" gradientUnits="userSpaceOnUse" x1="429.984" y1="145.5886" x2="433.954" y2="145.5886">
							<stop  offset="0" style="stop-color:#1454E7"/>
							<stop  offset="1" style="stop-color:#44ECFF"/>
						</linearGradient>
						<path class="st28" d="M430,140.5l2.3,5.4c0.7,1.6,1.2,3.2,1.7,4.8l-2.3-5.4C431.2,143.7,430.6,142.1,430,140.5"/>
						<linearGradient id="SVGID_44_" gradientUnits="userSpaceOnUse" x1="431.674" y1="150.6386" x2="435.124" y2="150.6386">
							<stop  offset="0" style="stop-color:#1454E7"/>
							<stop  offset="1" style="stop-color:#44ECFF"/>
						</linearGradient>
						<path class="st29" d="M431.7,145.3l2.3,5.4c0.5,1.8,0.9,3.5,1.2,5.3l-2.3-5.4C432.6,148.8,432.2,147,431.7,145.3"/>
						<linearGradient id="SVGID_45_" gradientUnits="userSpaceOnUse" x1="432.844" y1="156.3036" x2="435.614" y2="156.3036">
							<stop  offset="0" style="stop-color:#1454E7"/>
							<stop  offset="1" style="stop-color:#44ECFF"/>
						</linearGradient>
						<path class="st30" d="M432.8,150.6l2.3,5.4c0.3,2,0.5,4,0.5,6l-2.3-5.4C433.3,154.6,433.2,152.6,432.8,150.6"/>
						<linearGradient id="SVGID_46_" gradientUnits="userSpaceOnUse" x1="432.804" y1="163.1386" x2="435.6272" y2="163.1386">
							<stop  offset="0" style="stop-color:#1454E7"/>
							<stop  offset="1" style="stop-color:#44ECFF"/>
						</linearGradient>
						<path class="st31" d="M433.3,156.6l2.3,5.4c0,2.5-0.1,5.1-0.5,7.7l-2.3-5.4C433.2,161.7,433.4,159.1,433.3,156.6"/>
						<linearGradient id="SVGID_47_" gradientUnits="userSpaceOnUse" x1="427.674" y1="175.0836" x2="435.084" y2="175.0836">
							<stop  offset="0" style="stop-color:#1454E7"/>
							<stop  offset="1" style="stop-color:#44ECFF"/>
						</linearGradient>
						<path class="st32" d="M432.8,164.3l2.3,5.4c-0.8,5.4-2.6,10.8-5.1,16.2l-2.3-5.4C430.2,175.1,432,169.7,432.8,164.3"/>
					</g>
				</g>
			</g>
			<g class="st2">
				<g>
					<defs>
						<path id="SVGID_48_" d="M425.5,184.7l2.3,5.4c-0.6,1.1-1.2,2.3-1.9,3.4c-16.1,25.8-42.6,39.8-69.1,41.5l-2.3-5.4
							c26.5-1.7,53-15.8,69.1-41.5C424.2,187,424.8,185.9,425.5,184.7z"/>
					</defs>
					<linearGradient id="SVGID_49_" gradientUnits="userSpaceOnUse" x1="354.474" y1="209.8986" x2="427.744" y2="209.8986">
						<stop  offset="0" style="stop-color:#1454E7"/>
						<stop  offset="1" style="stop-color:#44ECFF"/>
					</linearGradient>
					<use xlink:href="#SVGID_48_"  style="overflow:visible;fill:url(#SVGID_49_);"/>
					<clipPath id="SVGID_50_">
						<use xlink:href="#SVGID_48_"  style="overflow:visible;"/>
					</clipPath>
					<g class="st33">
						<path class="st4" d="M425.5,184.7l2.3,5.4c-0.6,1.1-1.2,2.3-1.9,3.4c-3.1,5-6.6,9.6-10.5,13.7l-2.3-5.4
							c3.8-4.1,7.4-8.7,10.5-13.7C424.2,187,424.8,185.9,425.5,184.7"/>
						<path class="st4" d="M413,201.9l2.3,5.4c-2.3,2.4-4.7,4.7-7.1,6.9l-2.3-5.4C408.4,206.6,410.8,204.3,413,201.9"/>
						<path class="st4" d="M405.9,208.7l2.3,5.4c-2,1.7-4,3.3-6.1,4.7l-2.3-5.4C401.9,212,403.9,210.4,405.9,208.7"/>
						<path class="st4" d="M399.8,213.5l2.3,5.4c-1.8,1.3-3.7,2.5-5.6,3.7l-2.3-5.4C396.1,216,398,214.8,399.8,213.5"/>
						<path class="st4" d="M394.2,217.1l2.3,5.4c-1.8,1.1-3.6,2.1-5.5,3.1l-2.3-5.4C390.6,219.2,392.5,218.2,394.2,217.1"/>
						<path class="st4" d="M388.8,220.2l2.3,5.4c-1.8,0.9-3.7,1.8-5.5,2.6l-2.3-5.4C385.1,222,386.9,221.1,388.8,220.2"/>
						<path class="st4" d="M383.2,222.8l2.3,5.4c-1.9,0.8-3.9,1.6-5.8,2.2l-2.3-5.4C379.4,224.3,381.3,223.6,383.2,222.8"/>
						<path class="st4" d="M377.4,225l2.3,5.4c-2.1,0.7-4.2,1.4-6.3,1.9l-2.3-5.4C373.2,226.4,375.3,225.7,377.4,225"/>
						<path class="st4" d="M371.1,227l2.3,5.4c-2.4,0.6-4.8,1.2-7.3,1.6l-2.3-5.4C366.3,228.1,368.7,227.6,371.1,227"/>
						<path class="st4" d="M363.8,228.6l2.3,5.4c-3.1,0.5-6.1,0.9-9.2,1.1l-2.3-5.4C357.7,229.5,360.8,229.1,363.8,228.6"/>
						<linearGradient id="SVGID_51_" gradientUnits="userSpaceOnUse" x1="354.474" y1="232.3786" x2="356.884" y2="232.3786">
							<stop  offset="0" style="stop-color:#1454E7"/>
							<stop  offset="1" style="stop-color:#44ECFF"/>
						</linearGradient>
						<path class="st34" d="M354.6,229.7l2.3,5.4c0,0-0.1,0-0.1,0l-2.3-5.4C354.5,229.7,354.6,229.7,354.6,229.7"/>
					</g>
				</g>
			</g>
			<g class="st2">
				<g>
					<defs>
						<path id="SVGID_52_" d="M471.2,134.7l2.3,5.4c-8.6,29.3-44.1,51.9-46,53.1l-2.3-5.4C427.1,186.7,462.6,164,471.2,134.7z"/>
					</defs>
					<linearGradient id="SVGID_53_" gradientUnits="userSpaceOnUse" x1="425.274" y1="163.9986" x2="473.504" y2="163.9986">
						<stop  offset="0" style="stop-color:#1454E7"/>
						<stop  offset="1" style="stop-color:#44ECFF"/>
					</linearGradient>
					<use xlink:href="#SVGID_52_"  style="overflow:visible;fill:url(#SVGID_53_);"/>
					<clipPath id="SVGID_54_">
						<use xlink:href="#SVGID_52_"  style="overflow:visible;"/>
					</clipPath>
					<g class="st35">
						<path class="st4" d="M471.2,134.7l2.3,5.4c-3.4,11.4-10.8,21.8-18.8,30.4l-2.3-5.4C460.4,156.6,467.9,146.2,471.2,134.7"/>
						<path class="st4" d="M452.5,165.1l2.3,5.4c-3.9,4.1-7.8,7.8-11.5,10.9L441,176C444.7,172.9,448.6,169.2,452.5,165.1"/>
						<path class="st4" d="M441,176l2.3,5.4c-4.2,3.6-8,6.5-10.9,8.5l-2.3-5.4C432.9,182.5,436.8,179.7,441,176"/>
						<path class="st4" d="M430.1,184.6l2.3,5.4c-2.7,1.9-4.4,3-4.8,3.3l-2.3-5.4C425.7,187.6,427.4,186.5,430.1,184.6"/>
					</g>
				</g>
			</g>
			<g class="st2">
				<g>
					<defs>
						<path id="SVGID_55_" d="M25.9,299.7l-2.3-5.4c3.6,8.7,12.7,14.1,24,17.4c28.6,8.3,71.9,3.1,80.8,1.9l2.3,5.4
							c-8.9,1.2-52.2,6.4-80.8-1.9C38.6,313.8,29.6,308.4,25.9,299.7z"/>
					</defs>
					<linearGradient id="SVGID_56_" gradientUnits="userSpaceOnUse" x1="23.644" y1="307.9869" x2="130.794" y2="307.9869">
						<stop  offset="0" style="stop-color:#1454E7"/>
						<stop  offset="1" style="stop-color:#44ECFF"/>
					</linearGradient>
					<use xlink:href="#SVGID_55_"  style="overflow:visible;fill:url(#SVGID_56_);"/>
					<clipPath id="SVGID_57_">
						<use xlink:href="#SVGID_55_"  style="overflow:visible;"/>
					</clipPath>
					<g class="st36">
						<path class="st4" d="M128.5,313.6l2.3,5.4c-3.2,0.4-10.8,1.4-20.6,2l-2.3-5.4C117.7,315,125.3,314,128.5,313.6"/>
						<path class="st4" d="M108,315.6l2.3,5.4c-17.5,1.2-41.9,1.4-60.3-3.9c-11.4-3.3-20.4-8.7-24.1-17.4l-2.3-5.4
							c3.6,8.7,12.7,14.1,24.1,17.4C66.1,317,90.5,316.8,108,315.6"/>
					</g>
				</g>
			</g>
			<g class="st2">
				<g>
					<defs>
						<path id="SVGID_58_" d="M288.9,250l2.3,5.4c-2.7-6.4-9.9-11.9-22.7-15.6l-2.3-5.4C279,238.1,286.2,243.6,288.9,250z"/>
					</defs>
					<linearGradient id="SVGID_59_" gradientUnits="userSpaceOnUse" x1="266.144" y1="244.9136" x2="291.164" y2="244.9136">
						<stop  offset="0" style="stop-color:#1454E7"/>
						<stop  offset="1" style="stop-color:#44ECFF"/>
					</linearGradient>
					<use xlink:href="#SVGID_58_"  style="overflow:visible;fill:url(#SVGID_59_);"/>
					<clipPath id="SVGID_60_">
						<use xlink:href="#SVGID_58_"  style="overflow:visible;"/>
					</clipPath>
					<g class="st37">
						<path class="st38" d="M288.9,250l2.3,5.4c-2.7-6.4-9.9-11.9-22.7-15.6l-2.3-5.4C279,238.1,286.2,243.6,288.9,250"/>
					</g>
				</g>
			</g>
			<g>
				<polygon class="st4" points="219.7,340.1 222,345.5 130.8,319 128.5,313.6 				"/>
			</g>
			<g class="st2">
				<g>
					<defs>
						<path id="SVGID_61_" d="M370.7,250.1l2.3,5.4c5.2,12.5,5.2,28.4-6.3,47c-24.7,39.6-77.7,62.5-144.7,43l-2.3-5.4
							c66.9,19.5,120-3.4,144.7-43C375.9,278.5,375.9,262.6,370.7,250.1z"/>
					</defs>
					<linearGradient id="SVGID_62_" gradientUnits="userSpaceOnUse" x1="219.664" y1="301.334" x2="376.3297" y2="301.334">
						<stop  offset="0" style="stop-color:#1454E7"/>
						<stop  offset="1" style="stop-color:#44ECFF"/>
					</linearGradient>
					<use xlink:href="#SVGID_61_"  style="overflow:visible;fill:url(#SVGID_62_);"/>
					<clipPath id="SVGID_63_">
						<use xlink:href="#SVGID_61_"  style="overflow:visible;"/>
					</clipPath>
					<g class="st39">
						<linearGradient id="SVGID_64_" gradientUnits="userSpaceOnUse" x1="370.684" y1="255.2136" x2="374.664" y2="255.2136">
							<stop  offset="0" style="stop-color:#1454E7"/>
							<stop  offset="1" style="stop-color:#44ECFF"/>
						</linearGradient>
						<path class="st40" d="M370.7,250.1l2.3,5.4c0.6,1.5,1.2,3.1,1.7,4.8l-2.3-5.4C371.9,253.3,371.3,251.7,370.7,250.1"/>
						<path class="st38" d="M372.4,254.9l2.3,5.4c0.5,1.7,0.9,3.5,1.2,5.3l-2.3-5.4C373.3,258.4,372.9,256.6,372.4,254.9"/>
						<path class="st38" d="M373.6,260.2l2.3,5.4c0.3,1.9,0.5,3.9,0.5,6l-2.3-5.4C374,264.1,373.9,262.1,373.6,260.2"/>
						<path class="st38" d="M374.1,266.2l2.3,5.4c0,2.4-0.1,4.9-0.5,7.5l-2.3-5.4C373.9,271.1,374.1,268.6,374.1,266.2"/>
						<path class="st38" d="M373.5,273.7l2.3,5.4c-1.1,7.2-4,15-9.2,23.4c-3.4,5.4-7.2,10.5-11.6,15.2l-2.3-5.4
							c4.4-4.7,8.2-9.8,11.6-15.2C369.6,288.7,372.4,280.9,373.5,273.7"/>
						<path class="st38" d="M352.8,312.2l2.3,5.4c-2.6,2.8-5.4,5.5-8.3,8l-2.3-5.4C347.4,317.7,350.1,315,352.8,312.2"/>
						<path class="st38" d="M344.4,320.2l2.3,5.4c-2.3,2-4.7,3.8-7.2,5.6l-2.3-5.4C339.7,324.1,342.1,322.2,344.4,320.2"/>
						<path class="st38" d="M337.3,325.8l2.3,5.4c-2.2,1.6-4.5,3.1-6.8,4.5l-2.3-5.4C332.8,328.9,335.1,327.4,337.3,325.8"/>
						<path class="st38" d="M330.5,330.3l2.3,5.4c-2.2,1.3-4.4,2.6-6.8,3.8l-2.3-5.4C326,332.9,328.3,331.7,330.5,330.3"/>
						<path class="st38" d="M323.7,334.1l2.3,5.4c-2.3,1.2-4.6,2.3-7,3.3l-2.3-5.4C319.1,336.4,321.4,335.3,323.7,334.1"/>
						<path class="st38" d="M316.7,337.4l2.3,5.4c-2.5,1-5,2-7.5,2.9l-2.3-5.4C311.7,339.4,314.2,338.4,316.7,337.4"/>
						<path class="st38" d="M309.1,340.3l2.3,5.4c-2.8,1-5.6,1.8-8.5,2.6l-2.3-5.4C303.5,342.1,306.4,341.3,309.1,340.3"/>
						<path class="st38" d="M300.7,342.9l2.3,5.4c-3.4,0.9-6.9,1.7-10.4,2.3l-2.3-5.4C293.8,344.5,297.3,343.8,300.7,342.9"/>
						<path class="st38" d="M290.2,345.2l2.3,5.4c-4.5,0.8-9.2,1.4-14.1,1.7l-2.3-5.4C281,346.5,285.7,346,290.2,345.2"/>
						<path class="st4" d="M276.2,346.8l2.3,5.4c-17.3,1.1-36.3-0.9-56.5-6.8l-2.3-5.4C239.9,346,258.9,348,276.2,346.8"/>
					</g>
				</g>
			</g>
			<g>
				<linearGradient id="SVGID_65_" gradientUnits="userSpaceOnUse" x1="21.8971" y1="203.2691" x2="473.5677" y2="203.2691">
					<stop  offset="0" style="stop-color:#1454E7"/>
					<stop  offset="1" style="stop-color:#44ECFF"/>
				</linearGradient>
				<path class="st41" d="M354.5,229.7c16.1,12.3,29.4,36.2,9.9,67.4c-24.7,39.6-77.7,62.5-144.7,43l-91.2-26.5
					c-8.9,1.2-52.2,6.4-80.8-1.9C25.8,305.3,12.5,291,30,260.8C73,186.6,190.6,137,254.3,112.1c5.7-2.2,11.4-4.2,17.3-6.2
					c2.2-0.7,2.6-0.8,3-1c0.1-0.1-0.6,0.2-2.1,0.7c-9.9,2.6-48.5,8-76.6,18L236,59.4l105,30.5c37-4.9,72.1-3.9,98.1,3.7
					c46.2,13.4,32.8,39.8,32.1,41.1c-8.6,29.3-44.1,51.9-46,53.1l0.2-3.1c-0.6,1.1-1.2,2.3-1.9,3.4
					C407.5,213.9,380.9,228,354.5,229.7z M61.4,303.1c13.1,3.8,30.5,3.9,42.5,3.3L85.3,301l77.9-124.9c-32.7,18.4-51.9,35-61.6,41.9
					C26.9,274.8,36.3,295.8,61.4,303.1 M441.6,114.2c-14.2-4.1-32.2-5-44.2-5c35.7,18.5,42.6,45.3,30.3,71.3
					C480.1,139,466.8,121.5,441.6,114.2 M231.4,287.3c25.9,7.5,43.1,0.6,53.9-16.7c9.5-15.2,5.8-28.9-19.2-36.2l-41.6-12.1
					l-33.2,53.3L231.4,287.3 M282.5,129.2l-28.4,45.5l43.9,12.8c21.6,6.3,36.6-1.2,44.8-14.3c9.3-15,1.8-25.9-17.1-31.4L282.5,129.2
					"/>
			</g>
		</g>
	</g>
</g>
<path class="st0" d="M451.9,55.4c19.6,6,34.8,14.8,45.4,26.4h417.8V55.4H451.9z"/>
</svg>
