<?xml version="1.0" encoding="utf-8"?>
<!-- Generator: Adobe Illustrator 24.0.0, SVG Export Plug-In . SVG Version: 6.00 Build 0)  -->
<svg version="1.1" id="Layer_1" xmlns="http://www.w3.org/2000/svg" xmlns:xlink="http://www.w3.org/1999/xlink" x="0px" y="0px"
	 viewBox="0 0 840 338" style="enable-background:new 0 0 840 338;" xml:space="preserve">
<style type="text/css">
	.st0{opacity:0.8;fill:#4D0F51;}
	.st1{fill:url(#SVGID_1_);}
	.st2{fill:url(#SVGID_2_);}
	.st3{fill:url(#SVGID_3_);}
	.st4{fill:url(#SVGID_4_);}
	.st5{fill:#71EBFF;}
	.st6{fill:#E6E6E6;}
	.st7{fill:#E6DFDA;}
	.st8{fill:#999491;}
	.st9{fill:#CCC6C1;}
	.st10{fill:#F2F2F2;}
	.st11{fill:#D9D9D9;}
	.st12{fill:#B3B3B3;}
	.st13{fill:#FFFFFF;}
	.st14{fill:#CCCCCC;}
	.st15{fill:#D2F7EB;}
	.st16{fill:#98E3CA;}
	.st17{fill:#BEF7E4;}
	.st18{fill:#62C8A5;}
	.st19{fill:#FFF7F2;}
	.st20{fill:#CCBABA;}
	.st21{fill:#F2EAE6;}
	.st22{enable-background:new    ;}
	.st23{clip-path:url(#SVGID_6_);}
	.st24{fill:#00BBF4;}
	.st25{opacity:0.55;fill:#BEF7E4;}
	.st26{fill:#BDE377;}
	.st27{fill:#6BA638;}
	.st28{fill:#9EAF61;}
	.st29{fill:#639334;}
	.st30{fill:#F064FF;}
	.st31{fill-rule:evenodd;clip-rule:evenodd;fill:#FFFFFF;}
</style>
<ellipse transform="matrix(0.9432 -0.3322 0.3322 0.9432 -42.4863 56.762)" class="st0" cx="144.8" cy="152.6" rx="147.3" ry="76.4"/>
<ellipse transform="matrix(0.432 -0.9019 0.9019 0.432 -55.4342 217.2422)" class="st0" cx="144.8" cy="152.6" rx="76.4" ry="147.3"/>
<linearGradient id="SVGID_1_" gradientUnits="userSpaceOnUse" x1="26.8437" y1="153.8496" x2="254.6893" y2="153.8496">
	<stop  offset="0" style="stop-color:#1454E7"/>
	<stop  offset="1" style="stop-color:#44ECFF"/>
</linearGradient>
<path class="st1" d="M68,207.1c0,0-49.7,5-22.8-25.2s84.7-60.3,121.6-70.5c48-13.3,116-8.7,63.8,32.4l-1.2,3.7
	c0,0,31.4-14.3,24.2-39.5S149.2,98.9,101.1,126c-41,23.1-73.2,46.9-74.2,70.4s56.3,13.9,56.3,13.9s5.5-7.8,2.4-6.3
	C82.5,205.5,68,207.1,68,207.1z"/>
<linearGradient id="SVGID_2_" gradientUnits="userSpaceOnUse" x1="69.744" y1="207.9197" x2="99.9795" y2="207.9197">
	<stop  offset="0" style="stop-color:#1454E7"/>
	<stop  offset="1" style="stop-color:#44ECFF"/>
</linearGradient>
<polygon class="st2" points="82.9,209.5 73.3,218.9 80.9,221.3 100,203.4 73.3,194.5 69.7,200.3 86.1,205.4 "/>
<linearGradient id="SVGID_3_" gradientUnits="userSpaceOnUse" x1="-2721.1003" y1="3331.3313" x2="-2690.865" y2="3331.3313" gradientTransform="matrix(-0.9338 0.3578 -0.3578 -0.9338 -1104.8766 4222.7764)">
	<stop  offset="0" style="stop-color:#1454E7"/>
	<stop  offset="1" style="stop-color:#44ECFF"/>
</linearGradient>
<polygon class="st3" points="231.4,141.6 237,129.4 229,129.9 217.6,153.4 245.7,152.2 247,145.6 229.9,146.6 "/>
<linearGradient id="SVGID_4_" gradientUnits="userSpaceOnUse" x1="104.4722" y1="168.4485" x2="209.9994" y2="168.4485">
	<stop  offset="0" style="stop-color:#1454E7"/>
	<stop  offset="1" style="stop-color:#44ECFF"/>
</linearGradient>
<path class="st4" d="M199.2,139.9c-4.6-1.7-49-15.1-49-15.1l-45.7,73.4l45.7,13.1c0,0,22.7,5.1,35.3-9.5
	c12.6-14.6,3.7-23.5,0.7-25.3c0,0,14.6-0.4,21.6-13.7C214.7,149.5,203.9,141.6,199.2,139.9z M164.8,188.9c-3.3,5.3-8.5,7.4-16.4,5.1
	l-12.2-3.5l10.1-16.2l12.6,3.7C166.5,180.1,167.7,184.3,164.8,188.9z M182.2,159.3c-2.5,4-7,6.3-13.6,4.3l-13.3-3.9l8.6-13.8
	l13.1,3.8C182.8,151.5,185.1,154.8,182.2,159.3z"/>
<g>
	<g>
		<path class="st5" d="M35.8,156.1c0.2,0.3,0.3,0.7,0.3,1c0,0.4,0,0.7-0.1,1s-0.3,0.6-0.5,0.9c-0.2,0.2-0.3,0.3-0.5,0.5
			c-0.2,0.1-0.4,0.2-0.6,0.3c-0.2,0.1-0.4,0.2-0.7,0.2s-0.5,0.1-0.8,0.1c-0.2,0-0.4,0.1-0.5,0.1c-0.2,0-0.3,0.1-0.5,0.2
			c-0.1,0-0.2,0.1-0.4,0.2c-0.1,0.1-0.2,0.2-0.3,0.3c-0.1,0.1-0.2,0.3-0.2,0.4s-0.1,0.3,0,0.5c0,0.2,0.1,0.3,0.1,0.5
			c0.1,0.2,0.2,0.3,0.3,0.4l-1,0.9c-0.3-0.3-0.5-0.6-0.7-0.9s-0.3-0.7-0.3-1c0-0.3,0-0.7,0.1-1c0.1-0.3,0.3-0.6,0.5-0.9
			c0.2-0.2,0.4-0.3,0.5-0.5c0.2-0.1,0.4-0.2,0.6-0.3c0.2-0.1,0.4-0.2,0.7-0.2c0.2-0.1,0.5-0.1,0.8-0.1c0.2,0,0.4-0.1,0.5-0.1
			c0.2,0,0.3-0.1,0.4-0.1c0.1-0.1,0.3-0.1,0.4-0.2c0.1-0.1,0.2-0.2,0.3-0.3c0.1-0.1,0.2-0.3,0.2-0.4c0-0.2,0-0.3,0-0.5
			c0-0.2-0.1-0.3-0.2-0.5c-0.1-0.2-0.2-0.3-0.3-0.4l1-0.9C35.4,155.4,35.6,155.7,35.8,156.1z"/>
		<path class="st5" d="M38.8,148.9l-0.7-1.5l3.2-1l-2.5-2.5l1.3-1.1l2.1,2.9l1.5-3l1.4,0.9l-2,2.7l3.4,0.6l-0.4,1.7l-3.3-1.2
			l0.6,3.4l-1.7,0.2l-0.1-3.5L38.8,148.9z"/>
		<path class="st5" d="M48.3,136.1l3.2-2.3c0.5-0.3,1-0.6,1.5-0.8c0.5-0.2,1-0.3,1.4-0.3c0.5,0,0.9,0.1,1.3,0.3
			c0.4,0.2,0.8,0.5,1.1,1c0.2,0.3,0.3,0.6,0.4,0.9c0.1,0.3,0.1,0.6,0.1,0.9c0,0.2-0.1,0.4-0.2,0.6c-0.1,0.2-0.2,0.4-0.3,0.7l0,0
			c0.3-0.1,0.7-0.2,1-0.2c0.3,0,0.6,0,0.9,0.1c0.3,0.1,0.6,0.2,0.8,0.4s0.5,0.4,0.7,0.7c0.3,0.5,0.6,0.9,0.6,1.4
			c0.1,0.5,0.1,0.9-0.1,1.4c-0.1,0.5-0.4,0.9-0.7,1.3c-0.3,0.4-0.7,0.8-1.2,1.2l-3.4,2.5L48.3,136.1z M54.5,138
			c0.3-0.2,0.5-0.4,0.7-0.6c0.2-0.2,0.3-0.5,0.4-0.7c0.1-0.2,0.1-0.4,0-0.7c0-0.2-0.1-0.4-0.3-0.7c-0.2-0.2-0.3-0.4-0.5-0.5
			c-0.2-0.1-0.4-0.2-0.6-0.2c-0.3,0-0.5,0-0.8,0.1s-0.6,0.3-0.8,0.5l-1.5,1.1l2,2.8L54.5,138z M56.1,143.5l1.8-1.3
			c0.3-0.2,0.5-0.4,0.6-0.6s0.3-0.5,0.3-0.7c0.1-0.2,0.1-0.5,0-0.8c-0.1-0.3-0.2-0.5-0.3-0.7c-0.2-0.2-0.4-0.4-0.6-0.6
			c-0.2-0.1-0.4-0.2-0.7-0.3c-0.2,0-0.5,0-0.8,0.1c-0.3,0.1-0.5,0.2-0.8,0.4l-1.9,1.3L56.1,143.5z"/>
		<path class="st5" d="M67.7,134.1l0.8,2.8l-1.8,1.1l-3.1-12.4l1.5-0.9l9.7,8.2l-1.8,1.1l-2.2-1.9L67.7,134.1z M69.6,130.9l-3.7-3.3
			l1.4,4.8L69.6,130.9z"/>
		<path class="st5" d="M83.5,123.6c-0.2-0.1-0.4-0.2-0.7-0.3c-0.3,0-0.6,0-0.9,0c-0.3,0-0.7,0.1-1.1,0.2c-0.6,0.1-1.1,0.2-1.7,0.3
			c-0.5,0-1,0-1.5-0.1c-0.4-0.1-0.8-0.3-1.2-0.5c-0.4-0.2-0.6-0.6-0.9-1c-0.3-0.5-0.4-0.9-0.4-1.4s0.1-0.9,0.3-1.4
			c0.2-0.4,0.5-0.8,0.8-1.2s0.8-0.7,1.3-1c0.5-0.3,1-0.5,1.6-0.6c0.5-0.1,1-0.1,1.5,0c0.5,0.1,0.9,0.3,1.4,0.6s0.8,0.7,1,1.2l-1.7,1
			c-0.2-0.3-0.4-0.5-0.6-0.6c-0.2-0.2-0.4-0.3-0.7-0.4c-0.3-0.1-0.5-0.1-0.8,0c-0.3,0-0.6,0.1-0.9,0.3c-0.3,0.1-0.5,0.3-0.7,0.5
			c-0.2,0.2-0.3,0.4-0.4,0.6c-0.1,0.2-0.1,0.5-0.1,0.7c0,0.2,0.1,0.5,0.2,0.7c0.1,0.2,0.3,0.4,0.5,0.5c0.2,0.1,0.5,0.2,0.8,0.2
			c0.3,0,0.6,0,0.9,0s0.7-0.1,1-0.2c0.4-0.1,0.9-0.2,1.3-0.2s0.9,0,1.3,0c0.5,0.1,1,0.2,1.5,0.5s0.8,0.7,1.1,1.2
			c0.3,0.5,0.4,0.9,0.4,1.4s-0.1,0.9-0.3,1.3c-0.2,0.4-0.5,0.8-0.9,1.2s-0.8,0.7-1.3,1c-0.5,0.3-1.1,0.5-1.7,0.6
			c-0.6,0.1-1.2,0.1-1.7,0c-0.5-0.1-1-0.3-1.4-0.6s-0.8-0.7-1.1-1.2l1.7-1c0.2,0.3,0.4,0.6,0.7,0.7s0.5,0.3,0.8,0.3
			c0.3,0.1,0.6,0,0.9,0c0.3-0.1,0.6-0.2,0.9-0.4c0.3-0.1,0.5-0.3,0.7-0.5c0.2-0.2,0.3-0.4,0.4-0.6c0.1-0.2,0.1-0.4,0.1-0.7
			s-0.1-0.5-0.2-0.7C83.9,123.9,83.7,123.7,83.5,123.6z"/>
		<path class="st5" d="M92.4,117.1l1.7,3.4l5.2-2.6l0.7,1.5l-7,3.6L87.5,112l7-3.5l0.8,1.5l-5.2,2.6l1.5,3l4.5-2.3l0.7,1.4
			L92.4,117.1z"/>
		<path class="st5" d="M101,105.4l2.7-1.3c0.5-0.2,0.9-0.4,1.4-0.5c0.5-0.1,0.9-0.1,1.4-0.1c0.5,0,0.9,0.1,1.3,0.3
			c0.4,0.2,0.8,0.4,1.2,0.7c0.4,0.3,0.7,0.6,1.1,1c0.3,0.4,0.6,0.9,0.8,1.4l0.4,0.9c0.2,0.5,0.4,1,0.5,1.5c0.1,0.5,0.1,1,0.1,1.4
			c0,0.4-0.1,0.9-0.2,1.3c-0.1,0.4-0.3,0.8-0.5,1.2c-0.3,0.4-0.6,0.8-1,1.1s-0.8,0.6-1.3,0.8l-2.8,1.3L101,105.4z M107.2,114.1
			l0.9-0.4c0.3-0.1,0.6-0.3,0.8-0.5c0.2-0.2,0.4-0.4,0.6-0.7c0.2-0.3,0.3-0.5,0.3-0.8c0.1-0.3,0.1-0.6,0.1-1c0-0.3-0.1-0.6-0.2-0.9
			c-0.1-0.3-0.2-0.6-0.4-1l-0.4-0.9c-0.2-0.3-0.3-0.6-0.5-0.9s-0.4-0.5-0.6-0.7c-0.3-0.3-0.6-0.5-0.9-0.6c-0.3-0.2-0.7-0.2-1-0.3
			c-0.3,0-0.5,0-0.8,0c-0.3,0.1-0.6,0.1-0.9,0.3l-0.9,0.4L107.2,114.1z"/>
		<path class="st5" d="M128.9,102.1c-0.2-0.2-0.4-0.3-0.7-0.4c-0.3-0.1-0.6-0.1-0.9-0.1s-0.7,0-1.1,0.1c-0.6,0.1-1.2,0.1-1.7,0
			s-1-0.1-1.4-0.3c-0.4-0.1-0.8-0.4-1.1-0.6s-0.6-0.6-0.8-1.1c-0.2-0.5-0.3-1-0.2-1.4c0-0.5,0.2-0.9,0.4-1.3c0.2-0.4,0.6-0.8,1-1.1
			c0.4-0.3,0.9-0.6,1.4-0.8c0.5-0.2,1.1-0.3,1.6-0.4c0.5,0,1,0,1.5,0.2c0.5,0.2,0.9,0.4,1.3,0.7c0.4,0.3,0.7,0.8,0.9,1.3l-1.8,0.8
			c-0.1-0.3-0.3-0.5-0.5-0.7c-0.2-0.2-0.4-0.3-0.6-0.4c-0.2-0.1-0.5-0.1-0.8-0.1c-0.3,0-0.6,0.1-0.9,0.2c-0.3,0.1-0.5,0.3-0.7,0.4
			c-0.2,0.2-0.4,0.4-0.5,0.6c-0.1,0.2-0.2,0.4-0.2,0.7c0,0.2,0,0.5,0.1,0.7c0.1,0.3,0.3,0.5,0.5,0.6c0.2,0.1,0.4,0.2,0.7,0.3
			c0.3,0.1,0.6,0.1,0.9,0.1c0.3,0,0.7,0,1-0.1c0.4,0,0.9-0.1,1.3-0.1c0.4,0,0.9,0.1,1.3,0.2c0.5,0.1,1,0.4,1.4,0.7
			c0.4,0.3,0.7,0.7,0.9,1.3c0.2,0.5,0.3,1,0.2,1.4s-0.2,0.9-0.4,1.3c-0.2,0.4-0.6,0.8-1,1.1c-0.4,0.3-0.9,0.6-1.4,0.8
			c-0.6,0.2-1.1,0.4-1.7,0.4c-0.6,0-1.2,0-1.7-0.2c-0.5-0.2-0.9-0.4-1.3-0.7c-0.4-0.3-0.7-0.8-0.9-1.3l1.9-0.8
			c0.2,0.3,0.4,0.6,0.6,0.8c0.2,0.2,0.5,0.3,0.8,0.4c0.3,0.1,0.6,0.1,0.9,0.1s0.6-0.1,1-0.3c0.3-0.1,0.5-0.3,0.8-0.4
			c0.2-0.2,0.4-0.4,0.5-0.6c0.1-0.2,0.2-0.4,0.2-0.6s0-0.5-0.1-0.7C129.3,102.4,129.1,102.2,128.9,102.1z"/>
		<path class="st5" d="M133.4,91.4l1.7-0.6l3.3,6.7l0.2,0.4l-0.1-0.5l-1.5-7.4l1.4-0.5l3.7,6.6l0.2,0.4l-0.1-0.5l-1.8-7.3l1.8-0.6
			l2.7,11.9l-1.8,0.6l-3.7-6.6l-0.3-0.5l0.1,0.6l1.4,7.4l-1.8,0.6L133.4,91.4z"/>
		<path class="st5" d="M153.4,94.3l0,2.9l-2,0.6l0.2-12.8l1.7-0.5l7.3,10.5l-2,0.6l-1.6-2.4L153.4,94.3z M156.1,91.7l-2.7-4.2l0.1,5
			L156.1,91.7z"/>
		<path class="st5" d="M168.4,93l-1.9,0.5l-2.8-11.8l3.9-1c0.6-0.1,1.2-0.2,1.7-0.1c0.5,0.1,1,0.2,1.5,0.4s0.8,0.5,1.1,1
			s0.5,0.9,0.7,1.5c0.1,0.5,0.2,1.1,0.1,1.6c-0.1,0.5-0.3,0.9-0.6,1.3c-0.3,0.4-0.7,0.8-1.1,1s-1,0.5-1.6,0.7l-2,0.5L168.4,93z
			 M168.9,86.4c0.3-0.1,0.6-0.2,0.8-0.4c0.2-0.2,0.4-0.4,0.6-0.6c0.1-0.2,0.2-0.5,0.3-0.7c0-0.3,0-0.5,0-0.8
			c-0.1-0.3-0.2-0.6-0.3-0.8s-0.3-0.4-0.6-0.6c-0.2-0.1-0.5-0.2-0.8-0.3c-0.3,0-0.6,0-0.9,0.1l-2,0.5l1,4.1L168.9,86.4z"/>
		<path class="st5" d="M179.3,82.1l0.2-1.7l3.3,0.8l-0.8-3.5l1.7-0.3l0.3,3.6l2.8-1.8l0.8,1.5l-3.1,1.3l2.6,2.3l-1.2,1.2l-2.2-2.8
			l-1.3,3.2l-1.5-0.7l1.8-3L179.3,82.1z"/>
		<path class="st5" d="M202.9,82.7c-0.1,0.4-0.3,0.7-0.5,1c-0.2,0.3-0.5,0.5-0.8,0.7c-0.3,0.2-0.6,0.3-1,0.3c-0.2,0-0.5,0-0.7,0
			c-0.2,0-0.4-0.1-0.6-0.2c-0.2-0.1-0.4-0.2-0.6-0.3c-0.2-0.1-0.4-0.3-0.7-0.5c-0.2-0.1-0.3-0.2-0.5-0.3c-0.2-0.1-0.3-0.2-0.4-0.2
			c-0.1-0.1-0.3-0.1-0.4-0.1c-0.1,0-0.3,0-0.4,0c-0.2,0-0.3,0.1-0.5,0.1c-0.1,0.1-0.3,0.2-0.4,0.3c-0.1,0.1-0.2,0.3-0.2,0.5
			c-0.1,0.2-0.1,0.4-0.1,0.5l-1.4-0.1c0-0.4,0-0.8,0.1-1.2c0.1-0.4,0.3-0.7,0.5-1c0.2-0.3,0.5-0.5,0.8-0.7s0.6-0.3,1-0.3
			c0.2,0,0.5,0,0.7,0c0.2,0,0.5,0.1,0.7,0.2c0.2,0.1,0.4,0.2,0.6,0.3c0.2,0.1,0.4,0.3,0.6,0.4c0.2,0.1,0.3,0.2,0.4,0.3
			c0.1,0.1,0.3,0.2,0.4,0.2c0.1,0.1,0.3,0.1,0.4,0.1c0.1,0,0.3,0,0.4,0c0.2,0,0.3-0.1,0.5-0.2c0.1-0.1,0.3-0.2,0.4-0.4
			c0.1-0.1,0.2-0.3,0.2-0.5s0.1-0.4,0.1-0.6l1.4,0.1C203,82,203,82.3,202.9,82.7z"/>
	</g>
</g>
<polygon class="st6" points="538.6,225.3 711.4,125.5 835,196.9 662.2,296.7 "/>
<g>
	<g>
		<g>
			<polygon class="st7" points="538.6,214.1 711.4,114.4 835,185.8 662.2,285.5 			"/>
			<g>
				<polygon class="st8" points="827.6,181.5 654.8,281.3 654.1,280.8 826.9,181.1 				"/>
				<polygon class="st8" points="817.8,175.8 645,275.6 644.3,275.2 817.1,175.4 				"/>
				<polygon class="st8" points="808,170.2 635.2,270 634.5,269.5 807.3,169.8 				"/>
				<polygon class="st8" points="798.2,164.5 625.4,264.3 624.7,263.9 797.5,164.1 				"/>
				<polygon class="st8" points="788.5,158.9 615.7,258.6 614.9,258.2 787.7,158.5 				"/>
				<polygon class="st8" points="778.7,153.2 605.9,253 605.1,252.6 777.9,152.8 				"/>
				<polygon class="st8" points="768.9,147.6 596.1,247.3 595.4,246.9 768.2,147.2 				"/>
				<polygon class="st8" points="759.1,141.9 586.3,241.7 585.6,241.3 758.4,141.5 				"/>
				<polygon class="st8" points="749.3,136.3 576.5,236 575.8,235.6 748.6,135.9 				"/>
				<polygon class="st8" points="739.5,130.6 566.7,230.4 566,230 738.8,130.2 				"/>
				<polygon class="st8" points="729.7,125 556.9,224.7 556.2,224.3 729,124.6 				"/>
				<polygon class="st8" points="719.9,119.3 547.1,219.1 546.4,218.7 719.2,118.9 				"/>
			</g>
			<polygon class="st9" points="662.2,289.7 662.2,285.5 538.6,214.1 538.6,218.3 			"/>
			<polygon class="st8" points="835,185.8 835,189.9 662.2,289.7 662.2,285.5 			"/>
		</g>
		<g>
			<polygon class="st8" points="662.2,266.8 670.2,266.2 808,186.9 792.5,178.9 			"/>
			<g>
				<polygon class="st10" points="662.2,263.2 571.6,210.9 711.4,130.3 801.9,182.5 				"/>
				<polygon class="st11" points="662.2,266.8 662.2,263.2 571.6,210.9 571.6,214.6 				"/>
				<polygon class="st12" points="801.9,182.5 801.9,186.2 662.2,266.8 662.2,263.2 				"/>
			</g>
		</g>
		<polygon class="st13" points="801.9,182.5 662.2,263.2 571.6,210.9 711.4,130.3 		"/>
		<polygon class="st14" points="608.7,194.6 612,194.5 613,193.9 609.8,193.9 		"/>
		<polygon class="st14" points="622.9,186.4 626.2,186.3 627.3,185.7 623.9,185.7 		"/>
		<polygon class="st14" points="773.5,173 779.6,169.7 762.8,160 756.8,163.3 		"/>
		<polygon class="st15" points="583.6,210.9 711.4,137.1 790,182.5 662.2,256.3 		"/>
		<g>
			<g>
				<polygon class="st16" points="670.9,251.3 670.3,251.7 662.7,247.3 662.1,246.9 654.4,242.5 653.8,242.2 646.2,237.7 
					645.6,237.4 637.9,233 637.9,233 637.3,232.6 629.6,228.2 629,227.9 591.6,206.3 592.3,205.9 629.6,227.5 630.3,227.8 
					637.9,232.3 638.5,232.6 646.2,237 646.8,237.4 654.4,241.8 655,242.2 662.7,246.6 663.3,246.9 				"/>
				<polygon class="st16" points="680,246.1 679.3,246.4 671.8,242.1 671.1,241.7 663.5,237.3 662.9,236.9 655.2,232.5 654.6,232.2 
					647,227.7 646.4,227.4 638.7,223 638.1,222.6 600.7,201 601.3,200.7 638.7,222.3 638.7,222.3 639.3,222.6 647,227 647.6,227.4 
					655.2,231.8 655.8,232.2 663.5,236.6 664.1,236.9 664.1,236.9 671.8,241.3 672.4,241.7 				"/>
				<polygon class="st16" points="689,240.8 688.4,241.2 680.8,236.8 680.2,236.5 672.6,232 671.9,231.7 664.3,227.3 663.7,226.9 
					656,222.5 655.4,222.2 647.8,217.7 647.2,217.4 609.8,195.8 610.4,195.4 647.8,217 648.4,217.4 656,221.8 656,221.8 
					656.7,222.2 664.3,226.6 664.9,226.9 672.6,231.3 673.2,231.7 680.8,236.1 681.4,236.5 				"/>
				<polygon class="st16" points="698.1,235.6 697.5,235.9 689.9,231.6 689.3,231.2 681.6,226.8 681,226.5 681,226.5 673.4,222 
					672.8,221.7 665.1,217.3 665.1,217.3 664.5,216.9 656.9,212.5 656.2,212.1 618.8,190.6 619.4,190.2 619.5,190.2 656.9,211.8 
					657.5,212.1 665.1,216.6 665.7,216.9 673.4,221.3 673.4,221.3 674,221.7 681.6,226.1 682.3,226.5 689.9,230.9 690.5,231.2 				
					"/>
				<polygon class="st16" points="707.2,230.4 706.5,230.7 699,226.3 698.4,226 690.7,221.6 690.1,221.2 682.4,216.8 682.4,216.8 
					681.8,216.4 674.2,212 673.6,211.7 665.9,207.3 665.3,206.9 627.9,185.3 628.5,185 628.5,185 665.9,206.6 666.5,206.9 
					674.2,211.3 674.8,211.7 682.4,216.1 683.1,216.4 690.7,220.9 691.3,221.2 699,225.6 699.6,226 				"/>
				<polygon class="st16" points="716.2,225.1 715.6,225.5 708,221.1 707.4,220.7 699.8,216.3 699.8,216.3 699.2,216 699.2,216 
					691.5,211.6 690.9,211.2 683.3,206.8 683.2,206.8 682.6,206.4 675,202 674.4,201.7 637,180.1 637.6,179.7 675,201.3 
					675.6,201.7 683.3,206.1 683.9,206.4 691.5,210.9 692.1,211.2 699.8,215.6 700.4,216 708,220.4 708.7,220.7 				"/>
				<polygon class="st16" points="725.3,219.9 724.7,220.2 717.1,215.9 716.5,215.5 708.9,211.1 708.2,210.7 700.6,206.3 700,206 
					692.3,201.6 691.7,201.2 684.1,196.8 683.5,196.4 646,174.8 646.7,174.5 684.1,196.1 684.7,196.4 692.3,200.9 692.3,200.9 
					692.9,201.2 700.6,205.6 701.2,206 708.8,210.4 709.5,210.7 717.1,215.2 717.7,215.5 				"/>
				<polygon class="st16" points="734.4,214.7 733.8,215 726.2,210.6 725.6,210.3 717.9,205.9 717.3,205.5 709.7,201.1 709,200.7 
					701.4,196.3 700.8,196 693.1,191.6 693.1,191.6 692.5,191.2 655.1,169.6 655.7,169.3 693.1,190.8 693.7,191.2 701.4,195.6 
					702,196 709.6,200.4 710.3,200.7 717.9,205.2 718.5,205.5 726.2,209.9 726.8,210.3 				"/>
				<polygon class="st16" points="743.4,209.4 742.8,209.8 735.2,205.4 734.6,205 727,200.6 727,200.6 726.4,200.3 718.7,195.9 
					718.1,195.5 710.5,191.1 709.8,190.7 702.2,186.3 701.6,186 664.2,164.4 664.8,164 702.2,185.6 702.8,186 710.5,190.4 
					711.1,190.7 718.7,195.2 719.3,195.5 727,199.9 727.6,200.3 735.2,204.7 735.9,205 				"/>
				<polygon class="st16" points="752.5,204.2 751.9,204.5 744.3,200.2 743.7,199.8 743.7,199.8 736.1,195.4 735.4,195 727.8,190.6 
					727.8,190.6 727.2,190.3 719.5,185.9 718.9,185.5 711.3,181.1 710.7,180.7 673.3,159.1 673.9,158.8 711.3,180.4 711.9,180.7 
					719.5,185.1 720.1,185.5 727.8,189.9 727.8,189.9 728.4,190.3 736,194.7 736.7,195 744.3,199.5 744.9,199.8 				"/>
			</g>
			<g>
				<polygon class="st16" points="749.4,159.1 711.9,180.7 711.3,181.1 702.8,186 702.2,186.3 693.7,191.2 693.1,191.6 693.1,191.6 
					684.7,196.4 684.1,196.8 675.6,201.7 675,202 666.5,206.9 665.9,207.3 657.5,212.1 656.9,212.5 648.4,217.4 647.8,217.7 
					639.3,222.6 638.7,223 630.3,227.8 629.6,228.2 621.6,232.9 621,232.5 629,227.9 629.6,227.5 638.1,222.6 638.7,222.3 
					638.7,222.3 647.2,217.4 647.8,217 656.2,212.1 656.9,211.8 665.3,206.9 665.9,206.6 674.4,201.7 675,201.3 683.5,196.4 
					684.1,196.1 692.5,191.2 693.1,190.8 701.6,186 702.2,185.6 710.7,180.7 711.3,180.4 748.8,158.7 				"/>
				<polygon class="st16" points="757.6,163.8 720.1,185.5 719.5,185.9 711.1,190.7 710.5,191.1 702,196 701.4,196.3 692.9,201.2 
					692.3,201.6 683.9,206.4 683.3,206.8 683.2,206.8 674.8,211.7 674.2,212 665.7,216.9 665.1,217.3 665.1,217.3 656.7,222.2 
					656,222.5 647.6,227.4 647,227.7 638.5,232.6 637.9,233 637.9,233 629.8,237.6 629.2,237.3 637.3,232.6 637.9,232.3 
					646.4,227.4 647,227 655.4,222.2 656,221.8 656,221.8 664.5,216.9 665.1,216.6 673.6,211.7 674.2,211.3 682.6,206.4 
					683.3,206.1 691.7,201.2 692.3,200.9 692.3,200.9 700.8,196 701.4,195.6 709.8,190.7 710.5,190.4 718.9,185.5 719.5,185.1 
					757,163.5 				"/>
				<polygon class="st16" points="765.9,168.6 728.4,190.3 727.8,190.6 727.8,190.6 719.3,195.5 718.7,195.9 710.3,200.7 
					709.7,201.1 701.2,206 700.6,206.3 692.1,211.2 691.5,211.6 683.1,216.4 682.4,216.8 682.4,216.8 674,221.7 673.4,222 
					664.9,226.9 664.3,227.3 655.8,232.2 655.2,232.5 646.8,237.4 646.2,237.7 638.1,242.4 637.5,242.1 645.6,237.4 646.2,237 
					654.6,232.2 655.2,231.8 663.7,226.9 664.3,226.6 672.8,221.7 673.4,221.3 673.4,221.3 681.8,216.4 682.4,216.1 690.9,211.2 
					691.5,210.9 700,206 700.6,205.6 709,200.7 709.6,200.4 718.1,195.5 718.7,195.2 727.2,190.3 727.8,189.9 727.8,189.9 
					765.3,168.3 				"/>
				<polygon class="st16" points="774.2,173.4 736.7,195 736.1,195.4 727.6,200.3 727,200.6 727,200.6 718.5,205.5 717.9,205.9 
					709.5,210.7 708.9,211.1 700.4,216 699.8,216.3 699.8,216.3 691.3,221.2 690.7,221.6 682.3,226.5 681.6,226.8 673.2,231.7 
					672.6,232 664.1,236.9 664.1,236.9 663.5,237.3 655,242.2 654.4,242.5 646.4,247.2 645.7,246.8 653.8,242.2 654.4,241.8 
					662.9,236.9 663.5,236.6 671.9,231.7 672.6,231.3 681,226.5 681,226.5 681.6,226.1 690.1,221.2 690.7,220.9 699.2,216 
					699.2,216 699.8,215.6 708.2,210.7 708.8,210.4 717.3,205.5 717.9,205.2 726.4,200.3 727,199.9 735.4,195 736,194.7 773.5,173 
									"/>
				<polygon class="st16" points="782.4,178.2 744.9,199.8 744.3,200.2 735.9,205 735.2,205.4 726.8,210.3 726.2,210.6 717.7,215.5 
					717.1,215.9 708.7,220.7 708,221.1 699.6,226 699,226.3 690.5,231.2 689.9,231.6 681.4,236.5 680.8,236.8 672.4,241.7 
					671.8,242.1 663.3,246.9 662.7,247.3 654.6,251.9 654,251.6 662.1,246.9 662.7,246.6 671.1,241.7 671.8,241.3 680.2,236.5 
					680.8,236.1 689.3,231.2 689.9,230.9 698.4,226 699,225.6 707.4,220.7 708,220.4 716.5,215.5 717.1,215.2 725.6,210.3 
					726.2,209.9 734.6,205 735.2,204.7 743.7,199.8 743.7,199.8 744.3,199.5 781.8,177.8 				"/>
			</g>
		</g>
		<polygon class="st16" points="711.4,170.8 760.8,199.4 790,182.5 711.4,137.1 583.6,210.9 612.7,227.7 		"/>
		<polygon class="st17" points="711.4,170.8 711.4,146.5 781.9,187.2 760.8,199.4 		"/>
		<polygon class="st18" points="711.4,146.5 781.9,187.2 790,182.5 711.4,137.1 583.6,210.9 591.7,215.6 		"/>
		<polygon class="st11" points="711.4,142.4 785.4,185.2 790,182.5 711.4,137.1 583.6,210.9 588.1,213.6 		"/>
		<polygon class="st14" points="773.5,178.3 773.5,173 756.7,163.3 756.8,168.6 		"/>
		<polygon class="st12" points="711.4,137.1 711.4,142.4 588.1,213.6 583.6,210.9 		"/>
		<polygon class="st16" points="711.4,142.4 711.4,146.5 781.9,187.2 785.4,185.2 		"/>
	</g>
	<polygon class="st14" points="784.2,172.4 795.7,165.7 779,156.1 767.4,162.7 	"/>
	<g>
		<g>
			<polygon class="st14" points="748.5,158.5 754.6,155.2 737.8,145.5 731.7,148.9 			"/>
			<polygon class="st14" points="748.5,163.8 748.5,158.5 731.7,148.9 731.7,154.2 			"/>
			<polygon class="st14" points="759.2,157.9 770.7,151.3 753.9,141.6 742.4,148.2 			"/>
			<polygon class="st14" points="717.2,181.8 748.5,163.8 731.7,154.2 700.5,172.2 			"/>
			<g>
				<g>
					<polygon class="st19" points="751.8,111.1 748.8,109.4 761.8,101.9 764.8,103.6 					"/>
					<polygon class="st20" points="764.8,149.3 764.8,103.6 751.8,111.1 758.3,153 					"/>
					<polygon class="st11" points="753.5,121.8 764.8,128.2 764.8,113.6 					"/>
					<polygon class="st21" points="748.8,109.4 755.3,151.4 758.3,153 751.8,111.1 					"/>
				</g>
				<g>
					<polygon class="st19" points="718.6,138.7 772.1,107.9 755.3,98.2 701.8,129 					"/>
					<polygon class="st21" points="701.8,132.2 701.8,129 718.6,138.7 718.6,141.9 					"/>
					<polygon class="st20" points="772.1,107.9 772.1,111.1 718.6,141.9 718.6,138.7 					"/>
				</g>
				<path class="st11" d="M760.6,101.2l-0.5-0.3l0,0l-1.7-1l0,0l-0.5-0.3l0,0l-1.8-1l-0.6,0.3l1.8,1l-4.2,2.5l-1.8-1l-0.6,0.3l1.8,1
					l-4.2,2.5l-1.8-1l-0.6,0.3l1.8,1l-4.2,2.5l-1.8-1l-0.6,0.3l1.8,1l-4.2,2.5l-1.8-1l-0.6,0.3l1.8,1l-4.2,2.5l-1.8-1.1l-0.6,0.3
					l1.8,1.1l-4.2,2.5l-1.8-1.1l-0.6,0.3l1.8,1.1l-4.2,2.5l-1.8-1.1l-0.6,0.3l1.8,1.1l-4.2,2.5l-1.8-1.1l-0.6,0.3l1.8,1.1l-4.2,2.5
					l-1.8-1.1l-0.6,0.3l1.8,1.1l-4.2,2.5l-1.8-1.1l-0.6,0.3l1.8,1.1l-4.2,2.5l-1.8-1.1l-0.6,0.3l1.8,1.1l0,0l0.5,0.3l0,0l1.7,1
					l0.6-0.3l-1.7-1l4.2-2.5l1.7,1l-4.8,2.8l0.5,0.3L760.6,101.2z M753.1,103l1.7,1l-4.2,2.5l-1.7-1L753.1,103z M748.3,105.8l1.7,1
					l-4.2,2.5l-1.7-1L748.3,105.8z M743.5,108.6l1.7,1L741,112l-1.7-1L743.5,108.6z M738.7,111.4l1.7,1l-4.2,2.5l-1.7-1L738.7,111.4
					z M733.9,114.1l1.7,1l-4.2,2.5l-1.7-1L733.9,114.1z M729.1,116.9l1.7,1l-4.2,2.5l-1.7-1L729.1,116.9z M724.3,119.7l1.7,1
					l-4.2,2.5l-1.7-1L724.3,119.7z M719.5,122.5l1.7,1l-4.2,2.5l-1.7-1L719.5,122.5z M710.4,127.7l4.2-2.5l1.7,1l-4.2,2.5
					L710.4,127.7z M759.6,101.2l-4.2,2.5l-1.7-1l4.2-2.5L759.6,101.2z"/>
				<g>
					<g>
						<g>
							<polygon class="st19" points="702.8,124.7 703.3,124.4 702.4,123.9 701.8,124.2 							"/>
							<polygon class="st21" points="701.8,129 701.8,124.2 702.8,124.7 702.8,129.5 							"/>
							<polygon class="st20" points="703.3,124.4 703.3,129.2 702.8,129.5 702.8,124.7 							"/>
						</g>
						<g>
							<polygon class="st19" points="707.6,122 708.1,121.6 707.2,121.1 706.6,121.4 							"/>
							<polygon class="st21" points="706.6,126.2 706.6,121.4 707.6,122 707.6,126.8 							"/>
							<polygon class="st20" points="708.1,121.6 708.1,126.4 707.6,126.8 707.6,122 							"/>
						</g>
						<g>
							<polygon class="st19" points="712.4,119.2 712.9,118.9 712,118.3 711.5,118.7 							"/>
							<polygon class="st21" points="711.5,123.5 711.5,118.7 712.4,119.2 712.4,124 							"/>
							<polygon class="st20" points="712.9,118.9 712.9,123.7 712.4,124 712.4,119.2 							"/>
						</g>
						<g>
							<polygon class="st19" points="717.2,116.4 717.7,116.1 716.8,115.6 716.3,115.9 							"/>
							<polygon class="st21" points="716.3,120.7 716.3,115.9 717.2,116.4 717.2,121.2 							"/>
							<polygon class="st20" points="717.7,116.1 717.7,120.9 717.2,121.2 717.2,116.4 							"/>
						</g>
						<g>
							<polygon class="st19" points="722,113.6 722.5,113.3 721.6,112.8 721.1,113.1 							"/>
							<polygon class="st21" points="721.1,117.9 721.1,113.1 722,113.6 722,118.4 							"/>
							<polygon class="st20" points="722.5,113.3 722.5,118.1 722,118.4 722,113.6 							"/>
						</g>
						<g>
							<polygon class="st19" points="726.8,110.9 727.4,110.6 726.4,110 725.9,110.4 							"/>
							<polygon class="st21" points="725.9,115.2 725.9,110.4 726.8,110.9 726.8,115.7 							"/>
							<polygon class="st20" points="727.4,110.6 727.4,115.4 726.8,115.7 726.8,110.9 							"/>
						</g>
						<g>
							<polygon class="st19" points="731.6,108.1 732.2,107.8 731.2,107.3 730.7,107.6 							"/>
							<polygon class="st21" points="730.7,112.4 730.7,107.6 731.6,108.1 731.6,112.9 							"/>
							<polygon class="st20" points="732.2,107.8 732.2,112.6 731.6,112.9 731.6,108.1 							"/>
						</g>
						<g>
							<polygon class="st19" points="736.4,105.3 737,105 736.1,104.5 735.5,104.8 							"/>
							<polygon class="st21" points="735.5,109.6 735.5,104.8 736.4,105.3 736.4,110.1 							"/>
							<polygon class="st20" points="737,105 737,109.8 736.4,110.1 736.4,105.3 							"/>
						</g>
						<g>
							<polygon class="st19" points="741.2,102.6 741.8,102.2 740.9,101.7 740.3,102 							"/>
							<polygon class="st21" points="740.3,106.8 740.3,102 741.2,102.6 741.2,107.4 							"/>
							<polygon class="st20" points="741.8,102.2 741.8,107 741.2,107.4 741.2,102.6 							"/>
						</g>
						<g>
							<polygon class="st19" points="746,99.8 746.6,99.5 745.7,98.9 745.1,99.3 							"/>
							<polygon class="st21" points="745.1,104.1 745.1,99.3 746,99.8 746,104.6 							"/>
							<polygon class="st20" points="746.6,99.5 746.6,104.3 746,104.6 746,99.8 							"/>
						</g>
						<g>
							<polygon class="st19" points="750.8,97 751.4,96.7 750.5,96.2 749.9,96.5 							"/>
							<polygon class="st21" points="749.9,101.3 749.9,96.5 750.8,97 750.8,101.8 							"/>
							<polygon class="st20" points="751.4,96.7 751.4,101.5 750.8,101.8 750.8,97 							"/>
						</g>
						<g>
							<polygon class="st19" points="755.6,94.2 756.2,93.9 755.3,93.4 754.7,93.7 							"/>
							<polygon class="st21" points="754.7,98.5 754.7,93.7 755.6,94.2 755.6,99 							"/>
							<polygon class="st20" points="756.2,93.9 756.2,98.7 755.6,99 755.6,94.2 							"/>
						</g>
					</g>
					<g>
						<polygon class="st19" points="702.8,124.1 756.2,93.3 755.3,92.8 701.8,123.6 						"/>
						<polygon class="st21" points="701.8,124.2 701.8,123.6 702.8,124.1 702.8,124.7 						"/>
						<polygon class="st20" points="756.2,93.3 756.2,94 702.8,124.7 702.8,124.1 						"/>
					</g>
					<g>
						<g>
							<polygon class="st19" points="702.8,119.3 703.3,119 702.4,118.5 701.8,118.8 							"/>
							<polygon class="st21" points="701.8,123.6 701.8,118.8 702.8,119.3 702.8,124.1 							"/>
							<polygon class="st20" points="703.3,119 703.3,123.8 702.8,124.1 702.8,119.3 							"/>
						</g>
						<g>
							<polygon class="st19" points="707.6,116.6 708.1,116.2 707.2,115.7 706.6,116 							"/>
							<polygon class="st21" points="706.6,120.8 706.6,116 707.6,116.6 707.6,121.4 							"/>
							<polygon class="st20" points="708.1,116.2 708.1,121 707.6,121.4 707.6,116.6 							"/>
						</g>
						<g>
							<polygon class="st19" points="712.4,113.8 712.9,113.5 712,112.9 711.5,113.3 							"/>
							<polygon class="st21" points="711.5,118.1 711.5,113.3 712.4,113.8 712.4,118.6 							"/>
							<polygon class="st20" points="712.9,113.5 712.9,118.3 712.4,118.6 712.4,113.8 							"/>
						</g>
						<g>
							<polygon class="st19" points="717.2,111 717.7,110.7 716.8,110.2 716.3,110.5 							"/>
							<polygon class="st21" points="716.3,115.3 716.3,110.5 717.2,111 717.2,115.8 							"/>
							<polygon class="st20" points="717.7,110.7 717.7,115.5 717.2,115.8 717.2,111 							"/>
						</g>
						<g>
							<polygon class="st19" points="722,108.2 722.5,107.9 721.6,107.4 721.1,107.7 							"/>
							<polygon class="st21" points="721.1,112.5 721.1,107.7 722,108.2 722,113 							"/>
							<polygon class="st20" points="722.5,107.9 722.5,112.7 722,113 722,108.2 							"/>
						</g>
						<g>
							<polygon class="st19" points="726.8,105.5 727.4,105.1 726.4,104.6 725.9,104.9 							"/>
							<polygon class="st21" points="725.9,109.7 725.9,104.9 726.8,105.5 726.8,110.3 							"/>
							<polygon class="st20" points="727.4,105.1 727.4,109.9 726.8,110.3 726.8,105.5 							"/>
						</g>
						<g>
							<polygon class="st19" points="731.6,102.7 732.2,102.4 731.2,101.8 730.7,102.2 							"/>
							<polygon class="st21" points="730.7,107 730.7,102.2 731.6,102.7 731.6,107.5 							"/>
							<polygon class="st20" points="732.2,102.4 732.2,107.2 731.6,107.5 731.6,102.7 							"/>
						</g>
						<g>
							<polygon class="st19" points="736.4,99.9 737,99.6 736.1,99.1 735.5,99.4 							"/>
							<polygon class="st21" points="735.5,104.2 735.5,99.4 736.4,99.9 736.4,104.7 							"/>
							<polygon class="st20" points="737,99.6 737,104.4 736.4,104.7 736.4,99.9 							"/>
						</g>
						<g>
							<polygon class="st19" points="741.2,97.1 741.8,96.8 740.9,96.3 740.3,96.6 							"/>
							<polygon class="st21" points="740.3,101.4 740.3,96.6 741.2,97.1 741.2,101.9 							"/>
							<polygon class="st20" points="741.8,96.8 741.8,101.6 741.2,101.9 741.2,97.1 							"/>
						</g>
						<g>
							<polygon class="st19" points="746,94.4 746.6,94.1 745.7,93.5 745.1,93.8 							"/>
							<polygon class="st21" points="745.1,98.7 745.1,93.8 746,94.4 746,99.2 							"/>
							<polygon class="st20" points="746.6,94.1 746.6,98.9 746,99.2 746,94.4 							"/>
						</g>
						<g>
							<polygon class="st19" points="750.8,91.6 751.4,91.3 750.5,90.8 749.9,91.1 							"/>
							<polygon class="st21" points="749.9,95.9 749.9,91.1 750.8,91.6 750.8,96.4 							"/>
							<polygon class="st20" points="751.4,91.3 751.4,96.1 750.8,96.4 750.8,91.6 							"/>
						</g>
						<g>
							<polygon class="st19" points="755.6,88.8 756.2,88.5 755.3,88 754.7,88.3 							"/>
							<polygon class="st21" points="754.7,93.1 754.7,88.3 755.6,88.8 755.6,93.6 							"/>
							<polygon class="st20" points="756.2,88.5 756.2,93.3 755.6,93.6 755.6,88.8 							"/>
						</g>
					</g>
					<g>
						<polygon class="st19" points="702.8,118.7 756.2,87.9 755.3,87.4 701.8,118.2 						"/>
						<polygon class="st21" points="701.8,118.8 701.8,118.2 702.8,118.7 702.8,119.3 						"/>
						<polygon class="st20" points="756.2,87.9 756.2,88.5 702.8,119.3 702.8,118.7 						"/>
					</g>
				</g>
				<g>
					<g>
						<g>
							<polygon class="st19" points="718.7,133.9 719.2,133.6 718.3,133.1 717.7,133.4 							"/>
							<polygon class="st21" points="717.7,138.2 717.7,133.4 718.7,133.9 718.7,138.7 							"/>
							<polygon class="st20" points="719.2,133.6 719.2,138.4 718.7,138.7 718.7,133.9 							"/>
						</g>
						<g>
							<polygon class="st19" points="723.5,131.1 724,130.8 723.1,130.3 722.5,130.6 							"/>
							<polygon class="st21" points="722.5,135.4 722.5,130.6 723.5,131.1 723.5,135.9 							"/>
							<polygon class="st20" points="724,130.8 724,135.6 723.5,135.9 723.5,131.1 							"/>
						</g>
						<g>
							<polygon class="st19" points="728.3,128.4 728.8,128 727.9,127.5 727.4,127.8 							"/>
							<polygon class="st21" points="727.4,132.6 727.4,127.8 728.3,128.4 728.3,133.2 							"/>
							<polygon class="st20" points="728.8,128 728.8,132.8 728.3,133.2 728.3,128.4 							"/>
						</g>
						<g>
							<polygon class="st19" points="733.1,125.6 733.6,125.3 732.7,124.7 732.2,125.1 							"/>
							<polygon class="st21" points="732.2,129.9 732.2,125.1 733.1,125.6 733.1,130.4 							"/>
							<polygon class="st20" points="733.6,125.3 733.6,130.1 733.1,130.4 733.1,125.6 							"/>
						</g>
						<g>
							<polygon class="st19" points="737.9,122.8 738.4,122.5 737.5,122 737,122.3 							"/>
							<polygon class="st21" points="737,127.1 737,122.3 737.9,122.8 737.9,127.6 							"/>
							<polygon class="st20" points="738.4,122.5 738.4,127.3 737.9,127.6 737.9,122.8 							"/>
						</g>
						<g>
							<polygon class="st19" points="742.7,120 743.3,119.7 742.3,119.2 741.8,119.5 							"/>
							<polygon class="st21" points="741.8,124.3 741.8,119.5 742.7,120 742.7,124.8 							"/>
							<polygon class="st20" points="743.3,119.7 743.3,124.5 742.7,124.8 742.7,120 							"/>
						</g>
						<g>
							<polygon class="st19" points="747.5,117.3 748.1,116.9 747.1,116.4 746.6,116.7 							"/>
							<polygon class="st21" points="746.6,121.5 746.6,116.7 747.5,117.3 747.5,122.1 							"/>
							<polygon class="st20" points="748.1,116.9 748.1,121.7 747.5,122.1 747.5,117.3 							"/>
						</g>
						<g>
							<polygon class="st19" points="752.3,114.5 752.9,114.2 752,113.6 751.4,114 							"/>
							<polygon class="st21" points="751.4,118.8 751.4,114 752.3,114.5 752.3,119.3 							"/>
							<polygon class="st20" points="752.9,114.2 752.9,119 752.3,119.3 752.3,114.5 							"/>
						</g>
						<g>
							<polygon class="st19" points="757.1,111.7 757.7,111.4 756.8,110.9 756.2,111.2 							"/>
							<polygon class="st21" points="756.2,116 756.2,111.2 757.1,111.7 757.1,116.5 							"/>
							<polygon class="st20" points="757.7,111.4 757.7,116.2 757.1,116.5 757.1,111.7 							"/>
						</g>
						<g>
							<polygon class="st19" points="761.9,109 762.5,108.6 761.6,108.1 761,108.4 							"/>
							<polygon class="st21" points="761,113.2 761,108.4 761.9,109 761.9,113.8 							"/>
							<polygon class="st20" points="762.5,108.6 762.5,113.4 761.9,113.8 761.9,109 							"/>
						</g>
						<g>
							<polygon class="st19" points="766.7,106.2 767.3,105.9 766.4,105.3 765.8,105.7 							"/>
							<polygon class="st21" points="765.8,110.5 765.8,105.7 766.7,106.2 766.7,111 							"/>
							<polygon class="st20" points="767.3,105.9 767.3,110.7 766.7,111 766.7,106.2 							"/>
						</g>
						<g>
							<polygon class="st19" points="771.5,103.4 772.1,103.1 771.2,102.6 770.6,102.9 							"/>
							<polygon class="st21" points="770.6,107.7 770.6,102.9 771.5,103.4 771.5,108.2 							"/>
							<polygon class="st20" points="772.1,103.1 772.1,107.9 771.5,108.2 771.5,103.4 							"/>
						</g>
					</g>
					<g>
						<polygon class="st19" points="718.7,133.3 772.1,102.5 771.2,101.9 717.7,132.7 						"/>
						<polygon class="st21" points="717.7,133.4 717.7,132.7 718.7,133.3 718.7,133.9 						"/>
						<polygon class="st20" points="772.1,102.5 772.1,103.1 718.7,133.9 718.7,133.3 						"/>
					</g>
					<g>
						<g>
							<polygon class="st19" points="718.7,128.5 719.2,128.2 718.3,127.6 717.7,128 							"/>
							<polygon class="st21" points="717.7,132.8 717.7,128 718.7,128.5 718.7,133.3 							"/>
							<polygon class="st20" points="719.2,128.2 719.2,133 718.7,133.3 718.7,128.5 							"/>
						</g>
						<g>
							<polygon class="st19" points="723.5,125.7 724,125.4 723.1,124.9 722.5,125.2 							"/>
							<polygon class="st21" points="722.5,130 722.5,125.2 723.5,125.7 723.5,130.5 							"/>
							<polygon class="st20" points="724,125.4 724,130.2 723.5,130.5 723.5,125.7 							"/>
						</g>
						<g>
							<polygon class="st19" points="728.3,122.9 728.8,122.6 727.9,122.1 727.4,122.4 							"/>
							<polygon class="st21" points="727.4,127.2 727.4,122.4 728.3,122.9 728.3,127.7 							"/>
							<polygon class="st20" points="728.8,122.6 728.8,127.4 728.3,127.7 728.3,122.9 							"/>
						</g>
						<g>
							<polygon class="st19" points="733.1,120.2 733.6,119.8 732.7,119.3 732.2,119.6 							"/>
							<polygon class="st21" points="732.2,124.4 732.2,119.6 733.1,120.2 733.1,125 							"/>
							<polygon class="st20" points="733.6,119.8 733.6,124.7 733.1,125 733.1,120.2 							"/>
						</g>
						<g>
							<polygon class="st19" points="737.9,117.4 738.4,117.1 737.5,116.6 737,116.9 							"/>
							<polygon class="st21" points="737,121.7 737,116.9 737.9,117.4 737.9,122.2 							"/>
							<polygon class="st20" points="738.4,117.1 738.4,121.9 737.9,122.2 737.9,117.4 							"/>
						</g>
						<g>
							<polygon class="st19" points="742.7,114.6 743.3,114.3 742.3,113.8 741.8,114.1 							"/>
							<polygon class="st21" points="741.8,118.9 741.8,114.1 742.7,114.6 742.7,119.4 							"/>
							<polygon class="st20" points="743.3,114.3 743.3,119.1 742.7,119.4 742.7,114.6 							"/>
						</g>
						<g>
							<polygon class="st19" points="747.5,111.9 748.1,111.5 747.1,111 746.6,111.3 							"/>
							<polygon class="st21" points="746.6,116.1 746.6,111.3 747.5,111.9 747.5,116.7 							"/>
							<polygon class="st20" points="748.1,111.5 748.1,116.3 747.5,116.7 747.5,111.9 							"/>
						</g>
						<g>
							<polygon class="st19" points="752.3,109.1 752.9,108.8 752,108.2 751.4,108.6 							"/>
							<polygon class="st21" points="751.4,113.4 751.4,108.6 752.3,109.1 752.3,113.9 							"/>
							<polygon class="st20" points="752.9,108.8 752.9,113.6 752.3,113.9 752.3,109.1 							"/>
						</g>
						<g>
							<polygon class="st19" points="757.1,106.3 757.7,106 756.8,105.5 756.2,105.8 							"/>
							<polygon class="st21" points="756.2,110.6 756.2,105.8 757.1,106.3 757.1,111.1 							"/>
							<polygon class="st20" points="757.7,106 757.7,110.8 757.1,111.1 757.1,106.3 							"/>
						</g>
						<g>
							<polygon class="st19" points="761.9,103.5 762.5,103.2 761.6,102.7 761,103 							"/>
							<polygon class="st21" points="761,107.8 761,103 761.9,103.5 761.9,108.3 							"/>
							<polygon class="st20" points="762.5,103.2 762.5,108 761.9,108.3 761.9,103.5 							"/>
						</g>
						<g>
							<polygon class="st19" points="766.7,100.8 767.3,100.4 766.4,99.9 765.8,100.2 							"/>
							<polygon class="st21" points="765.8,105 765.8,100.2 766.7,100.8 766.7,105.6 							"/>
							<polygon class="st20" points="767.3,100.4 767.3,105.2 766.7,105.6 766.7,100.8 							"/>
						</g>
						<g>
							<polygon class="st19" points="771.5,98 772.1,97.7 771.2,97.1 770.6,97.5 							"/>
							<polygon class="st21" points="770.6,102.3 770.6,97.5 771.5,98 771.5,102.8 							"/>
							<polygon class="st20" points="772.1,97.7 772.1,102.5 771.5,102.8 771.5,98 							"/>
						</g>
					</g>
					<g>
						<polygon class="st19" points="718.7,127.8 772.1,97.1 771.2,96.5 717.7,127.3 						"/>
						<polygon class="st21" points="717.7,128 717.7,127.3 718.7,127.8 718.7,128.5 						"/>
						<polygon class="st20" points="772.1,97.1 772.1,97.7 718.7,128.5 718.7,127.8 						"/>
					</g>
				</g>
			</g>
		</g>
		<g>
			<polygon class="st14" points="742.3,196.3 773.5,178.3 756.8,168.6 725.5,186.6 			"/>
			<g>
				<g>
					<polygon class="st19" points="775.5,141.6 772.5,140 785.5,132.5 788.4,134.2 					"/>
					<polygon class="st20" points="788.4,165.3 788.4,134.2 775.5,141.6 782,169.1 					"/>
					<polygon class="st11" points="777.1,152.4 788.4,158.7 788.4,144.2 					"/>
					<polygon class="st21" points="772.5,140 779,167.4 782,169.1 775.5,141.6 					"/>
				</g>
				<g>
					<polygon class="st19" points="742.3,169.3 795.7,138.5 779,128.8 725.5,159.6 					"/>
					<polygon class="st21" points="725.5,162.8 725.5,159.6 742.3,169.3 742.3,172.5 					"/>
					<polygon class="st20" points="795.7,138.5 795.7,141.7 742.3,172.5 742.3,169.3 					"/>
				</g>
				<path class="st11" d="M784.3,131.8l-0.5-0.3l0,0l-1.7-1l0,0l-0.5-0.3l0,0l-1.8-1l-0.6,0.3l1.8,1l-4.2,2.5l-1.8-1l-0.6,0.3l1.8,1
					l-4.2,2.5l-1.8-1l-0.6,0.3l1.8,1l-4.2,2.5l-1.8-1l-0.6,0.3l1.8,1l-4.2,2.5l-1.8-1l-0.6,0.3l1.8,1l-4.2,2.5l-1.8-1.1l-0.6,0.3
					l1.8,1.1l-4.2,2.5l-1.8-1.1l-0.6,0.3l1.8,1.1l-4.2,2.5l-1.8-1.1l-0.6,0.3l1.8,1.1l-4.2,2.5l-1.8-1.1l-0.6,0.3l1.8,1.1l-4.2,2.5
					l-1.8-1.1l-0.6,0.3l1.8,1.1l-4.2,2.5l-1.8-1.1l-0.6,0.3l1.8,1.1l-4.2,2.5l-1.8-1.1l-0.6,0.3l1.8,1.1l0,0l0.5,0.3l0,0l1.7,1
					l0.6-0.3l-1.7-1l4.2-2.5l1.7,1l-4.8,2.8l0.5,0.3L784.3,131.8z M776.7,133.6l1.7,1l-4.2,2.5l-1.7-1L776.7,133.6z M771.9,136.4
					l1.7,1l-4.2,2.5l-1.7-1L771.9,136.4z M767.1,139.1l1.7,1l-4.2,2.5l-1.7-1L767.1,139.1z M762.3,141.9l1.7,1l-4.2,2.5l-1.7-1
					L762.3,141.9z M757.5,144.7l1.7,1l-4.2,2.5l-1.7-1L757.5,144.7z M752.7,147.5l1.7,1l-4.2,2.5l-1.7-1L752.7,147.5z M747.9,150.3
					l1.7,1l-4.2,2.5l-1.7-1L747.9,150.3z M743.1,153l1.7,1l-4.2,2.5l-1.7-1L743.1,153z M734.1,158.3l4.2-2.5l1.7,1l-4.2,2.5
					L734.1,158.3z M783.3,131.8l-4.2,2.5l-1.7-1l4.2-2.5L783.3,131.8z"/>
				<g>
					<g>
						<g>
							<polygon class="st19" points="726.4,155.3 727,155 726.1,154.4 725.5,154.8 							"/>
							<polygon class="st21" points="725.5,159.6 725.5,154.8 726.4,155.3 726.4,160.1 							"/>
							<polygon class="st20" points="727,155 727,159.8 726.4,160.1 726.4,155.3 							"/>
						</g>
						<g>
							<polygon class="st19" points="731.2,152.5 731.8,152.2 730.9,151.7 730.3,152 							"/>
							<polygon class="st21" points="730.3,156.8 730.3,152 731.2,152.5 731.2,157.3 							"/>
							<polygon class="st20" points="731.8,152.2 731.8,157 731.2,157.3 731.2,152.5 							"/>
						</g>
						<g>
							<polygon class="st19" points="736,149.8 736.6,149.4 735.7,148.9 735.1,149.2 							"/>
							<polygon class="st21" points="735.1,154 735.1,149.2 736,149.8 736,154.6 							"/>
							<polygon class="st20" points="736.6,149.4 736.6,154.2 736,154.6 736,149.8 							"/>
						</g>
						<g>
							<polygon class="st19" points="740.8,147 741.4,146.7 740.5,146.1 739.9,146.5 							"/>
							<polygon class="st21" points="739.9,151.3 739.9,146.5 740.8,147 740.8,151.8 							"/>
							<polygon class="st20" points="741.4,146.7 741.4,151.5 740.8,151.8 740.8,147 							"/>
						</g>
						<g>
							<polygon class="st19" points="745.7,144.2 746.2,143.9 745.3,143.4 744.7,143.7 							"/>
							<polygon class="st21" points="744.7,148.5 744.7,143.7 745.7,144.2 745.7,149 							"/>
							<polygon class="st20" points="746.2,143.9 746.2,148.7 745.7,149 745.7,144.2 							"/>
						</g>
						<g>
							<polygon class="st19" points="750.5,141.4 751,141.1 750.1,140.6 749.5,140.9 							"/>
							<polygon class="st21" points="749.5,145.7 749.5,140.9 750.5,141.4 750.5,146.2 							"/>
							<polygon class="st20" points="751,141.1 751,145.9 750.5,146.2 750.5,141.4 							"/>
						</g>
						<g>
							<polygon class="st19" points="755.3,138.7 755.8,138.3 754.9,137.8 754.4,138.1 							"/>
							<polygon class="st21" points="754.4,142.9 754.4,138.1 755.3,138.7 755.3,143.5 							"/>
							<polygon class="st20" points="755.8,138.3 755.8,143.1 755.3,143.5 755.3,138.7 							"/>
						</g>
						<g>
							<polygon class="st19" points="760.1,135.9 760.6,135.6 759.7,135 759.2,135.4 							"/>
							<polygon class="st21" points="759.2,140.2 759.2,135.4 760.1,135.9 760.1,140.7 							"/>
							<polygon class="st20" points="760.6,135.6 760.6,140.4 760.1,140.7 760.1,135.9 							"/>
						</g>
						<g>
							<polygon class="st19" points="764.9,133.1 765.4,132.8 764.5,132.3 764,132.6 							"/>
							<polygon class="st21" points="764,137.4 764,132.6 764.9,133.1 764.9,137.9 							"/>
							<polygon class="st20" points="765.4,132.8 765.4,137.6 764.9,137.9 764.9,133.1 							"/>
						</g>
						<g>
							<polygon class="st19" points="769.7,130.3 770.3,130 769.3,129.5 768.8,129.8 							"/>
							<polygon class="st21" points="768.8,134.6 768.8,129.8 769.7,130.3 769.7,135.1 							"/>
							<polygon class="st20" points="770.3,130 770.3,134.8 769.7,135.1 769.7,130.3 							"/>
						</g>
						<g>
							<polygon class="st19" points="774.5,127.6 775.1,127.3 774.1,126.7 773.6,127.1 							"/>
							<polygon class="st21" points="773.6,131.9 773.6,127.1 774.5,127.6 774.5,132.4 							"/>
							<polygon class="st20" points="775.1,127.3 775.1,132.1 774.5,132.4 774.5,127.6 							"/>
						</g>
						<g>
							<polygon class="st19" points="779.3,124.8 779.9,124.5 779,124 778.4,124.3 							"/>
							<polygon class="st21" points="778.4,129.1 778.4,124.3 779.3,124.8 779.3,129.6 							"/>
							<polygon class="st20" points="779.9,124.5 779.9,129.3 779.3,129.6 779.3,124.8 							"/>
						</g>
					</g>
					<g>
						<polygon class="st19" points="726.4,154.7 779.9,123.9 779,123.3 725.5,154.1 						"/>
						<polygon class="st21" points="725.5,154.8 725.5,154.1 726.4,154.7 726.4,155.3 						"/>
						<polygon class="st20" points="779.9,123.9 779.9,124.5 726.4,155.3 726.4,154.7 						"/>
					</g>
					<g>
						<g>
							<polygon class="st19" points="726.4,149.9 727,149.6 726.1,149 725.5,149.4 							"/>
							<polygon class="st21" points="725.5,154.2 725.5,149.4 726.4,149.9 726.4,154.7 							"/>
							<polygon class="st20" points="727,149.6 727,154.4 726.4,154.7 726.4,149.9 							"/>
						</g>
						<g>
							<polygon class="st19" points="731.2,147.1 731.8,146.8 730.9,146.3 730.3,146.6 							"/>
							<polygon class="st21" points="730.3,151.4 730.3,146.6 731.2,147.1 731.2,151.9 							"/>
							<polygon class="st20" points="731.8,146.8 731.8,151.6 731.2,151.9 731.2,147.1 							"/>
						</g>
						<g>
							<polygon class="st19" points="736,144.3 736.6,144 735.7,143.5 735.1,143.8 							"/>
							<polygon class="st21" points="735.1,148.6 735.1,143.8 736,144.3 736,149.1 							"/>
							<polygon class="st20" points="736.6,144 736.6,148.8 736,149.1 736,144.3 							"/>
						</g>
						<g>
							<polygon class="st19" points="740.8,141.6 741.4,141.2 740.5,140.7 739.9,141 							"/>
							<polygon class="st21" points="739.9,145.8 739.9,141 740.8,141.6 740.8,146.4 							"/>
							<polygon class="st20" points="741.4,141.2 741.4,146 740.8,146.4 740.8,141.6 							"/>
						</g>
						<g>
							<polygon class="st19" points="745.7,138.8 746.2,138.5 745.3,137.9 744.7,138.3 							"/>
							<polygon class="st21" points="744.7,143.1 744.7,138.3 745.7,138.8 745.7,143.6 							"/>
							<polygon class="st20" points="746.2,138.5 746.2,143.3 745.7,143.6 745.7,138.8 							"/>
						</g>
						<g>
							<polygon class="st19" points="750.5,136 751,135.7 750.1,135.2 749.5,135.5 							"/>
							<polygon class="st21" points="749.5,140.3 749.5,135.5 750.5,136 750.5,140.8 							"/>
							<polygon class="st20" points="751,135.7 751,140.5 750.5,140.8 750.5,136 							"/>
						</g>
						<g>
							<polygon class="st19" points="755.3,133.3 755.8,132.9 754.9,132.4 754.4,132.7 							"/>
							<polygon class="st21" points="754.4,137.5 754.4,132.7 755.3,133.3 755.3,138.1 							"/>
							<polygon class="st20" points="755.8,132.9 755.8,137.7 755.3,138.1 755.3,133.3 							"/>
						</g>
						<g>
							<polygon class="st19" points="760.1,130.5 760.6,130.2 759.7,129.6 759.2,130 							"/>
							<polygon class="st21" points="759.2,134.8 759.2,130 760.1,130.5 760.1,135.3 							"/>
							<polygon class="st20" points="760.6,130.2 760.6,135 760.1,135.3 760.1,130.5 							"/>
						</g>
						<g>
							<polygon class="st19" points="764.9,127.7 765.4,127.4 764.5,126.9 764,127.2 							"/>
							<polygon class="st21" points="764,132 764,127.2 764.9,127.7 764.9,132.5 							"/>
							<polygon class="st20" points="765.4,127.4 765.4,132.2 764.9,132.5 764.9,127.7 							"/>
						</g>
						<g>
							<polygon class="st19" points="769.7,124.9 770.3,124.6 769.3,124.1 768.8,124.4 							"/>
							<polygon class="st21" points="768.8,129.2 768.8,124.4 769.7,124.9 769.7,129.7 							"/>
							<polygon class="st20" points="770.3,124.6 770.3,129.4 769.7,129.7 769.7,124.9 							"/>
						</g>
						<g>
							<polygon class="st19" points="774.5,122.2 775.1,121.8 774.1,121.3 773.6,121.6 							"/>
							<polygon class="st21" points="773.6,126.4 773.6,121.6 774.5,122.2 774.5,127 							"/>
							<polygon class="st20" points="775.1,121.8 775.1,126.6 774.5,127 774.5,122.2 							"/>
						</g>
						<g>
							<polygon class="st19" points="779.3,119.4 779.9,119.1 779,118.5 778.4,118.9 							"/>
							<polygon class="st21" points="778.4,123.7 778.4,118.9 779.3,119.4 779.3,124.2 							"/>
							<polygon class="st20" points="779.9,119.1 779.9,123.9 779.3,124.2 779.3,119.4 							"/>
						</g>
					</g>
					<g>
						<polygon class="st19" points="726.4,149.2 779.9,118.5 779,117.9 725.5,148.7 						"/>
						<polygon class="st21" points="725.5,149.4 725.5,148.7 726.4,149.2 726.4,149.9 						"/>
						<polygon class="st20" points="779.9,118.5 779.9,119.1 726.4,149.9 726.4,149.2 						"/>
					</g>
				</g>
				<g>
					<g>
						<g>
							<polygon class="st19" points="742.3,164.5 742.9,164.1 742,163.6 741.4,163.9 							"/>
							<polygon class="st21" points="741.4,168.7 741.4,163.9 742.3,164.5 742.3,169.3 							"/>
							<polygon class="st20" points="742.9,164.1 742.9,168.9 742.3,169.3 742.3,164.5 							"/>
						</g>
						<g>
							<polygon class="st19" points="747.1,161.7 747.7,161.4 746.8,160.8 746.2,161.2 							"/>
							<polygon class="st21" points="746.2,166 746.2,161.2 747.1,161.7 747.1,166.5 							"/>
							<polygon class="st20" points="747.7,161.4 747.7,166.2 747.1,166.5 747.1,161.7 							"/>
						</g>
						<g>
							<polygon class="st19" points="751.9,158.9 752.5,158.6 751.6,158.1 751,158.4 							"/>
							<polygon class="st21" points="751,163.2 751,158.4 751.9,158.9 751.9,163.7 							"/>
							<polygon class="st20" points="752.5,158.6 752.5,163.4 751.9,163.7 751.9,158.9 							"/>
						</g>
						<g>
							<polygon class="st19" points="756.7,156.1 757.3,155.8 756.4,155.3 755.8,155.6 							"/>
							<polygon class="st21" points="755.8,160.4 755.8,155.6 756.7,156.1 756.7,160.9 							"/>
							<polygon class="st20" points="757.3,155.8 757.3,160.6 756.7,160.9 756.7,156.1 							"/>
						</g>
						<g>
							<polygon class="st19" points="761.6,153.4 762.1,153.1 761.2,152.5 760.6,152.8 							"/>
							<polygon class="st21" points="760.6,157.6 760.6,152.8 761.6,153.4 761.6,158.2 							"/>
							<polygon class="st20" points="762.1,153.1 762.1,157.9 761.6,158.2 761.6,153.4 							"/>
						</g>
						<g>
							<polygon class="st19" points="766.4,150.6 766.9,150.3 766,149.8 765.4,150.1 							"/>
							<polygon class="st21" points="765.4,154.9 765.4,150.1 766.4,150.6 766.4,155.4 							"/>
							<polygon class="st20" points="766.9,150.3 766.9,155.1 766.4,155.4 766.4,150.6 							"/>
						</g>
						<g>
							<polygon class="st19" points="771.2,147.8 771.7,147.5 770.8,147 770.3,147.3 							"/>
							<polygon class="st21" points="770.3,152.1 770.3,147.3 771.2,147.8 771.2,152.6 							"/>
							<polygon class="st20" points="771.7,147.5 771.7,152.3 771.2,152.6 771.2,147.8 							"/>
						</g>
						<g>
							<polygon class="st19" points="776,145.1 776.5,144.7 775.6,144.2 775.1,144.5 							"/>
							<polygon class="st21" points="775.1,149.3 775.1,144.5 776,145.1 776,149.9 							"/>
							<polygon class="st20" points="776.5,144.7 776.5,149.5 776,149.9 776,145.1 							"/>
						</g>
						<g>
							<polygon class="st19" points="780.8,142.3 781.3,142 780.4,141.4 779.9,141.8 							"/>
							<polygon class="st21" points="779.9,146.6 779.9,141.8 780.8,142.3 780.8,147.1 							"/>
							<polygon class="st20" points="781.3,142 781.3,146.8 780.8,147.1 780.8,142.3 							"/>
						</g>
						<g>
							<polygon class="st19" points="785.6,139.5 786.2,139.2 785.2,138.7 784.7,139 							"/>
							<polygon class="st21" points="784.7,143.8 784.7,139 785.6,139.5 785.6,144.3 							"/>
							<polygon class="st20" points="786.2,139.2 786.2,144 785.6,144.3 785.6,139.5 							"/>
						</g>
						<g>
							<polygon class="st19" points="790.4,136.7 791,136.4 790,135.9 789.5,136.2 							"/>
							<polygon class="st21" points="789.5,141 789.5,136.2 790.4,136.7 790.4,141.5 							"/>
							<polygon class="st20" points="791,136.4 791,141.2 790.4,141.5 790.4,136.7 							"/>
						</g>
						<g>
							<polygon class="st19" points="795.2,134 795.8,133.6 794.9,133.1 794.3,133.4 							"/>
							<polygon class="st21" points="794.3,138.2 794.3,133.4 795.2,134 795.2,138.8 							"/>
							<polygon class="st20" points="795.8,133.6 795.8,138.4 795.2,138.8 795.2,134 							"/>
						</g>
					</g>
					<g>
						<polygon class="st19" points="742.3,163.8 795.8,133 794.9,132.5 741.4,163.3 						"/>
						<polygon class="st21" points="741.4,163.9 741.4,163.3 742.3,163.8 742.3,164.5 						"/>
						<polygon class="st20" points="795.8,133 795.8,133.7 742.3,164.5 742.3,163.8 						"/>
					</g>
					<g>
						<g>
							<polygon class="st19" points="742.3,159 742.9,158.7 742,158.2 741.4,158.5 							"/>
							<polygon class="st21" points="741.4,163.3 741.4,158.5 742.3,159 742.3,163.8 							"/>
							<polygon class="st20" points="742.9,158.7 742.9,163.5 742.3,163.8 742.3,159 							"/>
						</g>
						<g>
							<polygon class="st19" points="747.1,156.3 747.7,156 746.8,155.4 746.2,155.7 							"/>
							<polygon class="st21" points="746.2,160.6 746.2,155.7 747.1,156.3 747.1,161.1 							"/>
							<polygon class="st20" points="747.7,156 747.7,160.8 747.1,161.1 747.1,156.3 							"/>
						</g>
						<g>
							<polygon class="st19" points="751.9,153.5 752.5,153.2 751.6,152.7 751,153 							"/>
							<polygon class="st21" points="751,157.8 751,153 751.9,153.5 751.9,158.3 							"/>
							<polygon class="st20" points="752.5,153.2 752.5,158 751.9,158.3 751.9,153.5 							"/>
						</g>
						<g>
							<polygon class="st19" points="756.7,150.7 757.3,150.4 756.4,149.9 755.8,150.2 							"/>
							<polygon class="st21" points="755.8,155 755.8,150.2 756.7,150.7 756.7,155.5 							"/>
							<polygon class="st20" points="757.3,150.4 757.3,155.2 756.7,155.5 756.7,150.7 							"/>
						</g>
						<g>
							<polygon class="st19" points="761.6,148 762.1,147.6 761.2,147.1 760.6,147.4 							"/>
							<polygon class="st21" points="760.6,152.2 760.6,147.4 761.6,148 761.6,152.8 							"/>
							<polygon class="st20" points="762.1,147.6 762.1,152.4 761.6,152.8 761.6,148 							"/>
						</g>
						<g>
							<polygon class="st19" points="766.4,145.2 766.9,144.9 766,144.3 765.4,144.7 							"/>
							<polygon class="st21" points="765.4,149.5 765.4,144.7 766.4,145.2 766.4,150 							"/>
							<polygon class="st20" points="766.9,144.9 766.9,149.7 766.4,150 766.4,145.2 							"/>
						</g>
						<g>
							<polygon class="st19" points="771.2,142.4 771.7,142.1 770.8,141.6 770.3,141.9 							"/>
							<polygon class="st21" points="770.3,146.7 770.3,141.9 771.2,142.4 771.2,147.2 							"/>
							<polygon class="st20" points="771.7,142.1 771.7,146.9 771.2,147.2 771.2,142.4 							"/>
						</g>
						<g>
							<polygon class="st19" points="776,139.6 776.5,139.3 775.6,138.8 775.1,139.1 							"/>
							<polygon class="st21" points="775.1,143.9 775.1,139.1 776,139.6 776,144.4 							"/>
							<polygon class="st20" points="776.5,139.3 776.5,144.1 776,144.4 776,139.6 							"/>
						</g>
						<g>
							<polygon class="st19" points="780.8,136.9 781.3,136.5 780.4,136 779.9,136.3 							"/>
							<polygon class="st21" points="779.9,141.1 779.9,136.3 780.8,136.9 780.8,141.7 							"/>
							<polygon class="st20" points="781.3,136.5 781.3,141.4 780.8,141.7 780.8,136.9 							"/>
						</g>
						<g>
							<polygon class="st19" points="785.6,134.1 786.2,133.8 785.2,133.3 784.7,133.6 							"/>
							<polygon class="st21" points="784.7,138.4 784.7,133.6 785.6,134.1 785.6,138.9 							"/>
							<polygon class="st20" points="786.2,133.8 786.2,138.6 785.6,138.9 785.6,134.1 							"/>
						</g>
						<g>
							<polygon class="st19" points="790.4,131.3 791,131 790,130.5 789.5,130.8 							"/>
							<polygon class="st21" points="789.5,135.6 789.5,130.8 790.4,131.3 790.4,136.1 							"/>
							<polygon class="st20" points="791,131 791,135.8 790.4,136.1 790.4,131.3 							"/>
						</g>
						<g>
							<polygon class="st19" points="795.2,128.6 795.8,128.2 794.9,127.7 794.3,128 							"/>
							<polygon class="st21" points="794.3,132.8 794.3,128 795.2,128.6 795.2,133.4 							"/>
							<polygon class="st20" points="795.8,128.2 795.8,133 795.2,133.4 795.2,128.6 							"/>
						</g>
					</g>
					<g>
						<polygon class="st19" points="742.3,158.4 795.8,127.6 794.9,127.1 741.4,157.9 						"/>
						<polygon class="st21" points="741.4,158.5 741.4,157.9 742.3,158.4 742.3,159 						"/>
						<polygon class="st20" points="795.8,127.6 795.8,128.3 742.3,159 742.3,158.4 						"/>
					</g>
				</g>
			</g>
		</g>
	</g>
	<g>
		<g>
			<polygon class="st10" points="608.7,175.3 609.8,174.7 608.7,174 607.6,174.7 			"/>
			<polygon class="st21" points="608.7,194.6 608.7,175.3 607.6,174.7 607.6,193.9 			"/>
			<polygon class="st20" points="608.7,194.6 608.7,175.3 609.8,174.7 609.8,193.9 			"/>
		</g>
		<g>
			<polygon class="st10" points="622.9,167.1 623.9,166.4 622.9,165.8 621.8,166.4 			"/>
			<polygon class="st21" points="622.9,186.4 622.9,167.1 621.8,166.4 621.8,185.7 			"/>
			<polygon class="st20" points="622.9,186.4 622.9,167.1 623.9,166.4 623.9,185.7 			"/>
		</g>
		<g>
			<g>
				<polygon class="st10" points="637,193.5 638.1,192.8 637,192.2 635.9,192.8 				"/>
				<polygon class="st6" points="637,211.4 637,193.5 635.9,192.8 635.9,210.8 				"/>
				<polygon class="st12" points="637,211.4 637,193.5 638.1,192.8 638.1,210.8 				"/>
			</g>
			<g>
				<polygon class="st6" points="622.8,204.5 622.8,205.7 621.8,205.1 621.8,203.8 				"/>
				<polygon class="st6" points="637,196.3 622.8,204.5 621.8,203.8 635.9,195.7 				"/>
				<polygon class="st12" points="637,196.3 622.8,204.5 622.8,205.7 637,197.6 				"/>
			</g>
			<g>
				<polygon class="st6" points="622.8,211.9 622.8,213.1 621.8,212.5 621.8,211.3 				"/>
				<polygon class="st6" points="637,203.7 622.8,211.9 621.8,211.3 635.9,203.1 				"/>
				<polygon class="st12" points="637,203.8 622.8,211.9 622.8,213.1 637,205 				"/>
			</g>
			<g>
				<polygon class="st10" points="622.8,201.7 623.9,201.1 622.8,200.4 621.8,201.1 				"/>
				<polygon class="st6" points="622.8,219.7 622.8,201.7 621.8,201.1 621.8,219 				"/>
				<polygon class="st12" points="622.8,219.7 622.8,201.7 623.9,201.1 623.9,219 				"/>
			</g>
		</g>
		<g>
			<polygon class="st10" points="637,175.3 638.1,174.6 637,174 635.9,174.6 			"/>
			<polygon class="st21" points="637,193.5 637,175.3 635.9,174.6 635.9,192.8 			"/>
			<polygon class="st20" points="637,193.5 637,175.3 638.1,174.6 638.1,192.8 			"/>
		</g>
		<g>
			<polygon class="st6" points="622.8,197.3 622.8,198.6 621.8,198 621.8,196.7 			"/>
			<polygon class="st19" points="637,189.2 622.8,197.3 621.8,196.7 635.9,188.6 			"/>
			<polygon class="st20" points="637,189.2 622.8,197.3 622.8,198.6 637,190.4 			"/>
		</g>
		<g>
			<polygon class="st20" points="637,174 637,175.3 638.1,174.7 638.1,173.4 			"/>
			<polygon class="st19" points="621.7,165.2 637,174 638.1,173.4 622.8,164.6 			"/>
			<polygon class="st21" points="621.8,165.3 637,174 637,175.3 621.8,166.5 			"/>
		</g>
		<g>
			<polygon class="st10" points="622.8,183.5 623.9,182.9 622.9,182.2 621.8,182.9 			"/>
			<polygon class="st21" points="622.8,201.7 622.8,183.5 621.8,182.9 621.8,201.1 			"/>
			<polygon class="st20" points="622.8,201.7 622.8,183.5 623.9,182.9 623.9,201.1 			"/>
		</g>
		<g>
			<polygon class="st20" points="622.8,182.2 622.8,183.5 623.9,182.9 623.9,181.6 			"/>
			<polygon class="st19" points="607.6,173.4 622.8,182.2 623.9,181.6 608.7,172.8 			"/>
			<polygon class="st21" points="607.6,173.5 622.8,182.2 622.8,183.5 607.6,174.7 			"/>
		</g>
	</g>
</g>
<g>
	<g>
		<g class="st22">
			<defs>
				<polygon id="SVGID_5_" class="st22" points="618.2,236 617.7,64.7 731.7,-1.1 732.1,170.1 				"/>
			</defs>
			<clipPath id="SVGID_6_">
				<use xlink:href="#SVGID_5_"  style="overflow:visible;"/>
			</clipPath>
			<g class="st23">
				<g>
					<g>
						<g>
							<path class="st24" d="M634.1,118.5L634,69.7l5.5-3.2c4.8-2.8,8.5-3,11-0.6c2.5,2.4,3.8,7.3,3.8,14.8l0,3.4
								c0,7.5-1.2,13.9-3.7,19.2c-2.5,5.3-6.1,9.3-10.7,11.9L634.1,118.5 M639.4,52.1l-21.8,12.6l0.2,77.7l22.2-12.8
								c5.8-3.4,11.1-8.1,15.9-14c4.7-5.9,8.4-12.5,11-19.6c2.6-7.1,3.9-14.3,3.9-21.4l0-3.6c-0.1-7-1.4-12.6-4.1-16.7
								s-6.4-6.4-11.2-6.7C650.8,47.1,645.4,48.7,639.4,52.1"/>
							<polyline class="st24" points="725.8,2.3 679.1,29.2 679.3,106.8 725.9,80 725.9,65.6 695.6,83 695.5,64.5 721.2,49.7 
								721.1,35.8 695.5,50.6 695.5,34.2 725.8,16.7 725.8,2.3 							"/>
							<polyline class="st24" points="664.6,131.4 617.9,158.3 618.2,236 664.7,209.1 664.7,194.7 634.4,212.1 634.4,193.6 
								660,178.8 659.9,164.9 634.3,179.7 634.3,163.3 664.6,145.8 664.6,131.4 							"/>
							<path class="st24" d="M695.1,150.6l-0.1-22.4l10.9-6.3c2.9-1.7,5.3-1.9,7-0.7c1.7,1.2,2.6,3.6,2.6,7.2c0,3.3-0.8,6.3-2.5,9.1
								c-1.6,2.8-4.1,5.1-7.2,6.9L695.1,150.6 M705.7,107.6l-27,15.6l0.2,77.7l16.3-9.4l-0.1-26.4l10.4-6c8.2-4.8,14.7-10.8,19.4-18
								c4.7-7.3,7-14.7,7-22.2c0-5.1-1.1-9.1-3.3-11.8c-2.2-2.8-5.3-4.1-9.3-4C715.4,103.1,710.9,104.6,705.7,107.6"/>
						</g>
					</g>
				</g>
			</g>
		</g>
	</g>
</g>
<path class="st25" d="M617.8,237l0.6-20.9c0,0,5.2-11.2,31.7-15.7s30.4-4.5,39-15.2c8.6-10.7,28.1-5.9,28.1-5.9L617.8,237z"/>
<rect x="606.5" y="230.6" transform="matrix(0.866 0.5 -0.5 0.866 199.247 -277.2213)" class="st13" width="20.9" height="5.2"/>
<g>
	<path class="st26" d="M423.6,199.2c0,0,0.9,4.7,5.5,9.6c2.7,2.8,12.2,0.8,16.7,8.5c3.9,6.7,3.3,16.7,3.3,16.7l22.2-12.9
		c0,0,0.5-9.3-5.5-15.6c-4-4.2-13.2-2.1-18.3-7.2c-2.3-2.3-5.5-6.9-5.5-6.9L423.6,199.2z"/>
	<path class="st27" d="M425.3,200.1c0,0,1.1,3.9,5.2,7.8c2.4,2.3,13.1,0.8,16.9,7.3c3.4,5.7,3.5,15.4,3.5,15.4l18.9-10.8
		c0,0-0.6-8.8-5.6-14c-3.4-3.6-13.1-2-17.5-6.3c-2-1.9-4.8-6.7-4.8-6.7L425.3,200.1z"/>
	<path class="st26" d="M426.8,200.8c0,0,0.8,2.8,4.7,6.2c3.5,3.1,13.3,0.6,16.8,7.1c3.1,5.8,3.7,14,3.7,14l16.2-9.3
		c0,0-0.1-6.8-4.7-12.1c-3.1-3.6-14.2-2.6-18-7.1c-1.8-2.2-3.8-5.5-3.8-5.5L426.8,200.8z"/>
	<path class="st27" d="M443.5,210.8c-1.8-0.8-3.7-2.7-0.3-4.9c3.9-2.6,8.8-3.3,12.4-2.7c3.6,0.6,5.8,3.2,1.3,6
		c-4.5,2.8-8.5,3.6-10.1,3.2C445.1,212.1,443.5,210.8,443.5,210.8z"/>
	<path class="st27" d="M440.8,200.9c0.2,0.7-0.2,1.4-1,1.7c-0.8,0.3-1.6-0.1-1.9-0.7c-0.2-0.7,0.2-1.4,1-1.7
		C439.8,199.9,440.6,200.3,440.8,200.9z"/>
	<path class="st27" d="M461.4,215.9c0.3,0.8-0.1,1.7-0.9,2c-0.8,0.3-1.7-0.2-1.9-1c-0.3-0.8,0.1-1.7,0.9-2
		C460.3,214.6,461.1,215,461.4,215.9z"/>
	<path class="st26" d="M454.2,204.9l0.7-0.4l-1.2-0.6l-0.7,0.5c-0.6-0.2-1.2-0.2-1.7-0.2c-1.2,0.1-3.9,0.9-3.2,2.1
		c0.6,1,3,1.8,1,2.7c-1,0.4-2.8-0.3-2.8-1c0-0.6,0.4-0.9,0.4-0.9l-0.9-0.7c0,0-2.3,1.6-0.3,3.3c0,0,0,0,0,0l-0.8,0.5l1.1,0.6
		l0.7-0.5c1.3,0.5,3.1,0.4,4.2-0.2c1.3-0.7,1.1-2.1,0.3-2.7c-0.8-0.6-1.8-1.2-1-1.7c0.7-0.5,2-0.7,2.8-0.2c0.8,0.5,0.2,1.4,0.2,1.4
		l1.3,0.6c0,0,1.1-0.9,0.6-1.9C454.8,205.3,454.5,205,454.2,204.9z"/>
</g>
<g>
	<path class="st28" d="M485.3,73.9l-10.2,10.8l-0.8,1.3c-1.3,2.4-2,4.5-1.1,9c0.9,4.4,6.9,10.3,6.9,10.3s0.6-4.1,4-8.6
		c3.4-4.5,5.4-5.6,5.4-5.6s-4.6-3.3-5.4-6.9C483,79.8,485.3,73.9,485.3,73.9z"/>
	<g>
		<path class="st29" d="M479.7,103.2l-0.5-0.5c0,0-0.9-1-2-2.4c-1.4-1.9-2.5-3.8-3-5.5c-1.1-3.4-0.3-7.5,2.4-12l0.5,0.3
			c-2.5,4.3-3,8.2-2,11.4c1,3,3.4,5.9,4.4,7.1c0.6-1.2,1.9-3.6,2.8-5.1c1.4-2.1,3.7-4.3,4.5-5.1c-0.7-0.7-2.2-2.3-3.2-4.1
			c-1.2-2-1.3-4-1.3-5.2c0.1-1.4,0.4-2.3,0.4-2.3l0.9,0.3c0,0-0.3,0.8-0.4,2.1c-0.1,1.7,0.3,3.2,1.1,4.7c1.3,2.2,3.4,4.2,3.4,4.2
			l0.4,0.4l-0.4,0.3c0,0-3.1,2.8-4.8,5.3c-1.2,1.8-3.1,5.5-3.1,5.6L479.7,103.2z"/>
	</g>
	<path class="st29" d="M476,84.2c-0.7,1.3,0.1,4.7,2.9,2.4c3-2.5,3.8-4.8,4.1-6.1c0.3-1.3-4.5,1.1-4.5,1.1L476,84.2z"/>
	<path class="st26" d="M474.3,86c0,0,1.6-3.1,8.6-4.8c4.5-1.1,15.5-0.6,15.5-0.6s-1-2.8-0.7-6.3c0.5-5.7,1.5-8.4,1.5-8.4
		s-5.6-0.2-9.8,2.5C479.2,75.1,474.3,86,474.3,86z"/>
	<path class="st27" d="M498,67.4l0.3-0.7l-0.8,0.1c-0.2,0-4.8,0.6-8.7,2.5c-0.6,0.3-1.1,0.6-1.7,0.9c-1.7,1.3-3.3,2.8-4.7,4.2
		c1.5-1.3,3.2-3.3,6.9-4.7c3-1.1,6.1-1.7,7.6-2c-0.4,1.1-1,3.2-1.1,5.8c-0.1,2.1,0.1,4.3,0.2,5.3c-2.1-0.1-10.1-0.3-13,0.4
		c-2.6,0.7-4.9,1.9-6.3,2.8c0,0,0,0,0,0c-0.4,0.6-0.7,1.2-1,1.7c1.4-1,4.2-2.8,7.6-3.6c3.2-0.8,13.2-0.4,13.3-0.4l0.5,0l-0.1-0.5
		c0,0-0.3-3-0.2-5.6C496.8,70.1,498,67.4,498,67.4z"/>
	<path class="st27" d="M476.6,82c0.8-0.4,4.7-3.1,6.3-5.8c1.6-2.7,1.6-3.6,0.6-2.8c-1,0.8-2,1.7-3.7,3.9C478,79.6,476.6,82,476.6,82
		z"/>
	<path class="st27" d="M491.4,72.9c-0.1,0.7-0.6,1.2-1,1.2c-0.5-0.1-0.8-0.7-0.7-1.4c0.1-0.7,0.6-1.2,1-1.2
		C491.2,71.6,491.5,72.2,491.4,72.9z"/>
	<path class="st29" d="M481.2,92.2c-0.5,0.5-1.2,0.7-1.5,0.3c-0.3-0.3-0.2-1,0.3-1.5c0.5-0.5,1.2-0.7,1.5-0.3
		C481.9,91,481.7,91.6,481.2,92.2z"/>
</g>
<g>
	<path class="st28" d="M385.3,152c1.1,0.1,3.8,0.6,9.1-2.2c3.4-1.8,6.6-5.4,6.6-5.4l-26.5-5.2l-6.5,7.1L385.3,152z"/>
	<g>
		<path class="st29" d="M383.6,151.5c-1.9,0-3.1-0.2-3.2-0.2l0.2-1.2c0,0,1.4,0.2,3.4,0.2c1.8,0,4.4-0.3,6.9-1.4
			c2.1-0.9,4.4-2.5,5.6-3.5c-4.9-0.9-20.2-3.9-20.5-4l0.3-1.1l0,0c0.4,0.1,14.3,2.8,21.7,4.2l1.2,0.2l-0.9,0.8
			c-0.1,0.1-3.5,3-6.8,4.5c-2.7,1.2-5.5,1.4-7.5,1.5C383.9,151.5,383.7,151.5,383.6,151.5z"/>
	</g>
	<path class="st26" d="M346.3,119c0,0,3.8,4.1,4.8,8.9c0.5,2.5,1,7.8,2.4,13.5c1.3,5.2,5.1,7.4,5.1,7.4l26.7,3.2
		c0,0-5.5-2.1-8.2-9.6c-1.5-4.2-2.6-13.6-3.4-16.3c-1.5-5.1-5-6.5-5-6.5L346.3,119z"/>
	<path class="st27" d="M377.5,146.3c-2.7-4.6-3.6-9.9-4.4-15.1c-0.3-1.9-0.6-3.6-1-5.4c-0.9-4.1-4.1-5.1-4.2-5.2l-0.1,0l-19.5-0.6
		l0.7,1c0,0,2.7,4,3.1,6.5c0.7,4.8,1.4,9.1,2.2,12.4c0.9,3.6,2,6,3.5,7.5c0.5,0.5,1,1,1.5,1.4l2.1,0.2c-0.7-0.4-1.4-1.3-2.6-2.5
		c-2.8-2.9-4-9.2-5.4-19.3c-0.3-1.9-1.8-4.6-2.6-6l16.6,0.5c0.2,0.1,0.7,0.3,1.3,0.8c1,0.8,1.6,2,1.9,3.4c0.4,1.7,0.7,3.4,1,5.3
		c0.4,2.6,0.9,5.2,1.5,7.8c0.8,3,1.8,5.5,3,7.6c1.1,1.9,2.5,3.4,3.7,4.5l2.5,0.3C381.2,150.7,379,148.9,377.5,146.3z"/>
	<path class="st27" d="M377.6,148.3c-1.5-2.4-5-7.1-14.3-6.6c-7.1,0.4-6.2,3.9-4.9,5.4c0.5,0.6,1.4,1.4,2.6,2l14.5,1.7
		C376.5,150.9,378.4,149.7,377.6,148.3z"/>
	<path class="st27" d="M365,131.1c0,0.9-1.2,1.6-2.6,1.6s-2.6-0.7-2.6-1.6c0-0.9,1.2-1.6,2.6-1.6S365,130.2,365,131.1z"/>
	<path class="st29" d="M384.3,147c-0.2,0.6-1.5,0.8-2.9,0.4c-1.4-0.4-2.3-1.3-2.1-1.9c0.2-0.6,1.5-0.8,2.9-0.4
		S384.5,146.3,384.3,147z"/>
	<path class="st26" d="M369.8,150.2l3.5,0.4c0.2-0.3,0.3-0.8,0.4-1.3l1.1,0.1l-0.1-1.5l-1.1,0c-0.2-2.1-1.1-3.5-3.5-3.6
		c-3.2-0.1-3.5,2.1-4.1,3.3c-0.6,1.1-0.8,1.9-1.7,1.9c-0.9-0.1-1.4-0.5-1.5-1.6c-0.1-2,1.3-1.7,1.3-1.7l0-1.9c0,0-3.3-0.2-3.5,2.9
		l-1,0l0,1.3l1,0.1c0,0.2,0.1,0.5,0.2,0.7l6.4,0.8c0.3-0.4,0.4-0.9,0.5-1.3c0.5-1.3,0.9-2.2,1.9-2.2c1.2,0,1.8,0.8,1.7,2.1
		C371.3,149.7,370.4,150.1,369.8,150.2z"/>
</g>
<g>
	<g>
		<g>
			<path class="st30" d="M596.3,133.6c-0.8-0.1-2.1-0.7-2.4-0.7c-0.5,0-1.1-0.1-2.5-0.5c-1.1-0.3-0.8-0.5-1.5-0.5
				c-1.3,0-2.1-0.2-2.5-0.4c0.1,1,1.1,2.9,0.5,3.8c0.5,0.7,0.8,2.3-0.6,3c-0.3,0.1-0.7,0.2-1.7-0.1c-1.4-0.4-1.3,0.4-2.9,0.5
				c-0.9,0-1,0.5-2.3,0.7c-0.4,0.1-1.2-0.8-0.9-1.5c-0.3,0.3-1.7,0-1.8-1.7c0-0.4-3.5,0.8-6.1-1.2c-0.1-0.1-0.3-0.1-0.4,0.3
				c0,0-0.6,1.8-1.4,2c-0.9,0.1-1.3-0.5-1.6,0.3c-0.7,1.7-0.6,1.1-1.6,0.9c0,0-0.6-0.1-1.6-0.3c-1-0.2-2.4-0.4-4.2-0.7
				c-0.2,0-0.4-0.1-0.7-0.1c-0.4-0.1-0.8-0.1-1.2-0.2c-0.8-0.1-1.5-0.2-2.3-0.3c-1.6-0.2-3.1-0.3-4.7-0.5c-1.6-0.1-3.3-0.2-4.9-0.3
				c-6.7-0.3-13.9-0.1-21.4,0.6c-15,1.3-31.3,4.9-47.5,10.3c-16.3,5.4-32.6,12.6-47.9,21c-7.7,4.2-15.1,8.6-22.3,13.3
				c-1.8,1.2-3.6,2.3-5.3,3.5c-1.7,1.2-3.5,2.4-5.2,3.6c-1.9,1.3-3.7,2.5-5.6,3.7c-1.9,1.2-3.8,2.4-5.7,3.5
				c-15.2,8.8-31.6,14.2-46.5,15.2c-3.7,0.3-7.3,0.3-10.8,0.2c-3.5-0.2-6.8-0.5-9.9-1.1c-6.3-1-11.7-2.7-16.4-4.5
				c-4.7-1.9-7.7-3.5-9.5-4.6c-1.9-1.1-2.6-1.7-3.1-2l9.1-12.1c0,0,0.5,0.4,1.8,1.1c1.3,0.8,3.6,2,7.3,3.5c7.6,3,18.4,5.4,31,4.3
				c12.6-1.1,26.9-5.7,40.6-13.9c1.7-1.1,3.4-2.1,5.1-3.2c1.7-1.2,3.4-2.3,5.2-3.5c1.8-1.2,3.6-2.5,5.5-3.8c1.9-1.2,3.7-2.5,5.6-3.7
				c7.6-4.9,15.5-9.6,23.7-14c16.3-8.8,33.7-16.3,51.2-21.9c17.5-5.6,35.1-9.2,51.6-10.4c2.1-0.1,4.1-0.3,6.1-0.4c2-0.1,4-0.1,6-0.2
				c2,0,3.9,0.1,5.9,0.1c1.9,0,3.8,0.2,5.7,0.3c1.9,0.1,3.7,0.3,5.5,0.5c0.9,0.1,1.8,0.2,2.7,0.3c0.4,0,0.9,0.1,1.3,0.2
				c0.4,0.1,0.8,0.1,1.1,0.2c0.5,0.1,1,0.2,1.5,0.2c2,0.3,3.6,0.5,4.7,0.8c1.1,0.2,1.8,0.3,1.8,0.4c1.1,0.2,0.2,0.8,1.2,1
				c1.4,0.2,1.7,0.1,2,0.9c0.1,0.5,0.4,0.4,0.5,0.4c2-0.4,3.9-0.7,5.5-1c1.6-0.3,2.8-0.3,3.4-0.4c0.7-0.1,1.3,0.5,2.1,0.8
				c2.1,0.8,2.7,1.2,3.5,1.6c0.9,0.3,1.7,0.7,2.5,0.9c0.6,0.2,0.6,0.3,0.8,0.4c0.4,0.2,0.4,0,0.6,0.1c1,0.8,1.8,0.9,2.8,1.5
				c0.8,0.2,1.3,0.6,1.6,0.7c0.9,0.2,1.8,1,2.4,1.2c0.4,0.2,0.4,0.2,0.4,0.3C599.2,132.3,598.7,134.3,596.3,133.6z M570.6,130.9
				c0.5-2.6,0.7-3.3,1.2-4.6c0.1-0.3,0.5-0.7,0-0.8c-1.6-0.4-2-0.6-2.5,0.5c-0.6,1.3-1.7,6.8-1.9,9.7c0.1,0.3-0.3,0.6,1.6,0.9
				c0.5,0.1,0.6-0.2,0.8-0.6C570,135.5,570.1,133.4,570.6,130.9z M586.3,136.2c-0.5-0.1-0.6,0-1,0.4c-0.4,0.5,0.7,0.8,1.1,0.8
				c0.4,0,0.9,0.2,1.1,0.1C587.9,137.1,586.8,136.3,586.3,136.2z M598,132.8c-0.1,0-0.1,0-0.3-0.1c-1.7-0.6-1.5-0.9-1.6-1.5
				c-0.1-0.5-0.8-0.3-3.2-1.6c-1.2-0.6-1-0.3-1.4-0.2c-0.5-0.1-0.2-0.7-1.6-1.1c-4.2-1.4-3.5-1.7-6.7-2.8c-0.6-0.2-1.7-0.2-3.3,0
				c-1.6,0.3-3.6,0.6-6,1c-1.2,0.2-1.5-0.2-2.1,1.7c-0.4,1.7-0.1,2.4,1.1,2.9c3.5,1.1,2.4,0.8,5,1.2c0.3,0,0.4,0.1,0.6,0.3
				c0.5,0.5,0.6,1.1,2.1,1.2c1.1,0.1,0.8,0.1,1.4,0.4c0.3-0.1,0.6,0.1,0.8,0.3c0.4-0.1,0.6,0,1.1,0.2c1.6,0.5,1.1,0.6,1.6,0.8
				c0.3,0.2,0.4-0.1,1.1,0c0.3,0.1,0.4,0.1,0.6,0.2c0.2,0.1,0.3,0.2,0.5,0c0.4-0.4-1.6-2.1-2.7-2.4c-0.6-0.1-1.2,0.2-1.3-0.2
				c-0.2-0.5-0.8-0.2-2.2-1.3c-0.4-0.3-1.4-1.3-1.7-1.8c-0.2-0.4-0.9-1-1.4-1.1c-0.3,0-0.5-0.3-0.2-0.4c1.2-0.4,2,1.5,2.8,1.2
				c0.5-0.2,0.2-1.1,0.2-1.2c0-0.3,0.1-0.5,0.3-0.5c0.4,0.1,0.5,1.6,1,1.4c1-0.4,0.4-1.2,0.9-1.3c0.2-0.1,0,0.2,1.7,1
				c1.4,0.6,2.5,0.7,3,0.6c0.5-0.1,0.7,0.2,1.2,0.5c0.4,0.2,1.6,0.7,2.4,0.7c0.2,0.1,0.6,0.2,1.2,0.6c1.5,0.6,1.1,0.1,2,0.6
				c1.5,0.9,3,0.9,3.3,0.8C598.2,133,598.2,132.9,598,132.8z M596.8,131.9c-0.3-0.2-0.3-0.7,0-0.7l1.7,0.9c0,0,0,0.1,0,0.1
				C598.4,132.9,597.2,132.2,596.8,131.9z"/>
			<path class="st13" d="M598.5,132.2l-1.7-0.9c-0.3,0-0.3,0.5,0,0.7C597.2,132.2,598.4,132.9,598.5,132.2
				C598.6,132.2,598.6,132.2,598.5,132.2z"/>
			<path class="st31" d="M598,132.8c-0.1,0-0.1,0-0.3-0.1c-1.7-0.6-1.5-0.9-1.6-1.5c-0.1-0.5-0.8-0.3-3.2-1.6
				c-1.2-0.6-1-0.3-1.4-0.2c-0.5-0.1-0.2-0.7-1.6-1.1c-4.2-1.4-3.5-1.7-6.7-2.8c-0.6-0.2-1.7-0.2-3.3,0c-1.6,0.3-3.6,0.6-6,1
				c-1.2,0.2-1.5-0.2-2.1,1.7c-0.4,1.7-0.1,2.4,1.1,2.9c3.5,1.1,2.4,0.8,5,1.2c0.3,0,0.4,0.1,0.6,0.3c0.5,0.5,0.6,1.1,2.1,1.2
				c1.1,0.1,0.8,0.1,1.4,0.4c0.3-0.1,0.6,0.1,0.8,0.3c0.4-0.1,0.6,0,1.1,0.2c1.6,0.5,1.1,0.6,1.6,0.8c0.3,0.2,0.4-0.1,1.1,0
				c0.3,0.1,0.4,0.1,0.6,0.2c0.2,0.1,0.3,0.2,0.5,0c0.4-0.4-1.6-2.1-2.7-2.4c-0.6-0.1-1.2,0.2-1.3-0.2c-0.2-0.5-0.8-0.2-2.2-1.3
				c-0.4-0.3-1.4-1.3-1.7-1.8c-0.2-0.4-0.9-1-1.4-1.1c-0.3,0-0.5-0.3-0.2-0.4c1.2-0.4,2,1.5,2.8,1.2c0.5-0.2,0.2-1.1,0.2-1.2
				c0-0.3,0.1-0.5,0.3-0.5c0.4,0.1,0.5,1.6,1,1.4c1-0.4,0.4-1.2,0.9-1.3c0.2-0.1,0,0.2,1.7,1c1.4,0.6,2.5,0.7,3,0.6
				c0.5-0.1,0.7,0.2,1.2,0.5c0.4,0.2,1.6,0.7,2.4,0.7c0.2,0.1,0.6,0.2,1.2,0.6c1.5,0.6,1.1,0.1,2,0.6c1.5,0.9,3,0.9,3.3,0.8
				C598.2,133,598.2,132.9,598,132.8z"/>
			<path class="st31" d="M586.3,136.2c-0.5-0.1-0.6,0-1,0.4c-0.4,0.5,0.7,0.8,1.1,0.8c0.4,0,0.9,0.2,1.1,0.1
				C587.9,137.1,586.8,136.3,586.3,136.2z"/>
			<path class="st13" d="M571.7,126.2c0.1-0.3,0.5-0.7,0-0.8c-1.6-0.4-2-0.6-2.5,0.5c-0.6,1.3-1.7,6.8-1.9,9.7
				c0.1,0.3-0.3,0.6,1.6,0.9c0.5,0.1,0.6-0.2,0.8-0.6c0.2-0.5,0.3-2.6,0.8-5.1C571.1,128.3,571.3,127.6,571.7,126.2z"/>
		</g>
	</g>
</g>
<g>
	<g>
		<path class="st13" d="M6.9,298.6h6.4c1,0,2,0.1,2.9,0.3c0.9,0.2,1.6,0.5,2.2,1s1.1,1,1.4,1.6c0.3,0.7,0.5,1.4,0.5,2.3
			c0,0.6-0.1,1.1-0.3,1.6c-0.2,0.5-0.5,1-0.9,1.4c-0.2,0.2-0.5,0.4-0.7,0.6c-0.3,0.2-0.6,0.3-0.9,0.4v0c0.6,0.2,1.1,0.4,1.5,0.7
			c0.4,0.3,0.7,0.6,0.9,0.9c0.3,0.4,0.5,0.8,0.6,1.3c0.1,0.5,0.2,0.9,0.2,1.4c0,0.9-0.2,1.7-0.5,2.4s-0.8,1.3-1.4,1.8
			s-1.3,0.8-2.1,1.1c-0.8,0.2-1.8,0.4-2.8,0.4h-7V298.6z M13.4,306.7c0.6,0,1.1-0.1,1.5-0.2c0.4-0.1,0.8-0.3,1-0.6
			c0.2-0.2,0.4-0.4,0.5-0.7c0.1-0.3,0.2-0.6,0.2-1c0-0.4-0.1-0.7-0.2-1c-0.1-0.3-0.3-0.5-0.5-0.7c-0.3-0.3-0.6-0.5-1.1-0.6
			s-1-0.2-1.6-0.2h-2.7v5H13.4z M10.7,314.8h3.3c0.5,0,0.9-0.1,1.3-0.2c0.4-0.1,0.7-0.3,1-0.5c0.3-0.2,0.5-0.5,0.6-0.9
			c0.1-0.3,0.2-0.7,0.2-1.1c0-0.4-0.1-0.8-0.2-1.2c-0.1-0.3-0.3-0.6-0.5-0.9c-0.2-0.2-0.5-0.4-0.9-0.6s-0.8-0.2-1.3-0.2h-3.5V314.8z
			"/>
		<path class="st13" d="M32,317.2c-0.1-0.2-0.1-0.5-0.2-0.7c-0.2,0.2-0.4,0.4-0.7,0.6s-0.6,0.4-0.9,0.5c-0.3,0.1-0.7,0.3-1.1,0.3
			c-0.4,0.1-0.8,0.1-1.3,0.1c-0.7,0-1.4-0.1-2-0.3c-0.6-0.2-1.1-0.5-1.6-0.9s-0.8-0.8-1-1.4c-0.2-0.5-0.4-1.1-0.4-1.7
			c0-0.8,0.2-1.5,0.5-2.1c0.3-0.6,0.8-1.1,1.4-1.5c0.6-0.4,1.2-0.6,2.1-0.8c0.8-0.2,1.7-0.3,2.8-0.3h2v-0.8c0-0.3-0.1-0.6-0.2-0.9
			c-0.1-0.3-0.3-0.5-0.5-0.7c-0.2-0.2-0.5-0.4-0.8-0.5c-0.3-0.1-0.7-0.2-1.2-0.2c-0.4,0-0.7,0-1,0.1c-0.3,0.1-0.5,0.2-0.7,0.4
			c-0.2,0.1-0.3,0.3-0.3,0.5s-0.1,0.4-0.1,0.7h-3.7c0-0.6,0.1-1.2,0.4-1.7s0.7-1,1.2-1.4c0.5-0.4,1.1-0.7,1.9-1
			c0.7-0.2,1.6-0.4,2.6-0.4c0.9,0,1.7,0.1,2.4,0.3s1.4,0.5,1.9,0.9s1,0.9,1.3,1.6c0.3,0.6,0.5,1.4,0.5,2.2v6.1c0,0.8,0,1.4,0.1,1.9
			c0.1,0.5,0.2,0.9,0.4,1.3v0.2h-3.7C32.1,317.7,32,317.5,32,317.2z M29.7,315.1c0.3-0.1,0.6-0.2,0.9-0.3s0.5-0.3,0.7-0.5
			c0.2-0.2,0.3-0.4,0.4-0.5v-2.5h-1.9c-0.6,0-1.1,0.1-1.5,0.2c-0.4,0.1-0.7,0.3-1,0.5c-0.3,0.2-0.4,0.4-0.6,0.7
			c-0.1,0.3-0.2,0.6-0.2,0.9c0,0.3,0,0.5,0.1,0.7c0.1,0.2,0.2,0.4,0.4,0.5c0.2,0.1,0.4,0.3,0.7,0.3c0.3,0.1,0.6,0.1,0.9,0.1
			C29.1,315.3,29.4,315.2,29.7,315.1z"/>
		<path class="st13" d="M48.5,313.3c-0.1-0.2-0.3-0.3-0.5-0.5c-0.3-0.1-0.6-0.3-1-0.4s-1-0.2-1.6-0.4c-0.8-0.2-1.6-0.4-2.3-0.6
			c-0.7-0.2-1.3-0.6-1.8-0.9c-0.5-0.4-0.9-0.8-1.2-1.2c-0.3-0.5-0.4-1-0.4-1.6c0-0.6,0.1-1.2,0.4-1.7s0.7-1,1.2-1.4s1.2-0.7,1.9-1
			c0.8-0.2,1.6-0.4,2.6-0.4c1,0,1.9,0.1,2.7,0.3c0.8,0.2,1.5,0.6,2,1c0.5,0.4,1,0.9,1.3,1.5s0.4,1.2,0.4,1.8h-3.7
			c0-0.2,0-0.5-0.1-0.7c-0.1-0.2-0.2-0.4-0.4-0.6c-0.2-0.2-0.5-0.4-0.9-0.5s-0.8-0.2-1.4-0.2c-0.4,0-0.8,0-1.2,0.1s-0.6,0.2-0.8,0.4
			c-0.2,0.1-0.3,0.3-0.4,0.5c-0.1,0.2-0.2,0.4-0.2,0.6s0,0.4,0.1,0.6c0.1,0.2,0.2,0.3,0.5,0.5c0.2,0.1,0.5,0.3,0.9,0.4
			c0.4,0.1,0.9,0.2,1.5,0.3c0.9,0.1,1.7,0.3,2.4,0.5s1.4,0.5,1.9,0.8c0.5,0.4,1,0.8,1.3,1.3c0.3,0.5,0.5,1.1,0.5,1.8
			c0,0.6-0.2,1.2-0.5,1.7c-0.3,0.5-0.7,1-1.3,1.4c-0.6,0.4-1.2,0.7-2,0.9c-0.8,0.2-1.7,0.3-2.6,0.3c-1.1,0-2-0.1-2.8-0.4
			c-0.8-0.3-1.5-0.7-2.1-1.1c-0.6-0.4-1-1-1.3-1.5c-0.3-0.6-0.4-1.2-0.4-1.7h3.5c0,0.4,0.1,0.7,0.3,1c0.2,0.3,0.4,0.5,0.7,0.7
			c0.3,0.2,0.6,0.3,1,0.4c0.4,0.1,0.8,0.1,1.2,0.1c0.5,0,0.9,0,1.2-0.1c0.4-0.1,0.6-0.2,0.9-0.3c0.2-0.1,0.4-0.3,0.5-0.5
			c0.1-0.2,0.2-0.4,0.2-0.6C48.7,313.7,48.6,313.5,48.5,313.3z"/>
		<path class="st13" d="M59.6,317.6c-0.9-0.4-1.7-0.9-2.3-1.5c-0.6-0.6-1.1-1.3-1.5-2.2c-0.3-0.8-0.5-1.7-0.5-2.7v-0.5
			c0-1.1,0.2-2.1,0.5-3c0.3-0.9,0.8-1.7,1.4-2.3s1.3-1.2,2.2-1.5c0.8-0.4,1.8-0.5,2.8-0.5c1,0,1.9,0.2,2.7,0.5
			c0.8,0.3,1.5,0.8,2.1,1.4c0.6,0.6,1,1.4,1.3,2.2c0.3,0.9,0.4,1.8,0.4,2.9v1.6H59v0c0.1,0.6,0.3,1,0.5,1.4c0.2,0.3,0.5,0.7,0.8,0.9
			c0.3,0.3,0.7,0.5,1.1,0.7s0.9,0.2,1.4,0.2c0.7,0,1.4-0.1,2.1-0.4s1.2-0.7,1.6-1.2l1.8,2c-0.5,0.7-1.2,1.3-2.2,1.8
			c-1,0.5-2.2,0.8-3.6,0.8C61.5,318.1,60.5,317.9,59.6,317.6z M61.1,306.5c-0.3,0.1-0.6,0.4-0.9,0.6c-0.3,0.3-0.5,0.6-0.7,1
			s-0.3,0.8-0.4,1.3h6v-0.3c0-0.4-0.1-0.8-0.2-1.1s-0.3-0.6-0.6-0.9c-0.2-0.2-0.5-0.4-0.9-0.6c-0.4-0.1-0.8-0.2-1.2-0.2
			C61.8,306.3,61.4,306.3,61.1,306.5z"/>
		<path class="st13" d="M71.9,307.6c0.2-0.9,0.6-1.7,1.1-2.3c0.5-0.6,1.1-1.1,1.8-1.5s1.5-0.5,2.4-0.5c0.7,0,1.4,0.1,2,0.4
			c0.6,0.3,1.1,0.6,1.5,1.1v-7.3h3.7v20.2H81l-0.2-1.5c-0.4,0.6-1,1-1.6,1.3c-0.6,0.3-1.3,0.5-2.1,0.5c-0.9,0-1.7-0.2-2.3-0.5
			c-0.7-0.4-1.3-0.9-1.7-1.5c-0.5-0.6-0.9-1.4-1.1-2.3c-0.3-0.9-0.4-1.8-0.4-2.9v-0.3C71.5,309.5,71.6,308.5,71.9,307.6z
			 M75.3,312.5c0.1,0.5,0.3,1,0.5,1.3c0.2,0.4,0.5,0.7,0.9,0.9s0.8,0.3,1.3,0.3c0.6,0,1.2-0.1,1.6-0.4c0.4-0.3,0.7-0.6,1-1.1v-5.8
			c-0.2-0.5-0.6-0.9-1-1.1c-0.4-0.3-0.9-0.4-1.6-0.4c-0.5,0-1,0.1-1.3,0.3c-0.4,0.2-0.7,0.5-0.9,0.9c-0.2,0.4-0.4,0.9-0.5,1.4
			c-0.1,0.5-0.2,1.1-0.2,1.7v0.3C75.2,311.5,75.2,312,75.3,312.5z"/>
		<path class="st13" d="M108.1,317.8h-3.7v-19.2h6.6c1,0,2,0.2,2.8,0.5c0.8,0.3,1.6,0.7,2.2,1.3c0.6,0.5,1,1.2,1.4,2
			s0.5,1.6,0.5,2.5c0,0.9-0.2,1.7-0.5,2.4s-0.8,1.4-1.4,1.9c-0.6,0.5-1.3,1-2.2,1.3s-1.8,0.4-2.8,0.4h-2.9V317.8z M111,307.8
			c0.5,0,1-0.1,1.4-0.2s0.7-0.4,1-0.6c0.3-0.3,0.4-0.6,0.6-0.9c0.1-0.4,0.2-0.7,0.2-1.1c0-0.4-0.1-0.9-0.2-1.3
			c-0.1-0.4-0.3-0.7-0.6-1c-0.3-0.3-0.6-0.5-1-0.7c-0.4-0.2-0.8-0.2-1.4-0.2h-2.9v6.1H111z"/>
		<path class="st13" d="M120.5,307.7c0.3-0.9,0.7-1.7,1.3-2.3c0.6-0.7,1.3-1.2,2.1-1.5c0.8-0.4,1.8-0.6,2.9-0.6s2,0.2,2.9,0.6
			s1.5,0.9,2.1,1.5c0.6,0.7,1,1.4,1.3,2.3c0.3,0.9,0.4,1.8,0.4,2.9v0.3c0,1-0.1,2-0.4,2.9c-0.3,0.9-0.7,1.7-1.3,2.3
			s-1.3,1.2-2.1,1.5c-0.8,0.4-1.8,0.5-2.8,0.5c-1.1,0-2-0.2-2.9-0.5c-0.8-0.4-1.5-0.9-2.1-1.5c-0.6-0.7-1-1.4-1.3-2.3
			c-0.3-0.9-0.4-1.8-0.4-2.9v-0.3C120,309.5,120.2,308.6,120.5,307.7z M123.8,312.5c0.1,0.5,0.3,1,0.5,1.4c0.2,0.4,0.6,0.7,1,0.9
			s0.9,0.3,1.4,0.3c0.5,0,1-0.1,1.4-0.3s0.7-0.5,0.9-0.9c0.2-0.4,0.4-0.8,0.5-1.4c0.1-0.5,0.2-1.1,0.2-1.7v-0.3
			c0-0.6-0.1-1.1-0.2-1.6s-0.3-1-0.5-1.4c-0.2-0.4-0.6-0.7-0.9-0.9s-0.9-0.3-1.4-0.3c-0.5,0-1,0.1-1.4,0.3s-0.7,0.5-0.9,0.9
			s-0.4,0.9-0.5,1.4s-0.2,1.1-0.2,1.6v0.3C123.7,311.4,123.7,312,123.8,312.5z"/>
		<path class="st13" d="M135.2,303.6h3.3l1.1,8.5l0.2,1.4l0.3-1.4l1.5-8.5h2.5l1.5,8.4l0.3,1.4l0.2-1.4l1.1-8.4h3.4l-2.6,14.3h-3.2
			l-1.6-7.6l-0.3-1.5l-0.3,1.5l-1.5,7.6h-3.2L135.2,303.6z"/>
		<path class="st13" d="M156.8,317.6c-0.9-0.4-1.7-0.9-2.3-1.5c-0.6-0.6-1.1-1.3-1.5-2.2c-0.3-0.8-0.5-1.7-0.5-2.7v-0.5
			c0-1.1,0.2-2.1,0.5-3c0.3-0.9,0.8-1.7,1.4-2.3s1.3-1.2,2.2-1.5c0.8-0.4,1.8-0.5,2.8-0.5c1,0,1.9,0.2,2.7,0.5
			c0.8,0.3,1.5,0.8,2.1,1.4c0.6,0.6,1,1.4,1.3,2.2c0.3,0.9,0.4,1.8,0.4,2.9v1.6h-9.7v0c0.1,0.6,0.3,1,0.5,1.4
			c0.2,0.3,0.5,0.7,0.8,0.9c0.3,0.3,0.7,0.5,1.1,0.7s0.9,0.2,1.4,0.2c0.7,0,1.4-0.1,2.1-0.4s1.2-0.7,1.6-1.2l1.8,2
			c-0.5,0.7-1.2,1.3-2.2,1.8c-1,0.5-2.2,0.8-3.6,0.8C158.7,318.1,157.7,317.9,156.8,317.6z M158.3,306.5c-0.3,0.1-0.6,0.4-0.9,0.6
			c-0.3,0.3-0.5,0.6-0.7,1s-0.3,0.8-0.4,1.3h6v-0.3c0-0.4-0.1-0.8-0.2-1.1s-0.3-0.6-0.6-0.9c-0.2-0.2-0.5-0.4-0.9-0.6
			c-0.4-0.1-0.8-0.2-1.2-0.2C159,306.3,158.6,306.3,158.3,306.5z"/>
		<path class="st13" d="M180.9,303.4c0.5,0.1,0.9,0.2,1.1,0.2l-0.5,3.7c-0.5-0.1-1-0.2-1.5-0.3c-0.5-0.1-1-0.1-1.4-0.1
			c-0.5,0-0.9,0-1.3,0.1c-0.4,0.1-0.7,0.2-1,0.4c-0.4,0.2-0.7,0.4-0.9,0.7s-0.5,0.7-0.6,1.1v8.6H171v-14.3h3.4l0.1,2l0,0.3
			c0.6-0.8,1.3-1.4,2.1-1.9c0.8-0.5,1.7-0.7,2.6-0.7C179.9,303.3,180.4,303.3,180.9,303.4z"/>
		<path class="st13" d="M189.3,317.6c-0.9-0.4-1.7-0.9-2.3-1.5c-0.6-0.6-1.1-1.3-1.5-2.2c-0.3-0.8-0.5-1.7-0.5-2.7v-0.5
			c0-1.1,0.2-2.1,0.5-3c0.3-0.9,0.8-1.7,1.4-2.3s1.3-1.2,2.2-1.5c0.8-0.4,1.8-0.5,2.8-0.5c1,0,1.9,0.2,2.7,0.5
			c0.8,0.3,1.5,0.8,2.1,1.4c0.6,0.6,1,1.4,1.3,2.2c0.3,0.9,0.4,1.8,0.4,2.9v1.6h-9.7v0c0.1,0.6,0.3,1,0.5,1.4
			c0.2,0.3,0.5,0.7,0.8,0.9c0.3,0.3,0.7,0.5,1.1,0.7s0.9,0.2,1.4,0.2c0.7,0,1.4-0.1,2.1-0.4s1.2-0.7,1.6-1.2l1.8,2
			c-0.5,0.7-1.2,1.3-2.2,1.8c-1,0.5-2.2,0.8-3.6,0.8C191.1,318.1,190.1,317.9,189.3,317.6z M190.7,306.5c-0.3,0.1-0.6,0.4-0.9,0.6
			c-0.3,0.3-0.5,0.6-0.7,1s-0.3,0.8-0.4,1.3h6v-0.3c0-0.4-0.1-0.8-0.2-1.1s-0.3-0.6-0.6-0.9c-0.2-0.2-0.5-0.4-0.9-0.6
			c-0.4-0.1-0.8-0.2-1.2-0.2C191.4,306.3,191,306.3,190.7,306.5z"/>
		<path class="st13" d="M201.5,307.6c0.2-0.9,0.6-1.7,1.1-2.3c0.5-0.6,1.1-1.1,1.8-1.5s1.5-0.5,2.4-0.5c0.7,0,1.4,0.1,2,0.4
			c0.6,0.3,1.1,0.6,1.5,1.1v-7.3h3.7v20.2h-3.3l-0.2-1.5c-0.4,0.6-1,1-1.6,1.3c-0.6,0.3-1.3,0.5-2.1,0.5c-0.9,0-1.7-0.2-2.3-0.5
			c-0.7-0.4-1.3-0.9-1.7-1.5c-0.5-0.6-0.9-1.4-1.1-2.3c-0.3-0.9-0.4-1.8-0.4-2.9v-0.3C201.1,309.5,201.3,308.5,201.5,307.6z
			 M205,312.5c0.1,0.5,0.3,1,0.5,1.3c0.2,0.4,0.5,0.7,0.9,0.9s0.8,0.3,1.3,0.3c0.6,0,1.2-0.1,1.6-0.4c0.4-0.3,0.7-0.6,1-1.1v-5.8
			c-0.2-0.5-0.6-0.9-1-1.1c-0.4-0.3-0.9-0.4-1.6-0.4c-0.5,0-1,0.1-1.3,0.3c-0.4,0.2-0.7,0.5-0.9,0.9c-0.2,0.4-0.4,0.9-0.5,1.4
			c-0.1,0.5-0.2,1.1-0.2,1.7v0.3C204.8,311.5,204.9,312,205,312.5z"/>
		<path class="st13" d="M233.7,298.6h5c0.9,0,1.7,0.1,2.5,0.3c0.8,0.2,1.5,0.5,2.1,0.9c0.6,0.3,1,0.7,1.5,1.2c0.4,0.5,0.8,1,1.1,1.5
			c0.4,0.7,0.7,1.4,0.9,2.2c0.2,0.8,0.3,1.7,0.3,2.6v1.6c0,0.9-0.1,1.7-0.3,2.5s-0.5,1.5-0.8,2.2c-0.3,0.6-0.7,1.1-1.2,1.6
			c-0.4,0.5-0.9,0.9-1.5,1.2c-0.6,0.4-1.3,0.7-2.1,0.9c-0.8,0.2-1.6,0.3-2.4,0.3h-5.2V298.6z M237.5,314.9h1.4
			c0.5,0,0.9-0.1,1.3-0.2s0.8-0.3,1.1-0.5c0.3-0.2,0.6-0.5,0.9-0.9c0.3-0.4,0.5-0.8,0.7-1.2c0.2-0.4,0.3-0.9,0.4-1.4
			c0.1-0.5,0.1-1.1,0.1-1.6v-1.6c0-0.6,0-1.1-0.1-1.6c-0.1-0.5-0.2-1-0.4-1.4c-0.2-0.5-0.4-0.9-0.8-1.3c-0.3-0.4-0.7-0.7-1.1-0.9
			c-0.3-0.2-0.7-0.3-1-0.4c-0.4-0.1-0.8-0.2-1.2-0.2h-1.2V314.9z"/>
		<path class="st13" d="M253.9,309.4v5.4h9.2v3h-12.9v-19.2h12.9v3h-9.2v4.8h7.9v2.9H253.9z"/>
		<path class="st13" d="M276.1,298.6h4.4l-5.4,9.5l5.5,9.7h-4.3l-3.5-7l-3.5,7h-4.4l5.5-9.7l-5.4-9.5h4.3l3.4,6.9L276.1,298.6z"/>
	</g>
</g>
<g>
	<g>
		<path class="st13" d="M543.8,309.4v5.4h9.2v3h-12.9v-19.2H553v3h-9.2v4.8h7.9v2.9H543.8z"/>
		<path class="st13" d="M562.9,303.6h5.3v2.7h-5.3v6.1c0,0.5,0.1,1,0.2,1.3c0.1,0.3,0.3,0.6,0.5,0.8c0.2,0.2,0.5,0.4,0.8,0.4
			c0.3,0.1,0.7,0.1,1,0.1c0.3,0,0.6,0,0.9,0c0.3,0,0.6-0.1,0.9-0.1c0.3,0,0.5-0.1,0.7-0.1s0.4-0.1,0.6-0.1l0.4,2.5
			c-0.3,0.1-0.6,0.3-0.9,0.4c-0.3,0.1-0.7,0.2-1.1,0.3s-0.8,0.1-1.2,0.2c-0.4,0-0.8,0.1-1.2,0.1c-0.8,0-1.5-0.1-2.1-0.3
			c-0.6-0.2-1.2-0.5-1.6-1c-0.5-0.4-0.8-1-1.1-1.7c-0.2-0.7-0.4-1.5-0.4-2.4v-6.5H556v-2.7h3.3v-3.5h3.7V303.6z"/>
		<path class="st13" d="M576.3,317.6c-0.9-0.4-1.7-0.9-2.3-1.5c-0.6-0.6-1.1-1.3-1.5-2.2c-0.3-0.8-0.5-1.7-0.5-2.7v-0.5
			c0-1.1,0.2-2.1,0.5-3c0.3-0.9,0.8-1.7,1.4-2.3s1.3-1.2,2.2-1.5c0.8-0.4,1.8-0.5,2.8-0.5c1,0,1.9,0.2,2.7,0.5
			c0.8,0.3,1.5,0.8,2.1,1.4c0.6,0.6,1,1.4,1.3,2.2c0.3,0.9,0.4,1.8,0.4,2.9v1.6h-9.7v0c0.1,0.6,0.3,1,0.5,1.4
			c0.2,0.3,0.5,0.7,0.8,0.9c0.3,0.3,0.7,0.5,1.1,0.7c0.4,0.2,0.9,0.2,1.4,0.2c0.7,0,1.4-0.1,2.1-0.4c0.7-0.3,1.2-0.7,1.6-1.2l1.8,2
			c-0.5,0.7-1.2,1.3-2.2,1.8c-1,0.5-2.2,0.8-3.6,0.8C578.2,318.1,577.2,317.9,576.3,317.6z M577.8,306.5c-0.3,0.1-0.6,0.4-0.9,0.6
			c-0.3,0.3-0.5,0.6-0.7,1s-0.3,0.8-0.4,1.3h6v-0.3c0-0.4-0.1-0.8-0.2-1.1s-0.3-0.6-0.6-0.9c-0.2-0.2-0.5-0.4-0.9-0.6
			c-0.4-0.1-0.8-0.2-1.2-0.2C578.5,306.3,578.1,306.3,577.8,306.5z"/>
		<path class="st13" d="M600.4,303.4c0.5,0.1,0.9,0.2,1.1,0.2l-0.5,3.7c-0.5-0.1-1-0.2-1.5-0.3c-0.5-0.1-1-0.1-1.4-0.1
			c-0.5,0-0.9,0-1.3,0.1c-0.4,0.1-0.7,0.2-1,0.4c-0.4,0.2-0.7,0.4-0.9,0.7c-0.3,0.3-0.5,0.7-0.6,1.1v8.6h-3.7v-14.3h3.4l0.1,2l0,0.3
			c0.6-0.8,1.3-1.4,2.1-1.9c0.8-0.5,1.7-0.7,2.7-0.7C599.4,303.3,599.9,303.3,600.4,303.4z"/>
		<path class="st13" d="M604.8,303.6h3.3l0.2,2c0.2-0.3,0.4-0.5,0.6-0.7c0.2-0.2,0.5-0.4,0.7-0.6c0.4-0.3,0.9-0.5,1.4-0.7
			c0.5-0.2,1-0.2,1.6-0.2c0.7,0,1.4,0.1,2,0.3s1.1,0.5,1.6,1c0.4,0.5,0.8,1.1,1,1.8c0.2,0.7,0.4,1.6,0.4,2.6v8.8h-3.7v-8.7
			c0-0.6-0.1-1-0.2-1.4c-0.1-0.4-0.3-0.7-0.5-0.9s-0.5-0.4-0.9-0.4c-0.3-0.1-0.7-0.1-1.1-0.1c-0.4,0-0.7,0-1,0.1
			c-0.3,0.1-0.6,0.2-0.8,0.4c-0.2,0.1-0.4,0.2-0.5,0.4s-0.3,0.3-0.4,0.5v10.1h-3.7V303.6z"/>
		<path class="st13" d="M629.7,317.2c-0.1-0.2-0.1-0.5-0.2-0.7c-0.2,0.2-0.4,0.4-0.7,0.6s-0.6,0.4-0.9,0.5c-0.3,0.1-0.7,0.3-1.1,0.3
			c-0.4,0.1-0.8,0.1-1.3,0.1c-0.7,0-1.4-0.1-2-0.3c-0.6-0.2-1.1-0.5-1.6-0.9s-0.8-0.8-1-1.4c-0.2-0.5-0.4-1.1-0.4-1.7
			c0-0.8,0.2-1.5,0.5-2.1c0.3-0.6,0.8-1.1,1.4-1.5c0.6-0.4,1.2-0.6,2.1-0.8c0.8-0.2,1.7-0.3,2.8-0.3h2v-0.8c0-0.3-0.1-0.6-0.2-0.9
			c-0.1-0.3-0.3-0.5-0.5-0.7c-0.2-0.2-0.5-0.4-0.8-0.5c-0.3-0.1-0.7-0.2-1.2-0.2c-0.4,0-0.7,0-1,0.1c-0.3,0.1-0.5,0.2-0.7,0.4
			c-0.2,0.1-0.3,0.3-0.3,0.5s-0.1,0.4-0.1,0.7H621c0-0.6,0.1-1.2,0.4-1.7s0.7-1,1.2-1.4c0.5-0.4,1.1-0.7,1.9-1
			c0.7-0.2,1.6-0.4,2.6-0.4c0.9,0,1.7,0.1,2.4,0.3s1.4,0.5,1.9,0.9s1,0.9,1.3,1.6c0.3,0.6,0.5,1.4,0.5,2.2v6.1c0,0.8,0,1.4,0.1,1.9
			c0.1,0.5,0.2,0.9,0.4,1.3v0.2h-3.7C629.8,317.7,629.8,317.5,629.7,317.2z M627.5,315.1c0.3-0.1,0.6-0.2,0.9-0.3
			c0.3-0.1,0.5-0.3,0.7-0.5c0.2-0.2,0.3-0.4,0.4-0.5v-2.5h-1.9c-0.6,0-1.1,0.1-1.5,0.2c-0.4,0.1-0.7,0.3-1,0.5
			c-0.3,0.2-0.4,0.4-0.6,0.7c-0.1,0.3-0.2,0.6-0.2,0.9c0,0.3,0,0.5,0.1,0.7c0.1,0.2,0.2,0.4,0.4,0.5c0.2,0.1,0.4,0.3,0.7,0.3
			c0.3,0.1,0.6,0.1,0.9,0.1C626.8,315.3,627.1,315.2,627.5,315.1z"/>
		<path class="st13" d="M645.9,297.6v17.3h4.1v3H638v-3h4.3v-14.3H638v-3H645.9z"/>
		<path class="st13" d="M679.8,298.6h4.1l-6,12.6l0,6.6h-3.7l0-6.8l-5.9-12.4h4.1l3.8,8.8L679.8,298.6z"/>
		<path class="st13" d="M694.6,303.6v11.3h3.9v3h-11.6v-3h4.1v-8.3h-4.1v-3H694.6z M690.7,299.1c0.1-0.2,0.2-0.5,0.4-0.6
			c0.2-0.2,0.4-0.3,0.7-0.4s0.5-0.1,0.9-0.1c0.7,0,1.2,0.2,1.5,0.5c0.4,0.4,0.6,0.8,0.6,1.4s-0.2,1-0.6,1.4
			c-0.4,0.4-0.9,0.5-1.5,0.5c-0.3,0-0.6,0-0.9-0.1s-0.5-0.2-0.7-0.4c-0.2-0.2-0.3-0.4-0.4-0.6c-0.1-0.2-0.2-0.5-0.2-0.8
			S690.6,299.4,690.7,299.1z"/>
		<path class="st13" d="M705.9,317.6c-0.9-0.4-1.7-0.9-2.3-1.5c-0.6-0.6-1.1-1.3-1.5-2.2c-0.3-0.8-0.5-1.7-0.5-2.7v-0.5
			c0-1.1,0.2-2.1,0.5-3c0.3-0.9,0.8-1.7,1.4-2.3s1.3-1.2,2.2-1.5c0.8-0.4,1.8-0.5,2.8-0.5c1,0,1.9,0.2,2.7,0.5
			c0.8,0.3,1.5,0.8,2.1,1.4c0.6,0.6,1,1.4,1.3,2.2c0.3,0.9,0.4,1.8,0.4,2.9v1.6h-9.7v0c0.1,0.6,0.3,1,0.5,1.4
			c0.2,0.3,0.5,0.7,0.8,0.9c0.3,0.3,0.7,0.5,1.1,0.7c0.4,0.2,0.9,0.2,1.4,0.2c0.7,0,1.4-0.1,2.1-0.4c0.7-0.3,1.2-0.7,1.6-1.2l1.8,2
			c-0.5,0.7-1.2,1.3-2.2,1.8c-1,0.5-2.2,0.8-3.6,0.8C707.8,318.1,706.8,317.9,705.9,317.6z M707.4,306.5c-0.3,0.1-0.6,0.4-0.9,0.6
			c-0.3,0.3-0.5,0.6-0.7,1s-0.3,0.8-0.4,1.3h6v-0.3c0-0.4-0.1-0.8-0.2-1.1s-0.3-0.6-0.6-0.9c-0.2-0.2-0.5-0.4-0.9-0.6
			c-0.4-0.1-0.8-0.2-1.2-0.2C708.1,306.3,707.7,306.3,707.4,306.5z"/>
		<path class="st13" d="M727,297.6v17.3h4.1v3H719v-3h4.3v-14.3H719v-3H727z"/>
		<path class="st13" d="M734.4,307.6c0.2-0.9,0.6-1.7,1.1-2.3c0.5-0.6,1.1-1.1,1.8-1.5c0.7-0.4,1.5-0.5,2.4-0.5c0.7,0,1.4,0.1,2,0.4
			c0.6,0.3,1.1,0.6,1.5,1.1v-7.3h3.7v20.2h-3.3l-0.2-1.5c-0.4,0.6-1,1-1.6,1.3c-0.6,0.3-1.3,0.5-2.1,0.5c-0.9,0-1.7-0.2-2.3-0.5
			c-0.7-0.4-1.3-0.9-1.7-1.5c-0.5-0.6-0.9-1.4-1.1-2.3c-0.3-0.9-0.4-1.8-0.4-2.9v-0.3C734,309.5,734.2,308.5,734.4,307.6z
			 M737.9,312.5c0.1,0.5,0.3,1,0.5,1.3c0.2,0.4,0.5,0.7,0.9,0.9c0.4,0.2,0.8,0.3,1.3,0.3c0.6,0,1.2-0.1,1.6-0.4
			c0.4-0.3,0.8-0.6,1-1.1v-5.8c-0.2-0.5-0.6-0.9-1-1.1c-0.4-0.3-0.9-0.4-1.6-0.4c-0.5,0-1,0.1-1.3,0.3c-0.4,0.2-0.7,0.5-0.9,0.9
			c-0.2,0.4-0.4,0.9-0.5,1.4c-0.1,0.5-0.2,1.1-0.2,1.7v0.3C737.7,311.5,737.8,312,737.9,312.5z"/>
		<path class="st13" d="M770.7,309.9v7.9h-3.7v-19.2h13v3h-9.3v5.2h8.2v3H770.7z"/>
		<path class="st13" d="M791.7,317.2c-0.1-0.2-0.1-0.5-0.2-0.7c-0.2,0.2-0.4,0.4-0.7,0.6s-0.6,0.4-0.9,0.5c-0.3,0.1-0.7,0.3-1.1,0.3
			c-0.4,0.1-0.8,0.1-1.3,0.1c-0.7,0-1.4-0.1-2-0.3c-0.6-0.2-1.1-0.5-1.6-0.9s-0.8-0.8-1-1.4c-0.2-0.5-0.4-1.1-0.4-1.7
			c0-0.8,0.2-1.5,0.5-2.1c0.3-0.6,0.8-1.1,1.4-1.5c0.6-0.4,1.2-0.6,2-0.8c0.8-0.2,1.7-0.3,2.8-0.3h2v-0.8c0-0.3-0.1-0.6-0.2-0.9
			c-0.1-0.3-0.3-0.5-0.5-0.7c-0.2-0.2-0.5-0.4-0.8-0.5c-0.3-0.1-0.7-0.2-1.2-0.2c-0.4,0-0.7,0-1,0.1c-0.3,0.1-0.5,0.2-0.7,0.4
			c-0.2,0.1-0.3,0.3-0.3,0.5s-0.1,0.4-0.1,0.7H783c0-0.6,0.1-1.2,0.4-1.7s0.7-1,1.2-1.4c0.5-0.4,1.1-0.7,1.9-1
			c0.7-0.2,1.6-0.4,2.6-0.4c0.9,0,1.7,0.1,2.4,0.3s1.4,0.5,1.9,0.9s1,0.9,1.3,1.6c0.3,0.6,0.5,1.4,0.5,2.2v6.1c0,0.8,0,1.4,0.1,1.9
			c0.1,0.5,0.2,0.9,0.4,1.3v0.2h-3.7C791.9,317.7,791.8,317.5,791.7,317.2z M789.5,315.1c0.3-0.1,0.6-0.2,0.9-0.3
			c0.3-0.1,0.5-0.3,0.7-0.5c0.2-0.2,0.3-0.4,0.4-0.5v-2.5h-1.9c-0.6,0-1.1,0.1-1.5,0.2c-0.4,0.1-0.7,0.3-1,0.5
			c-0.3,0.2-0.4,0.4-0.6,0.7c-0.1,0.3-0.2,0.6-0.2,0.9c0,0.3,0,0.5,0.1,0.7c0.1,0.2,0.2,0.4,0.4,0.5c0.2,0.1,0.4,0.3,0.7,0.3
			c0.3,0.1,0.6,0.1,0.9,0.1C788.8,315.3,789.2,315.2,789.5,315.1z"/>
		<path class="st13" d="M811,303.4c0.5,0.1,0.9,0.2,1.1,0.2l-0.5,3.7c-0.5-0.1-1-0.2-1.5-0.3c-0.5-0.1-1-0.1-1.4-0.1
			c-0.5,0-0.9,0-1.3,0.1c-0.4,0.1-0.7,0.2-1,0.4c-0.4,0.2-0.7,0.4-0.9,0.7s-0.5,0.7-0.6,1.1v8.6h-3.7v-14.3h3.4l0.1,2l0,0.3
			c0.6-0.8,1.3-1.4,2.1-1.9c0.8-0.5,1.7-0.7,2.7-0.7C810,303.3,810.5,303.3,811,303.4z"/>
		<path class="st13" d="M817.8,305.3c0.3-0.6,0.6-1.1,1.1-1.5c0.5-0.4,1.1-0.5,1.7-0.5c0.3,0,0.6,0,0.9,0.1c0.3,0.1,0.5,0.2,0.7,0.4
			c0.1,0.1,0.3,0.3,0.4,0.4c0.1,0.2,0.2,0.4,0.3,0.6c0.1-0.2,0.3-0.4,0.4-0.6c0.2-0.2,0.3-0.3,0.5-0.4c0.2-0.2,0.5-0.3,0.8-0.4
			s0.6-0.1,0.9-0.1c0.4,0,0.8,0.1,1.2,0.2s0.7,0.4,1,0.8c0.3,0.4,0.5,0.8,0.6,1.4c0.2,0.5,0.2,1.2,0.2,2v10.2h-3.3v-10.2
			c0-0.3,0-0.5-0.1-0.7c-0.1-0.2-0.1-0.3-0.2-0.4c-0.1-0.1-0.2-0.2-0.3-0.2c-0.1,0-0.3-0.1-0.4-0.1c-0.1,0-0.3,0-0.4,0.1
			s-0.2,0.1-0.3,0.1c-0.1,0.1-0.1,0.1-0.2,0.2c-0.1,0.1-0.1,0.2-0.2,0.3c0,0,0,0.1,0,0.1c0,0.1,0,0.1,0,0.3v10.5H820v-10.2
			c0-0.3,0-0.5-0.1-0.7c-0.1-0.2-0.1-0.3-0.2-0.4c-0.1-0.1-0.2-0.2-0.3-0.2c-0.1,0-0.3-0.1-0.4-0.1c-0.2,0-0.3,0-0.4,0.1
			s-0.2,0.1-0.3,0.2c-0.1,0.1-0.1,0.2-0.2,0.3s-0.1,0.2-0.1,0.3v10.7h-3.3v-14.3h3.2L817.8,305.3z"/>
	</g>
</g>
<g>
	<g>
		<path class="st13" d="M349.4,166.6c0.1-0.7,0.3-1.4,0.5-2c0.2-0.6,0.5-1.2,0.8-1.7s0.6-1,0.9-1.4s0.7-0.7,1-1
			c0.3-0.3,0.7-0.5,1-0.6l0.5,1.3c-0.2,0.1-0.4,0.3-0.6,0.5s-0.4,0.4-0.6,0.7c-0.2,0.3-0.5,0.7-0.7,1.2s-0.4,1-0.5,1.5
			c-0.1,0.5-0.2,1.1-0.3,1.7s-0.1,1.3-0.1,2.1v0.2c0,0.7,0,1.4,0.1,2s0.2,1.1,0.3,1.5c0.1,0.5,0.3,1,0.5,1.4s0.4,0.8,0.6,1.2
			c0.2,0.4,0.4,0.7,0.7,0.9s0.5,0.5,0.7,0.7l-0.5,1.3c-0.3-0.1-0.7-0.4-1-0.6s-0.7-0.6-1-1c-0.3-0.4-0.6-0.8-0.9-1.3
			s-0.5-1.1-0.8-1.7c-0.2-0.6-0.4-1.3-0.5-2s-0.2-1.5-0.2-2.3v-0.2C349.2,168.1,349.2,167.3,349.4,166.6z"/>
		<path class="st13" d="M360.7,174.1h-2.5v-12.8h4.4c0.7,0,1.3,0.1,1.9,0.3c0.6,0.2,1,0.5,1.4,0.8c0.4,0.4,0.7,0.8,0.9,1.3
			s0.3,1.1,0.3,1.7c0,0.6-0.1,1.1-0.3,1.6s-0.5,0.9-0.9,1.3c-0.4,0.4-0.9,0.6-1.4,0.8s-1.2,0.3-1.9,0.3h-1.9V174.1z M362.6,167.4
			c0.4,0,0.7-0.1,0.9-0.2s0.5-0.2,0.7-0.4c0.2-0.2,0.3-0.4,0.4-0.6c0.1-0.2,0.1-0.5,0.1-0.7c0-0.3,0-0.6-0.1-0.8s-0.2-0.5-0.4-0.7
			c-0.2-0.2-0.4-0.3-0.7-0.5s-0.6-0.2-0.9-0.2h-1.9v4.1H362.6z"/>
		<path class="st13" d="M368.9,167.3c0.2-0.6,0.5-1.1,0.9-1.5c0.4-0.4,0.8-0.8,1.4-1s1.2-0.4,1.9-0.4s1.4,0.1,1.9,0.4s1,0.6,1.4,1
			c0.4,0.4,0.7,0.9,0.9,1.5c0.2,0.6,0.3,1.2,0.3,1.9v0.2c0,0.7-0.1,1.3-0.3,1.9c-0.2,0.6-0.5,1.1-0.9,1.5s-0.8,0.8-1.4,1
			c-0.6,0.2-1.2,0.4-1.9,0.4c-0.7,0-1.4-0.1-1.9-0.4c-0.6-0.2-1-0.6-1.4-1c-0.4-0.4-0.7-0.9-0.9-1.5c-0.2-0.6-0.3-1.2-0.3-1.9v-0.2
			C368.7,168.6,368.8,167.9,368.9,167.3z M371.2,170.6c0.1,0.3,0.2,0.7,0.4,0.9c0.2,0.3,0.4,0.5,0.6,0.6s0.6,0.2,0.9,0.2
			c0.4,0,0.7-0.1,0.9-0.2s0.5-0.4,0.6-0.6c0.2-0.3,0.3-0.6,0.4-0.9s0.1-0.7,0.1-1.1v-0.2c0-0.4,0-0.8-0.1-1.1s-0.2-0.7-0.4-0.9
			c-0.2-0.3-0.4-0.5-0.6-0.6s-0.6-0.2-0.9-0.2c-0.4,0-0.7,0.1-0.9,0.2s-0.5,0.4-0.6,0.6s-0.3,0.6-0.4,0.9s-0.1,0.7-0.1,1.1v0.2
			C371.1,169.8,371.1,170.2,371.2,170.6z"/>
		<path class="st13" d="M387.6,164.5c0.3,0.1,0.6,0.1,0.8,0.2l-0.4,2.4c-0.3-0.1-0.7-0.1-1-0.2c-0.3,0-0.7-0.1-1-0.1
			c-0.3,0-0.6,0-0.9,0.1s-0.5,0.1-0.7,0.2c-0.2,0.1-0.4,0.3-0.6,0.5s-0.3,0.4-0.4,0.7v5.7h-2.4v-9.5h2.3l0.1,1.3l0,0.2
			c0.4-0.5,0.8-1,1.4-1.3c0.5-0.3,1.1-0.5,1.8-0.5C387,164.4,387.3,164.4,387.6,164.5z"/>
		<path class="st13" d="M395.1,164.6h3.6v1.8h-3.6v4.1c0,0.3,0,0.6,0.1,0.9c0.1,0.2,0.2,0.4,0.3,0.5c0.1,0.1,0.3,0.2,0.5,0.3
			s0.4,0.1,0.7,0.1c0.2,0,0.4,0,0.6,0s0.4,0,0.6-0.1c0.2,0,0.3,0,0.5-0.1s0.3-0.1,0.4-0.1l0.2,1.7c-0.2,0.1-0.4,0.2-0.6,0.3
			s-0.5,0.1-0.7,0.2s-0.5,0.1-0.8,0.1c-0.3,0-0.6,0-0.8,0c-0.5,0-1-0.1-1.4-0.2c-0.4-0.1-0.8-0.4-1.1-0.6c-0.3-0.3-0.5-0.7-0.7-1.1
			c-0.2-0.4-0.2-1-0.2-1.6v-4.3h-2.2v-1.8h2.2v-2.3h2.4V164.6z"/>
		<path class="st13" d="M407.2,164.6v7.5h2.6v2H402v-2h2.7v-5.5H402v-2H407.2z M404.7,161.6c0.1-0.2,0.2-0.3,0.3-0.4
			c0.1-0.1,0.3-0.2,0.4-0.3s0.4-0.1,0.6-0.1c0.4,0,0.8,0.1,1,0.4c0.3,0.2,0.4,0.6,0.4,0.9s-0.1,0.7-0.4,0.9s-0.6,0.4-1,0.4
			c-0.2,0-0.4,0-0.6-0.1s-0.3-0.2-0.4-0.3c-0.1-0.1-0.2-0.2-0.3-0.4c-0.1-0.2-0.1-0.3-0.1-0.5S404.6,161.8,404.7,161.6z"/>
		<path class="st13" d="M412.2,167.3c0.2-0.6,0.5-1.1,0.9-1.5c0.4-0.4,0.8-0.8,1.4-1s1.2-0.4,1.9-0.4s1.4,0.1,1.9,0.4s1,0.6,1.4,1
			c0.4,0.4,0.7,0.9,0.9,1.5c0.2,0.6,0.3,1.2,0.3,1.9v0.2c0,0.7-0.1,1.3-0.3,1.9c-0.2,0.6-0.5,1.1-0.9,1.5s-0.8,0.8-1.4,1
			c-0.6,0.2-1.2,0.4-1.9,0.4c-0.7,0-1.4-0.1-1.9-0.4c-0.6-0.2-1-0.6-1.4-1c-0.4-0.4-0.7-0.9-0.9-1.5c-0.2-0.6-0.3-1.2-0.3-1.9v-0.2
			C411.9,168.6,412,167.9,412.2,167.3z M414.4,170.6c0.1,0.3,0.2,0.7,0.4,0.9c0.2,0.3,0.4,0.5,0.6,0.6s0.6,0.2,0.9,0.2
			c0.4,0,0.7-0.1,0.9-0.2s0.5-0.4,0.6-0.6c0.2-0.3,0.3-0.6,0.4-0.9s0.1-0.7,0.1-1.1v-0.2c0-0.4,0-0.8-0.1-1.1s-0.2-0.7-0.4-0.9
			c-0.2-0.3-0.4-0.5-0.6-0.6s-0.6-0.2-0.9-0.2c-0.4,0-0.7,0.1-0.9,0.2s-0.5,0.4-0.6,0.6s-0.3,0.6-0.4,0.9s-0.1,0.7-0.1,1.1v0.2
			C414.3,169.8,414.3,170.2,414.4,170.6z"/>
		<path class="st13" d="M423,164.6h2.2l0.1,1.3c0.1-0.2,0.3-0.3,0.4-0.5s0.3-0.3,0.5-0.4c0.3-0.2,0.6-0.4,0.9-0.5s0.7-0.2,1.1-0.2
			c0.5,0,0.9,0.1,1.3,0.2s0.7,0.4,1,0.7c0.3,0.3,0.5,0.7,0.7,1.2c0.2,0.5,0.2,1.1,0.2,1.8v5.9H429v-5.8c0-0.4,0-0.7-0.1-0.9
			c-0.1-0.2-0.2-0.4-0.4-0.6s-0.3-0.2-0.6-0.3s-0.5-0.1-0.8-0.1c-0.2,0-0.4,0-0.6,0.1s-0.4,0.1-0.5,0.2c-0.1,0.1-0.2,0.2-0.3,0.3
			s-0.2,0.2-0.3,0.4v6.8H423V164.6z"/>
		<path class="st13" d="M453.3,170.2c-0.1,0.5-0.2,1-0.4,1.4c-0.2,0.4-0.4,0.8-0.7,1.2s-0.6,0.6-1,0.9c-0.3,0.2-0.7,0.4-1.1,0.5
			c-0.4,0.1-0.8,0.2-1.3,0.2c-0.5,0-1-0.1-1.4-0.2s-0.8-0.3-1.2-0.5c-0.3-0.2-0.6-0.5-0.9-0.9c-0.3-0.3-0.5-0.7-0.7-1.2
			c-0.2-0.4-0.3-0.8-0.4-1.3s-0.1-1-0.1-1.5v-1.9c0-0.6,0-1.1,0.1-1.6s0.2-1,0.4-1.4c0.2-0.4,0.4-0.8,0.7-1.1s0.6-0.6,0.9-0.8
			c0.3-0.2,0.7-0.4,1.1-0.5s0.9-0.2,1.4-0.2c0.5,0,1,0.1,1.4,0.2s0.8,0.3,1.2,0.5c0.3,0.2,0.6,0.5,0.9,0.8s0.5,0.7,0.7,1
			c0.2,0.4,0.4,0.9,0.5,1.4s0.2,1.1,0.2,1.6v1.9C453.4,169.2,453.4,169.7,453.3,170.2z M450.9,165.8c0-0.3-0.1-0.6-0.2-0.8
			c-0.1-0.3-0.2-0.6-0.4-0.8c-0.1-0.2-0.3-0.5-0.5-0.6c-0.2-0.1-0.3-0.2-0.5-0.3s-0.4-0.1-0.7-0.1c-0.2,0-0.4,0-0.6,0.1
			s-0.4,0.1-0.5,0.3c-0.2,0.2-0.4,0.4-0.5,0.6s-0.2,0.5-0.3,0.9c-0.1,0.3-0.1,0.5-0.1,0.8s0,0.6,0,0.9v1.9c0,0.3,0,0.6,0,0.9
			s0.1,0.6,0.1,0.8c0.1,0.3,0.2,0.6,0.3,0.8c0.1,0.3,0.3,0.5,0.4,0.6c0.2,0.1,0.3,0.2,0.5,0.3s0.4,0.1,0.7,0.1c0.2,0,0.5,0,0.7-0.1
			s0.4-0.2,0.5-0.3c0.2-0.2,0.4-0.4,0.5-0.6s0.2-0.5,0.3-0.8c0.1-0.2,0.1-0.5,0.1-0.8s0-0.6,0-0.9v-1.9
			C450.9,166.4,450.9,166.1,450.9,165.8z"/>
		<path class="st13" d="M457.8,166.4h-2.5v-1.8h2.5v-0.5c0-0.6,0.1-1.2,0.3-1.7s0.5-0.9,0.9-1.2s0.8-0.6,1.3-0.7
			c0.5-0.2,1.1-0.3,1.8-0.3c0.2,0,0.4,0,0.6,0s0.4,0,0.6,0.1s0.4,0,0.5,0.1s0.4,0.1,0.6,0.1l-0.2,1.9c-0.2,0-0.5-0.1-0.8-0.1
			s-0.6-0.1-1-0.1c-0.4,0-0.8,0-1,0.1s-0.5,0.2-0.7,0.4c-0.2,0.2-0.3,0.3-0.3,0.6s-0.1,0.5-0.1,0.8v0.5h3.4v1.8h-3.4v7.7h-2.5V166.4
			z"/>
		<path class="st13" d="M479.6,168.8v5.3h-2.5v-12.8h8.6v2h-6.2v3.5h5.5v2H479.6z"/>
		<path class="st13" d="M490.4,173.9c-0.6-0.2-1.1-0.6-1.5-1c-0.4-0.4-0.8-0.9-1-1.5s-0.3-1.2-0.3-1.8v-0.4c0-0.7,0.1-1.4,0.3-2
			c0.2-0.6,0.5-1.1,1-1.6s0.9-0.8,1.5-1s1.2-0.4,1.8-0.4c0.7,0,1.3,0.1,1.8,0.3c0.5,0.2,1,0.5,1.4,1c0.4,0.4,0.7,0.9,0.8,1.5
			s0.3,1.2,0.3,1.9v1H490v0c0.1,0.4,0.2,0.7,0.3,0.9c0.1,0.2,0.3,0.4,0.5,0.6c0.2,0.2,0.5,0.3,0.8,0.4s0.6,0.2,0.9,0.2
			c0.5,0,0.9-0.1,1.4-0.3s0.8-0.5,1.1-0.8l1.2,1.3c-0.3,0.4-0.8,0.8-1.5,1.2s-1.5,0.5-2.4,0.5C491.7,174.3,491,174.1,490.4,173.9z
			 M491.4,166.5c-0.2,0.1-0.4,0.2-0.6,0.4c-0.2,0.2-0.3,0.4-0.4,0.7s-0.2,0.5-0.3,0.8h4v-0.2c0-0.3,0-0.5-0.1-0.7s-0.2-0.4-0.4-0.6
			c-0.2-0.2-0.4-0.3-0.6-0.4c-0.2-0.1-0.5-0.1-0.8-0.1C491.9,166.4,491.6,166.4,491.4,166.5z"/>
		<path class="st13" d="M501.2,173.9c-0.6-0.2-1.1-0.6-1.5-1c-0.4-0.4-0.8-0.9-1-1.5s-0.3-1.2-0.3-1.8v-0.4c0-0.7,0.1-1.4,0.3-2
			c0.2-0.6,0.5-1.1,1-1.6s0.9-0.8,1.5-1c0.6-0.2,1.2-0.4,1.8-0.4c0.7,0,1.3,0.1,1.8,0.3c0.5,0.2,1,0.5,1.4,1
			c0.4,0.4,0.7,0.9,0.8,1.5s0.3,1.2,0.3,1.9v1h-6.5v0c0.1,0.4,0.2,0.7,0.3,0.9c0.1,0.2,0.3,0.4,0.5,0.6c0.2,0.2,0.5,0.3,0.8,0.4
			s0.6,0.2,0.9,0.2c0.5,0,0.9-0.1,1.4-0.3s0.8-0.5,1.1-0.8l1.2,1.3c-0.3,0.4-0.8,0.8-1.5,1.2s-1.5,0.5-2.4,0.5
			C502.5,174.3,501.8,174.1,501.2,173.9z M502.2,166.5c-0.2,0.1-0.4,0.2-0.6,0.4c-0.2,0.2-0.3,0.4-0.4,0.7s-0.2,0.5-0.3,0.8h4v-0.2
			c0-0.3,0-0.5-0.1-0.7s-0.2-0.4-0.4-0.6c-0.2-0.2-0.4-0.3-0.6-0.4c-0.2-0.1-0.5-0.1-0.8-0.1C502.7,166.4,502.4,166.4,502.2,166.5z"
			/>
		<path class="st13" d="M515.4,171.1c-0.1-0.1-0.2-0.2-0.4-0.3c-0.2-0.1-0.4-0.2-0.7-0.3s-0.7-0.2-1.1-0.2c-0.6-0.1-1.1-0.3-1.5-0.4
			c-0.5-0.2-0.9-0.4-1.2-0.6c-0.3-0.2-0.6-0.5-0.8-0.8s-0.3-0.7-0.3-1.1c0-0.4,0.1-0.8,0.3-1.1s0.5-0.7,0.8-0.9s0.8-0.5,1.3-0.6
			s1.1-0.2,1.7-0.2c0.7,0,1.3,0.1,1.8,0.2c0.5,0.2,1,0.4,1.3,0.6c0.4,0.3,0.6,0.6,0.8,1s0.3,0.8,0.3,1.2h-2.4c0-0.2,0-0.3-0.1-0.4
			c-0.1-0.1-0.1-0.3-0.2-0.4c-0.1-0.1-0.3-0.3-0.6-0.4s-0.5-0.1-0.9-0.1c-0.3,0-0.6,0-0.8,0.1s-0.4,0.1-0.5,0.2
			c-0.1,0.1-0.2,0.2-0.3,0.3c-0.1,0.1-0.1,0.3-0.1,0.4s0,0.3,0.1,0.4c0.1,0.1,0.2,0.2,0.3,0.3c0.1,0.1,0.3,0.2,0.6,0.3
			c0.3,0.1,0.6,0.1,1,0.2c0.6,0.1,1.1,0.2,1.6,0.4s0.9,0.3,1.3,0.6c0.4,0.2,0.6,0.5,0.8,0.8c0.2,0.3,0.3,0.7,0.3,1.2
			c0,0.4-0.1,0.8-0.3,1.2s-0.5,0.7-0.9,0.9c-0.4,0.3-0.8,0.5-1.4,0.6c-0.5,0.1-1.1,0.2-1.8,0.2c-0.7,0-1.3-0.1-1.9-0.3
			s-1-0.4-1.4-0.7c-0.4-0.3-0.6-0.6-0.8-1c-0.2-0.4-0.3-0.8-0.3-1.2h2.3c0,0.3,0.1,0.5,0.2,0.7c0.1,0.2,0.3,0.3,0.5,0.4
			c0.2,0.1,0.4,0.2,0.7,0.3s0.5,0.1,0.8,0.1c0.3,0,0.6,0,0.8-0.1s0.4-0.1,0.6-0.2c0.1-0.1,0.3-0.2,0.3-0.3s0.1-0.3,0.1-0.4
			S515.5,171.2,515.4,171.1z"/>
		<path class="st13" d="M526.5,171.4c-0.1,0.7-0.3,1.4-0.5,2s-0.5,1.2-0.8,1.7c-0.3,0.5-0.6,1-0.9,1.4c-0.3,0.4-0.7,0.7-1,1
			s-0.7,0.5-1,0.6l-0.5-1.3c0.2-0.2,0.4-0.3,0.6-0.6s0.4-0.5,0.6-0.8c0.2-0.4,0.4-0.8,0.6-1.2s0.4-0.9,0.5-1.5
			c0.1-0.5,0.2-1.1,0.3-1.7s0.1-1.3,0.1-2v-0.2c0-0.7,0-1.3-0.1-1.9s-0.2-1.1-0.3-1.7c-0.2-0.6-0.3-1.2-0.6-1.7s-0.5-0.9-0.7-1.3
			c-0.2-0.2-0.3-0.5-0.5-0.6s-0.4-0.4-0.5-0.5l0.5-1.3c0.3,0.1,0.7,0.4,1,0.6s0.7,0.6,1,1c0.3,0.4,0.6,0.9,0.9,1.4
			c0.3,0.5,0.6,1.1,0.8,1.7s0.4,1.3,0.5,2c0.1,0.7,0.2,1.5,0.2,2.3v0.2C526.7,169.9,526.6,170.6,526.5,171.4z"/>
	</g>
</g>
</svg>
